<?xml version="1.0" encoding="utf-8" standalone="no"?>
<!DOCTYPE svg PUBLIC "-//W3C//DTD SVG 1.1//EN"
  "http://www.w3.org/Graphics/SVG/1.1/DTD/svg11.dtd">
<svg xmlns:xlink="http://www.w3.org/1999/xlink" width="864pt" height="360pt" viewBox="0 0 864 360" xmlns="http://www.w3.org/2000/svg" version="1.1">
 <metadata>
  <rdf:RDF xmlns:dc="http://purl.org/dc/elements/1.1/" xmlns:cc="http://creativecommons.org/ns#" xmlns:rdf="http://www.w3.org/1999/02/22-rdf-syntax-ns#">
   <cc:Work>
    <dc:type rdf:resource="http://purl.org/dc/dcmitype/StillImage"/>
    <dc:date>2022-06-30T20:27:09.329455</dc:date>
    <dc:format>image/svg+xml</dc:format>
    <dc:creator>
     <cc:Agent>
      <dc:title>Matplotlib v3.5.2, https://matplotlib.org/</dc:title>
     </cc:Agent>
    </dc:creator>
   </cc:Work>
  </rdf:RDF>
 </metadata>
 <defs>
  <style type="text/css">*{stroke-linejoin: round; stroke-linecap: butt}</style>
 </defs>
 <g id="figure_1">
  <g id="patch_1">
   <path d="M 0 360 
L 864 360 
L 864 0 
L 0 0 
L 0 360 
z
" style="fill: none; opacity: 0"/>
  </g>
  <g id="axes_1">
   <g id="patch_2">
    <path d="M 108 320.4 
L 777.6 320.4 
L 777.6 43.2 
L 108 43.2 
L 108 320.4 
z
" style="fill: none; opacity: 0"/>
   </g>
   <g id="matplotlib.axis_1">
    <g id="xtick_1">
     <g id="line2d_1">
      <path d="M 208.056198 320.4 
L 208.056198 43.2 
" clip-path="url(#p89b415b486)" style="fill: none; stroke-dasharray: 5.12,1.28,0.8,1.28; stroke-dashoffset: 0; stroke: #b0b0b0; stroke-width: 0.8"/>
     </g>
     <g id="line2d_2">
      <defs>
       <path id="mdd9205adac" d="M 0 0 
L 0 3.5 
" style="stroke: #a9a9a9; stroke-width: 0.8"/>
      </defs>
      <g>
       <use xlink:href="#mdd9205adac" x="208.056198" y="320.4" style="fill: #a9a9a9; stroke: #a9a9a9; stroke-width: 0.8"/>
      </g>
     </g>
     <g id="text_1">
      <!-- 2021-09 -->
      <g style="fill: #a9a9a9" transform="translate(187.164792 334.998438)scale(0.1 -0.1)">
       <defs>
        <path id="DejaVuSans-32" d="M 1228 531 
L 3431 531 
L 3431 0 
L 469 0 
L 469 531 
Q 828 903 1448 1529 
Q 2069 2156 2228 2338 
Q 2531 2678 2651 2914 
Q 2772 3150 2772 3378 
Q 2772 3750 2511 3984 
Q 2250 4219 1831 4219 
Q 1534 4219 1204 4116 
Q 875 4013 500 3803 
L 500 4441 
Q 881 4594 1212 4672 
Q 1544 4750 1819 4750 
Q 2544 4750 2975 4387 
Q 3406 4025 3406 3419 
Q 3406 3131 3298 2873 
Q 3191 2616 2906 2266 
Q 2828 2175 2409 1742 
Q 1991 1309 1228 531 
z
" transform="scale(0.015625)"/>
        <path id="DejaVuSans-30" d="M 2034 4250 
Q 1547 4250 1301 3770 
Q 1056 3291 1056 2328 
Q 1056 1369 1301 889 
Q 1547 409 2034 409 
Q 2525 409 2770 889 
Q 3016 1369 3016 2328 
Q 3016 3291 2770 3770 
Q 2525 4250 2034 4250 
z
M 2034 4750 
Q 2819 4750 3233 4129 
Q 3647 3509 3647 2328 
Q 3647 1150 3233 529 
Q 2819 -91 2034 -91 
Q 1250 -91 836 529 
Q 422 1150 422 2328 
Q 422 3509 836 4129 
Q 1250 4750 2034 4750 
z
" transform="scale(0.015625)"/>
        <path id="DejaVuSans-31" d="M 794 531 
L 1825 531 
L 1825 4091 
L 703 3866 
L 703 4441 
L 1819 4666 
L 2450 4666 
L 2450 531 
L 3481 531 
L 3481 0 
L 794 0 
L 794 531 
z
" transform="scale(0.015625)"/>
        <path id="DejaVuSans-2d" d="M 313 2009 
L 1997 2009 
L 1997 1497 
L 313 1497 
L 313 2009 
z
" transform="scale(0.015625)"/>
        <path id="DejaVuSans-39" d="M 703 97 
L 703 672 
Q 941 559 1184 500 
Q 1428 441 1663 441 
Q 2288 441 2617 861 
Q 2947 1281 2994 2138 
Q 2813 1869 2534 1725 
Q 2256 1581 1919 1581 
Q 1219 1581 811 2004 
Q 403 2428 403 3163 
Q 403 3881 828 4315 
Q 1253 4750 1959 4750 
Q 2769 4750 3195 4129 
Q 3622 3509 3622 2328 
Q 3622 1225 3098 567 
Q 2575 -91 1691 -91 
Q 1453 -91 1209 -44 
Q 966 3 703 97 
z
M 1959 2075 
Q 2384 2075 2632 2365 
Q 2881 2656 2881 3163 
Q 2881 3666 2632 3958 
Q 2384 4250 1959 4250 
Q 1534 4250 1286 3958 
Q 1038 3666 1038 3163 
Q 1038 2656 1286 2365 
Q 1534 2075 1959 2075 
z
" transform="scale(0.015625)"/>
       </defs>
       <use xlink:href="#DejaVuSans-32"/>
       <use xlink:href="#DejaVuSans-30" x="63.623047"/>
       <use xlink:href="#DejaVuSans-32" x="127.246094"/>
       <use xlink:href="#DejaVuSans-31" x="190.869141"/>
       <use xlink:href="#DejaVuSans-2d" x="254.492188"/>
       <use xlink:href="#DejaVuSans-30" x="290.576172"/>
       <use xlink:href="#DejaVuSans-39" x="354.199219"/>
      </g>
     </g>
    </g>
    <g id="xtick_2">
     <g id="line2d_3">
      <path d="M 316.94876 320.4 
L 316.94876 43.2 
" clip-path="url(#p89b415b486)" style="fill: none; stroke-dasharray: 5.12,1.28,0.8,1.28; stroke-dashoffset: 0; stroke: #b0b0b0; stroke-width: 0.8"/>
     </g>
     <g id="line2d_4">
      <g>
       <use xlink:href="#mdd9205adac" x="316.94876" y="320.4" style="fill: #a9a9a9; stroke: #a9a9a9; stroke-width: 0.8"/>
      </g>
     </g>
     <g id="text_2">
      <!-- 2021-11 -->
      <g style="fill: #a9a9a9" transform="translate(296.057354 334.998438)scale(0.1 -0.1)">
       <use xlink:href="#DejaVuSans-32"/>
       <use xlink:href="#DejaVuSans-30" x="63.623047"/>
       <use xlink:href="#DejaVuSans-32" x="127.246094"/>
       <use xlink:href="#DejaVuSans-31" x="190.869141"/>
       <use xlink:href="#DejaVuSans-2d" x="254.492188"/>
       <use xlink:href="#DejaVuSans-31" x="290.576172"/>
       <use xlink:href="#DejaVuSans-31" x="354.199219"/>
      </g>
     </g>
    </g>
    <g id="xtick_3">
     <g id="line2d_5">
      <path d="M 425.841322 320.4 
L 425.841322 43.2 
" clip-path="url(#p89b415b486)" style="fill: none; stroke-dasharray: 5.12,1.28,0.8,1.28; stroke-dashoffset: 0; stroke: #b0b0b0; stroke-width: 0.8"/>
     </g>
     <g id="line2d_6">
      <g>
       <use xlink:href="#mdd9205adac" x="425.841322" y="320.4" style="fill: #a9a9a9; stroke: #a9a9a9; stroke-width: 0.8"/>
      </g>
     </g>
     <g id="text_3">
      <!-- 2022-01 -->
      <g style="fill: #a9a9a9" transform="translate(404.949916 334.998438)scale(0.1 -0.1)">
       <use xlink:href="#DejaVuSans-32"/>
       <use xlink:href="#DejaVuSans-30" x="63.623047"/>
       <use xlink:href="#DejaVuSans-32" x="127.246094"/>
       <use xlink:href="#DejaVuSans-32" x="190.869141"/>
       <use xlink:href="#DejaVuSans-2d" x="254.492188"/>
       <use xlink:href="#DejaVuSans-30" x="290.576172"/>
       <use xlink:href="#DejaVuSans-31" x="354.199219"/>
      </g>
     </g>
    </g>
    <g id="xtick_4">
     <g id="line2d_7">
      <path d="M 531.163636 320.4 
L 531.163636 43.2 
" clip-path="url(#p89b415b486)" style="fill: none; stroke-dasharray: 5.12,1.28,0.8,1.28; stroke-dashoffset: 0; stroke: #b0b0b0; stroke-width: 0.8"/>
     </g>
     <g id="line2d_8">
      <g>
       <use xlink:href="#mdd9205adac" x="531.163636" y="320.4" style="fill: #a9a9a9; stroke: #a9a9a9; stroke-width: 0.8"/>
      </g>
     </g>
     <g id="text_4">
      <!-- 2022-03 -->
      <g style="fill: #a9a9a9" transform="translate(510.27223 334.998438)scale(0.1 -0.1)">
       <defs>
        <path id="DejaVuSans-33" d="M 2597 2516 
Q 3050 2419 3304 2112 
Q 3559 1806 3559 1356 
Q 3559 666 3084 287 
Q 2609 -91 1734 -91 
Q 1441 -91 1130 -33 
Q 819 25 488 141 
L 488 750 
Q 750 597 1062 519 
Q 1375 441 1716 441 
Q 2309 441 2620 675 
Q 2931 909 2931 1356 
Q 2931 1769 2642 2001 
Q 2353 2234 1838 2234 
L 1294 2234 
L 1294 2753 
L 1863 2753 
Q 2328 2753 2575 2939 
Q 2822 3125 2822 3475 
Q 2822 3834 2567 4026 
Q 2313 4219 1838 4219 
Q 1578 4219 1281 4162 
Q 984 4106 628 3988 
L 628 4550 
Q 988 4650 1302 4700 
Q 1616 4750 1894 4750 
Q 2613 4750 3031 4423 
Q 3450 4097 3450 3541 
Q 3450 3153 3228 2886 
Q 3006 2619 2597 2516 
z
" transform="scale(0.015625)"/>
       </defs>
       <use xlink:href="#DejaVuSans-32"/>
       <use xlink:href="#DejaVuSans-30" x="63.623047"/>
       <use xlink:href="#DejaVuSans-32" x="127.246094"/>
       <use xlink:href="#DejaVuSans-32" x="190.869141"/>
       <use xlink:href="#DejaVuSans-2d" x="254.492188"/>
       <use xlink:href="#DejaVuSans-30" x="290.576172"/>
       <use xlink:href="#DejaVuSans-33" x="354.199219"/>
      </g>
     </g>
    </g>
    <g id="xtick_5">
     <g id="line2d_9">
      <path d="M 640.056198 320.4 
L 640.056198 43.2 
" clip-path="url(#p89b415b486)" style="fill: none; stroke-dasharray: 5.12,1.28,0.8,1.28; stroke-dashoffset: 0; stroke: #b0b0b0; stroke-width: 0.8"/>
     </g>
     <g id="line2d_10">
      <g>
       <use xlink:href="#mdd9205adac" x="640.056198" y="320.4" style="fill: #a9a9a9; stroke: #a9a9a9; stroke-width: 0.8"/>
      </g>
     </g>
     <g id="text_5">
      <!-- 2022-05 -->
      <g style="fill: #a9a9a9" transform="translate(619.164792 334.998438)scale(0.1 -0.1)">
       <defs>
        <path id="DejaVuSans-35" d="M 691 4666 
L 3169 4666 
L 3169 4134 
L 1269 4134 
L 1269 2991 
Q 1406 3038 1543 3061 
Q 1681 3084 1819 3084 
Q 2600 3084 3056 2656 
Q 3513 2228 3513 1497 
Q 3513 744 3044 326 
Q 2575 -91 1722 -91 
Q 1428 -91 1123 -41 
Q 819 9 494 109 
L 494 744 
Q 775 591 1075 516 
Q 1375 441 1709 441 
Q 2250 441 2565 725 
Q 2881 1009 2881 1497 
Q 2881 1984 2565 2268 
Q 2250 2553 1709 2553 
Q 1456 2553 1204 2497 
Q 953 2441 691 2322 
L 691 4666 
z
" transform="scale(0.015625)"/>
       </defs>
       <use xlink:href="#DejaVuSans-32"/>
       <use xlink:href="#DejaVuSans-30" x="63.623047"/>
       <use xlink:href="#DejaVuSans-32" x="127.246094"/>
       <use xlink:href="#DejaVuSans-32" x="190.869141"/>
       <use xlink:href="#DejaVuSans-2d" x="254.492188"/>
       <use xlink:href="#DejaVuSans-30" x="290.576172"/>
       <use xlink:href="#DejaVuSans-35" x="354.199219"/>
      </g>
     </g>
    </g>
    <g id="xtick_6">
     <g id="line2d_11">
      <path d="M 748.94876 320.4 
L 748.94876 43.2 
" clip-path="url(#p89b415b486)" style="fill: none; stroke-dasharray: 5.12,1.28,0.8,1.28; stroke-dashoffset: 0; stroke: #b0b0b0; stroke-width: 0.8"/>
     </g>
     <g id="line2d_12">
      <g>
       <use xlink:href="#mdd9205adac" x="748.94876" y="320.4" style="fill: #a9a9a9; stroke: #a9a9a9; stroke-width: 0.8"/>
      </g>
     </g>
     <g id="text_6">
      <!-- 2022-07 -->
      <g style="fill: #a9a9a9" transform="translate(728.057354 334.998438)scale(0.1 -0.1)">
       <defs>
        <path id="DejaVuSans-37" d="M 525 4666 
L 3525 4666 
L 3525 4397 
L 1831 0 
L 1172 0 
L 2766 4134 
L 525 4134 
L 525 4666 
z
" transform="scale(0.015625)"/>
       </defs>
       <use xlink:href="#DejaVuSans-32"/>
       <use xlink:href="#DejaVuSans-30" x="63.623047"/>
       <use xlink:href="#DejaVuSans-32" x="127.246094"/>
       <use xlink:href="#DejaVuSans-32" x="190.869141"/>
       <use xlink:href="#DejaVuSans-2d" x="254.492188"/>
       <use xlink:href="#DejaVuSans-30" x="290.576172"/>
       <use xlink:href="#DejaVuSans-37" x="354.199219"/>
      </g>
     </g>
    </g>
   </g>
   <g id="matplotlib.axis_2">
    <g id="ytick_1">
     <g id="line2d_13">
      <path d="M 108 307.914182 
L 777.6 307.914182 
" clip-path="url(#p89b415b486)" style="fill: none; stroke-dasharray: 5.12,1.28,0.8,1.28; stroke-dashoffset: 0; stroke: #b0b0b0; stroke-width: 0.8"/>
     </g>
     <g id="line2d_14">
      <defs>
       <path id="m117398ac80" d="M 0 0 
L -3.5 0 
" style="stroke: #a9a9a9; stroke-width: 0.8"/>
      </defs>
      <g>
       <use xlink:href="#m117398ac80" x="108" y="307.914182" style="fill: #a9a9a9; stroke: #a9a9a9; stroke-width: 0.8"/>
      </g>
     </g>
     <g id="text_7">
      <!-- 0 -->
      <g style="fill: #a9a9a9" transform="translate(94.6375 311.713401)scale(0.1 -0.1)">
       <use xlink:href="#DejaVuSans-30"/>
      </g>
     </g>
    </g>
    <g id="ytick_2">
     <g id="line2d_15">
      <path d="M 108 279.368645 
L 777.6 279.368645 
" clip-path="url(#p89b415b486)" style="fill: none; stroke-dasharray: 5.12,1.28,0.8,1.28; stroke-dashoffset: 0; stroke: #b0b0b0; stroke-width: 0.8"/>
     </g>
     <g id="line2d_16">
      <g>
       <use xlink:href="#m117398ac80" x="108" y="279.368645" style="fill: #a9a9a9; stroke: #a9a9a9; stroke-width: 0.8"/>
      </g>
     </g>
     <g id="text_8">
      <!-- 250 -->
      <g style="fill: #a9a9a9" transform="translate(81.9125 283.167864)scale(0.1 -0.1)">
       <use xlink:href="#DejaVuSans-32"/>
       <use xlink:href="#DejaVuSans-35" x="63.623047"/>
       <use xlink:href="#DejaVuSans-30" x="127.246094"/>
      </g>
     </g>
    </g>
    <g id="ytick_3">
     <g id="line2d_17">
      <path d="M 108 250.823108 
L 777.6 250.823108 
" clip-path="url(#p89b415b486)" style="fill: none; stroke-dasharray: 5.12,1.28,0.8,1.28; stroke-dashoffset: 0; stroke: #b0b0b0; stroke-width: 0.8"/>
     </g>
     <g id="line2d_18">
      <g>
       <use xlink:href="#m117398ac80" x="108" y="250.823108" style="fill: #a9a9a9; stroke: #a9a9a9; stroke-width: 0.8"/>
      </g>
     </g>
     <g id="text_9">
      <!-- 500 -->
      <g style="fill: #a9a9a9" transform="translate(81.9125 254.622327)scale(0.1 -0.1)">
       <use xlink:href="#DejaVuSans-35"/>
       <use xlink:href="#DejaVuSans-30" x="63.623047"/>
       <use xlink:href="#DejaVuSans-30" x="127.246094"/>
      </g>
     </g>
    </g>
    <g id="ytick_4">
     <g id="line2d_19">
      <path d="M 108 222.277571 
L 777.6 222.277571 
" clip-path="url(#p89b415b486)" style="fill: none; stroke-dasharray: 5.12,1.28,0.8,1.28; stroke-dashoffset: 0; stroke: #b0b0b0; stroke-width: 0.8"/>
     </g>
     <g id="line2d_20">
      <g>
       <use xlink:href="#m117398ac80" x="108" y="222.277571" style="fill: #a9a9a9; stroke: #a9a9a9; stroke-width: 0.8"/>
      </g>
     </g>
     <g id="text_10">
      <!-- 750 -->
      <g style="fill: #a9a9a9" transform="translate(81.9125 226.07679)scale(0.1 -0.1)">
       <use xlink:href="#DejaVuSans-37"/>
       <use xlink:href="#DejaVuSans-35" x="63.623047"/>
       <use xlink:href="#DejaVuSans-30" x="127.246094"/>
      </g>
     </g>
    </g>
    <g id="ytick_5">
     <g id="line2d_21">
      <path d="M 108 193.732034 
L 777.6 193.732034 
" clip-path="url(#p89b415b486)" style="fill: none; stroke-dasharray: 5.12,1.28,0.8,1.28; stroke-dashoffset: 0; stroke: #b0b0b0; stroke-width: 0.8"/>
     </g>
     <g id="line2d_22">
      <g>
       <use xlink:href="#m117398ac80" x="108" y="193.732034" style="fill: #a9a9a9; stroke: #a9a9a9; stroke-width: 0.8"/>
      </g>
     </g>
     <g id="text_11">
      <!-- 1000 -->
      <g style="fill: #a9a9a9" transform="translate(75.55 197.531253)scale(0.1 -0.1)">
       <use xlink:href="#DejaVuSans-31"/>
       <use xlink:href="#DejaVuSans-30" x="63.623047"/>
       <use xlink:href="#DejaVuSans-30" x="127.246094"/>
       <use xlink:href="#DejaVuSans-30" x="190.869141"/>
      </g>
     </g>
    </g>
    <g id="ytick_6">
     <g id="line2d_23">
      <path d="M 108 165.186498 
L 777.6 165.186498 
" clip-path="url(#p89b415b486)" style="fill: none; stroke-dasharray: 5.12,1.28,0.8,1.28; stroke-dashoffset: 0; stroke: #b0b0b0; stroke-width: 0.8"/>
     </g>
     <g id="line2d_24">
      <g>
       <use xlink:href="#m117398ac80" x="108" y="165.186498" style="fill: #a9a9a9; stroke: #a9a9a9; stroke-width: 0.8"/>
      </g>
     </g>
     <g id="text_12">
      <!-- 1250 -->
      <g style="fill: #a9a9a9" transform="translate(75.55 168.985716)scale(0.1 -0.1)">
       <use xlink:href="#DejaVuSans-31"/>
       <use xlink:href="#DejaVuSans-32" x="63.623047"/>
       <use xlink:href="#DejaVuSans-35" x="127.246094"/>
       <use xlink:href="#DejaVuSans-30" x="190.869141"/>
      </g>
     </g>
    </g>
    <g id="ytick_7">
     <g id="line2d_25">
      <path d="M 108 136.640961 
L 777.6 136.640961 
" clip-path="url(#p89b415b486)" style="fill: none; stroke-dasharray: 5.12,1.28,0.8,1.28; stroke-dashoffset: 0; stroke: #b0b0b0; stroke-width: 0.8"/>
     </g>
     <g id="line2d_26">
      <g>
       <use xlink:href="#m117398ac80" x="108" y="136.640961" style="fill: #a9a9a9; stroke: #a9a9a9; stroke-width: 0.8"/>
      </g>
     </g>
     <g id="text_13">
      <!-- 1500 -->
      <g style="fill: #a9a9a9" transform="translate(75.55 140.440179)scale(0.1 -0.1)">
       <use xlink:href="#DejaVuSans-31"/>
       <use xlink:href="#DejaVuSans-35" x="63.623047"/>
       <use xlink:href="#DejaVuSans-30" x="127.246094"/>
       <use xlink:href="#DejaVuSans-30" x="190.869141"/>
      </g>
     </g>
    </g>
    <g id="ytick_8">
     <g id="line2d_27">
      <path d="M 108 108.095424 
L 777.6 108.095424 
" clip-path="url(#p89b415b486)" style="fill: none; stroke-dasharray: 5.12,1.28,0.8,1.28; stroke-dashoffset: 0; stroke: #b0b0b0; stroke-width: 0.8"/>
     </g>
     <g id="line2d_28">
      <g>
       <use xlink:href="#m117398ac80" x="108" y="108.095424" style="fill: #a9a9a9; stroke: #a9a9a9; stroke-width: 0.8"/>
      </g>
     </g>
     <g id="text_14">
      <!-- 1750 -->
      <g style="fill: #a9a9a9" transform="translate(75.55 111.894642)scale(0.1 -0.1)">
       <use xlink:href="#DejaVuSans-31"/>
       <use xlink:href="#DejaVuSans-37" x="63.623047"/>
       <use xlink:href="#DejaVuSans-35" x="127.246094"/>
       <use xlink:href="#DejaVuSans-30" x="190.869141"/>
      </g>
     </g>
    </g>
    <g id="ytick_9">
     <g id="line2d_29">
      <path d="M 108 79.549887 
L 777.6 79.549887 
" clip-path="url(#p89b415b486)" style="fill: none; stroke-dasharray: 5.12,1.28,0.8,1.28; stroke-dashoffset: 0; stroke: #b0b0b0; stroke-width: 0.8"/>
     </g>
     <g id="line2d_30">
      <g>
       <use xlink:href="#m117398ac80" x="108" y="79.549887" style="fill: #a9a9a9; stroke: #a9a9a9; stroke-width: 0.8"/>
      </g>
     </g>
     <g id="text_15">
      <!-- 2000 -->
      <g style="fill: #a9a9a9" transform="translate(75.55 83.349105)scale(0.1 -0.1)">
       <use xlink:href="#DejaVuSans-32"/>
       <use xlink:href="#DejaVuSans-30" x="63.623047"/>
       <use xlink:href="#DejaVuSans-30" x="127.246094"/>
       <use xlink:href="#DejaVuSans-30" x="190.869141"/>
      </g>
     </g>
    </g>
    <g id="ytick_10">
     <g id="line2d_31">
      <path d="M 108 51.00435 
L 777.6 51.00435 
" clip-path="url(#p89b415b486)" style="fill: none; stroke-dasharray: 5.12,1.28,0.8,1.28; stroke-dashoffset: 0; stroke: #b0b0b0; stroke-width: 0.8"/>
     </g>
     <g id="line2d_32">
      <g>
       <use xlink:href="#m117398ac80" x="108" y="51.00435" style="fill: #a9a9a9; stroke: #a9a9a9; stroke-width: 0.8"/>
      </g>
     </g>
     <g id="text_16">
      <!-- 2250 -->
      <g style="fill: #a9a9a9" transform="translate(75.55 54.803569)scale(0.1 -0.1)">
       <use xlink:href="#DejaVuSans-32"/>
       <use xlink:href="#DejaVuSans-32" x="63.623047"/>
       <use xlink:href="#DejaVuSans-35" x="127.246094"/>
       <use xlink:href="#DejaVuSans-30" x="190.869141"/>
      </g>
     </g>
    </g>
   </g>
   <g id="line2d_33">
    <path d="M 138.436364 307.457454 
L 142.006612 307.229089 
L 147.361983 306.543996 
L 149.147107 306.543996 
L 150.932231 305.858903 
L 154.502479 305.630539 
L 158.072727 304.945446 
L 159.857851 304.717082 
L 161.642975 304.260353 
L 163.428099 304.031989 
L 166.998347 303.232714 
L 168.783471 303.118532 
L 170.568595 302.890168 
L 172.353719 302.547621 
L 177.709091 302.205075 
L 179.494215 301.291618 
L 181.279339 300.834889 
L 183.064463 298.77961 
L 184.849587 297.637789 
L 186.634711 293.641414 
L 188.419835 293.413049 
L 190.204959 292.042864 
L 191.990083 291.357771 
L 193.775207 290.330131 
L 199.130579 286.105392 
L 200.915702 285.191935 
L 204.48595 283.707567 
L 206.271074 282.451563 
L 208.056198 281.76647 
L 211.626446 279.59701 
L 213.41157 278.911917 
L 215.196694 276.057363 
L 216.981818 274.687177 
L 218.766942 273.659538 
L 220.552066 272.860263 
L 225.907438 272.17517 
L 229.477686 271.490077 
L 231.26281 271.261713 
L 233.047934 270.919166 
L 236.618182 270.690802 
L 238.403306 270.234073 
L 240.18843 269.320616 
L 243.758678 269.092252 
L 245.543802 269.092252 
L 247.328926 268.749705 
L 250.899174 268.292977 
L 252.684298 268.178795 
L 254.469421 267.493702 
L 256.254545 267.151155 
L 259.824793 266.35188 
L 261.609917 266.123516 
L 263.395041 265.78097 
L 265.180165 265.666787 
L 266.965289 265.438423 
L 268.750413 264.981695 
L 270.535537 264.75333 
L 272.320661 264.639148 
L 274.105785 264.296602 
L 275.890909 263.383145 
L 277.676033 263.15478 
L 281.246281 261.898777 
L 283.031405 261.670412 
L 284.816529 261.55623 
L 286.601653 260.985319 
L 288.386777 260.642773 
L 290.171901 260.528591 
L 291.957025 260.071862 
L 293.742149 259.843498 
L 297.312397 258.701676 
L 299.097521 258.473312 
L 300.882645 258.473312 
L 302.667769 258.244948 
L 304.452893 258.130766 
L 306.238017 257.902401 
L 308.02314 257.331491 
L 309.808264 257.217309 
L 313.378512 256.189669 
L 315.163636 255.732941 
L 316.94876 255.504576 
L 320.519008 255.276212 
L 322.304132 254.933666 
L 324.089256 254.705301 
L 325.87438 254.248573 
L 327.659504 253.56348 
L 329.444628 251.279837 
L 331.229752 250.594744 
L 333.014876 249.681287 
L 334.8 249.452923 
L 336.585124 248.996194 
L 338.370248 248.76783 
L 341.940496 247.283462 
L 343.72562 247.16928 
L 352.65124 244.771454 
L 354.436364 244.771454 
L 358.006612 244.314726 
L 359.791736 243.629633 
L 363.361983 242.601994 
L 365.147107 242.031083 
L 366.932231 241.688536 
L 368.717355 241.574354 
L 372.287603 240.089986 
L 374.072727 239.861622 
L 375.857851 239.062347 
L 377.642975 238.833983 
L 381.213223 238.605618 
L 382.998347 238.263072 
L 384.783471 237.806343 
L 386.568595 237.692161 
L 388.353719 237.463797 
L 391.923967 236.778704 
L 393.709091 236.55034 
L 399.064463 235.294336 
L 400.849587 234.495061 
L 402.634711 233.92415 
L 404.419835 232.896511 
L 406.204959 232.439783 
L 407.990083 232.211418 
L 411.560331 231.069597 
L 415.130579 229.1285 
L 416.915702 227.872497 
L 418.700826 227.644132 
L 420.48595 227.073222 
L 422.271074 226.844857 
L 424.056198 226.388129 
L 425.841322 226.159764 
L 427.626446 225.360489 
L 431.196694 224.675396 
L 434.766942 222.962664 
L 436.552066 222.505936 
L 438.33719 222.277571 
L 440.122314 221.592478 
L 441.907438 221.249932 
L 445.477686 220.450657 
L 447.26281 220.222293 
L 450.833058 218.623743 
L 452.618182 218.281196 
L 454.403306 217.481921 
L 456.18843 217.253557 
L 457.973554 216.454282 
L 459.758678 215.997553 
L 461.543802 215.769189 
L 463.328926 215.655007 
L 466.899174 214.399003 
L 468.684298 214.170639 
L 470.469421 214.170639 
L 472.254545 213.371364 
L 474.039669 213.028817 
L 475.824793 212.800453 
L 477.609917 212.11536 
L 479.395041 212.11536 
L 481.180165 212.001178 
L 482.965289 211.772814 
L 484.750413 211.658632 
L 486.535537 211.430267 
L 488.320661 211.087721 
L 491.890909 209.374989 
L 495.461157 207.776439 
L 497.246281 207.31971 
L 499.031405 206.177889 
L 500.816529 205.606978 
L 504.386777 204.008428 
L 506.171901 203.665881 
L 507.957025 202.866606 
L 509.742149 202.295696 
L 511.527273 201.039692 
L 513.312397 200.126235 
L 515.097521 198.29932 
L 516.882645 195.330585 
L 518.667769 192.818577 
L 520.452893 192.247667 
L 522.238017 192.133484 
L 525.808264 189.507295 
L 527.593388 189.050566 
L 529.378512 188.022927 
L 531.163636 187.680381 
L 532.94876 186.081831 
L 534.733884 185.625102 
L 540.089256 183.227277 
L 541.87438 181.171998 
L 543.659504 178.317444 
L 545.444628 177.289805 
L 547.229752 174.435251 
L 549.014876 172.722519 
L 550.8 171.809062 
L 552.585124 171.238151 
L 554.370248 169.982148 
L 557.940496 168.269415 
L 559.72562 167.013412 
L 561.510744 165.529044 
L 563.295868 164.27304 
L 565.080992 163.245401 
L 566.866116 160.619212 
L 568.65124 156.394472 
L 570.436364 153.768283 
L 572.221488 152.283915 
L 574.006612 151.370458 
L 577.57686 147.944993 
L 581.147107 145.09044 
L 584.717355 142.235886 
L 586.502479 140.637336 
L 588.287603 138.125329 
L 590.072727 136.412596 
L 591.857851 135.042411 
L 595.428099 132.644585 
L 600.783471 128.534028 
L 602.568595 128.0773 
L 607.923967 125.222746 
L 611.494215 123.281649 
L 613.279339 122.482374 
L 616.849587 119.399456 
L 618.634711 117.115813 
L 622.204959 114.717988 
L 623.990083 114.26126 
L 625.775207 113.347802 
L 627.560331 112.091799 
L 631.130579 110.264884 
L 632.915702 109.922338 
L 638.271074 106.611056 
L 640.056198 104.898324 
L 641.841322 103.64232 
L 643.626446 103.071409 
L 645.41157 101.815406 
L 647.196694 101.01613 
L 648.981818 99.760127 
L 650.766942 98.960852 
L 652.552066 97.81903 
L 654.33719 96.334662 
L 657.907438 95.078659 
L 659.692562 94.165202 
L 661.477686 93.708473 
L 663.26281 92.566652 
L 665.047934 92.109923 
L 679.328926 86.62918 
L 682.899174 85.944087 
L 684.684298 84.231355 
L 686.469421 82.861169 
L 688.254545 82.176076 
L 695.395041 78.065519 
L 698.965289 76.809515 
L 700.750413 75.439329 
L 702.535537 74.754237 
L 707.890909 71.442954 
L 709.676033 71.100408 
L 716.816529 69.273493 
L 722.171901 66.304758 
L 723.957025 66.076393 
L 725.742149 65.3913 
L 727.527273 65.048754 
L 729.312397 64.249479 
L 731.097521 63.107657 
L 732.882645 61.62329 
L 734.667769 60.481468 
L 736.452893 60.138922 
L 738.238017 59.225464 
L 740.02314 58.768736 
L 741.808264 58.083643 
L 743.593388 56.827639 
L 747.163636 55.8 
L 747.163636 55.8 
" clip-path="url(#p89b415b486)" style="fill: none; stroke: #1f77b4; stroke-width: 1.5; stroke-linecap: square"/>
   </g>
   <g id="line2d_34">
    <path d="M 140.221488 307.8 
L 143.791736 307.8 
L 147.361983 307.343271 
L 156.287603 307.343271 
L 159.857851 307.114907 
L 161.642975 307.114907 
L 163.428099 307.000725 
L 166.998347 307.000725 
L 170.568595 306.772361 
L 177.709091 306.772361 
L 179.494215 306.315632 
L 181.279339 306.315632 
L 183.064463 306.087268 
L 184.849587 306.087268 
L 186.634711 305.858903 
L 188.419835 305.744721 
L 193.775207 305.059628 
L 199.130579 304.717082 
L 200.915702 304.717082 
L 204.48595 304.488718 
L 206.271074 304.260353 
L 209.841322 304.260353 
L 211.626446 303.917807 
L 213.41157 303.917807 
L 215.196694 303.803625 
L 216.981818 303.803625 
L 220.552066 303.346896 
L 227.692562 303.346896 
L 229.477686 303.118532 
L 236.618182 303.118532 
L 240.18843 302.890168 
L 241.973554 302.890168 
L 243.758678 302.775986 
L 254.469421 302.775986 
L 256.254545 302.661803 
L 259.824793 302.661803 
L 261.609917 302.547621 
L 266.965289 302.547621 
L 268.750413 302.433439 
L 270.535537 302.433439 
L 272.320661 302.319257 
L 274.105785 302.319257 
L 275.890909 302.205075 
L 283.031405 302.205075 
L 284.816529 301.97671 
L 286.601653 301.97671 
L 288.386777 301.862528 
L 290.171901 301.862528 
L 293.742149 301.634164 
L 295.527273 301.634164 
L 297.312397 301.519982 
L 304.452893 301.519982 
L 306.238017 301.4058 
L 309.808264 301.4058 
L 311.593388 301.291618 
L 316.94876 301.291618 
L 318.733884 301.177435 
L 320.519008 301.177435 
L 322.304132 300.949071 
L 324.089256 300.834889 
L 325.87438 300.492343 
L 327.659504 300.492343 
L 329.444628 300.37816 
L 334.8 300.37816 
L 336.585124 300.263978 
L 338.370248 300.035614 
L 341.940496 300.035614 
L 343.72562 299.921432 
L 345.510744 299.921432 
L 347.295868 299.80725 
L 352.65124 299.80725 
L 356.221488 299.578885 
L 359.791736 299.578885 
L 361.57686 299.464703 
L 363.361983 299.236339 
L 365.147107 299.122157 
L 366.932231 298.893792 
L 368.717355 298.77961 
L 370.502479 298.77961 
L 372.287603 298.665428 
L 374.072727 298.665428 
L 375.857851 298.551246 
L 377.642975 298.551246 
L 379.428099 298.437064 
L 384.783471 298.437064 
L 386.568595 298.2087 
L 391.923967 298.2087 
L 393.709091 297.980335 
L 395.494215 297.866153 
L 397.279339 297.637789 
L 399.064463 297.637789 
L 400.849587 297.523607 
L 402.634711 297.523607 
L 404.419835 297.409425 
L 409.775207 297.409425 
L 411.560331 297.18106 
L 413.345455 296.838514 
L 418.700826 296.495967 
L 420.48595 296.153421 
L 422.271074 296.153421 
L 424.056198 296.039239 
L 427.626446 296.039239 
L 429.41157 295.925057 
L 431.196694 295.696692 
L 432.981818 295.58251 
L 434.766942 295.354146 
L 440.122314 295.011599 
L 441.907438 295.011599 
L 445.477686 294.783235 
L 449.047934 294.783235 
L 454.403306 294.440689 
L 457.973554 294.440689 
L 459.758678 294.212324 
L 463.328926 293.98396 
L 466.899174 293.98396 
L 468.684298 293.755596 
L 470.469421 293.755596 
L 474.039669 293.527232 
L 475.824793 293.298867 
L 479.395041 293.298867 
L 481.180165 293.184685 
L 482.965289 293.184685 
L 488.320661 292.842139 
L 493.676033 292.842139 
L 497.246281 292.613774 
L 504.386777 292.613774 
L 506.171901 292.499592 
L 507.957025 292.499592 
L 509.742149 292.271228 
L 511.527273 291.928681 
L 515.097521 291.700317 
L 516.882645 291.700317 
L 518.667769 291.471953 
L 520.452893 291.357771 
L 522.238017 291.357771 
L 525.808264 291.129406 
L 527.593388 291.129406 
L 529.378512 290.78686 
L 531.163636 290.672678 
L 532.94876 290.444314 
L 534.733884 289.987585 
L 538.304132 289.759221 
L 540.089256 289.302492 
L 541.87438 289.18831 
L 543.659504 288.959946 
L 545.444628 288.845763 
L 549.014876 288.046488 
L 550.8 287.932306 
L 552.585124 287.932306 
L 554.370248 287.818124 
L 556.155372 287.818124 
L 557.940496 287.58976 
L 559.72562 287.58976 
L 561.510744 287.361396 
L 565.080992 286.676303 
L 566.866116 286.219574 
L 570.436364 285.762845 
L 572.221488 285.762845 
L 575.791736 285.306117 
L 577.57686 285.306117 
L 582.932231 284.96357 
L 586.502479 284.506842 
L 590.072727 284.278478 
L 591.857851 284.278478 
L 593.642975 284.164295 
L 595.428099 283.935931 
L 597.213223 283.821749 
L 600.783471 283.821749 
L 602.568595 283.593385 
L 604.353719 283.250838 
L 606.138843 283.136656 
L 607.923967 282.908292 
L 609.709091 282.908292 
L 611.494215 282.565745 
L 613.279339 282.337381 
L 615.064463 281.994835 
L 618.634711 281.76647 
L 623.990083 281.76647 
L 625.775207 281.309742 
L 627.560331 281.081377 
L 629.345455 281.081377 
L 632.915702 280.853013 
L 634.700826 280.853013 
L 636.48595 280.510467 
L 638.271074 280.396285 
L 640.056198 280.396285 
L 643.626446 279.939556 
L 645.41157 279.59701 
L 647.196694 279.140281 
L 648.981818 278.911917 
L 650.766942 278.911917 
L 654.33719 278.683552 
L 656.122314 278.455188 
L 657.907438 278.455188 
L 661.477686 278.226824 
L 665.047934 278.226824 
L 668.618182 277.998459 
L 670.403306 277.998459 
L 673.973554 277.541731 
L 675.758678 277.427549 
L 677.543802 277.427549 
L 681.11405 277.199184 
L 682.899174 276.97082 
L 688.254545 276.628274 
L 693.609917 276.628274 
L 695.395041 276.399909 
L 697.180165 276.285727 
L 700.750413 276.285727 
L 702.535537 275.943181 
L 704.320661 275.828999 
L 706.105785 275.600634 
L 707.890909 275.486452 
L 709.676033 275.486452 
L 711.461157 275.258088 
L 715.031405 275.258088 
L 716.816529 275.143906 
L 718.601653 274.801359 
L 722.171901 274.801359 
L 723.957025 274.572995 
L 725.742149 274.572995 
L 729.312397 274.344631 
L 731.097521 274.344631 
L 732.882645 274.002084 
L 736.452893 274.002084 
L 738.238017 273.887902 
L 743.593388 273.887902 
L 745.378512 273.659538 
L 747.163636 273.545356 
L 747.163636 273.545356 
" clip-path="url(#p89b415b486)" style="fill: none; stroke: #ff7f0e; stroke-width: 1.5; stroke-linecap: square"/>
   </g>
   <g id="patch_3">
    <path d="M 108 320.4 
L 108 43.2 
" style="fill: none; stroke: #a9a9a9; stroke-width: 0.8; stroke-linejoin: miter; stroke-linecap: square"/>
   </g>
   <g id="patch_4">
    <path d="M 777.6 320.4 
L 777.6 43.2 
" style="fill: none"/>
   </g>
   <g id="patch_5">
    <path d="M 108 320.4 
L 777.6 320.4 
" style="fill: none; stroke: #a9a9a9; stroke-width: 0.8; stroke-linejoin: miter; stroke-linecap: square"/>
   </g>
   <g id="patch_6">
    <path d="M 108 43.2 
L 777.6 43.2 
" style="fill: none"/>
   </g>
   <g id="text_17">
    <!-- get_subscribe history -->
    <g style="fill: #a9a9a9" transform="translate(378.6075 37.2)scale(0.12 -0.12)">
     <defs>
      <path id="DejaVuSans-67" d="M 2906 1791 
Q 2906 2416 2648 2759 
Q 2391 3103 1925 3103 
Q 1463 3103 1205 2759 
Q 947 2416 947 1791 
Q 947 1169 1205 825 
Q 1463 481 1925 481 
Q 2391 481 2648 825 
Q 2906 1169 2906 1791 
z
M 3481 434 
Q 3481 -459 3084 -895 
Q 2688 -1331 1869 -1331 
Q 1566 -1331 1297 -1286 
Q 1028 -1241 775 -1147 
L 775 -588 
Q 1028 -725 1275 -790 
Q 1522 -856 1778 -856 
Q 2344 -856 2625 -561 
Q 2906 -266 2906 331 
L 2906 616 
Q 2728 306 2450 153 
Q 2172 0 1784 0 
Q 1141 0 747 490 
Q 353 981 353 1791 
Q 353 2603 747 3093 
Q 1141 3584 1784 3584 
Q 2172 3584 2450 3431 
Q 2728 3278 2906 2969 
L 2906 3500 
L 3481 3500 
L 3481 434 
z
" transform="scale(0.015625)"/>
      <path id="DejaVuSans-65" d="M 3597 1894 
L 3597 1613 
L 953 1613 
Q 991 1019 1311 708 
Q 1631 397 2203 397 
Q 2534 397 2845 478 
Q 3156 559 3463 722 
L 3463 178 
Q 3153 47 2828 -22 
Q 2503 -91 2169 -91 
Q 1331 -91 842 396 
Q 353 884 353 1716 
Q 353 2575 817 3079 
Q 1281 3584 2069 3584 
Q 2775 3584 3186 3129 
Q 3597 2675 3597 1894 
z
M 3022 2063 
Q 3016 2534 2758 2815 
Q 2500 3097 2075 3097 
Q 1594 3097 1305 2825 
Q 1016 2553 972 2059 
L 3022 2063 
z
" transform="scale(0.015625)"/>
      <path id="DejaVuSans-74" d="M 1172 4494 
L 1172 3500 
L 2356 3500 
L 2356 3053 
L 1172 3053 
L 1172 1153 
Q 1172 725 1289 603 
Q 1406 481 1766 481 
L 2356 481 
L 2356 0 
L 1766 0 
Q 1100 0 847 248 
Q 594 497 594 1153 
L 594 3053 
L 172 3053 
L 172 3500 
L 594 3500 
L 594 4494 
L 1172 4494 
z
" transform="scale(0.015625)"/>
      <path id="DejaVuSans-5f" d="M 3263 -1063 
L 3263 -1509 
L -63 -1509 
L -63 -1063 
L 3263 -1063 
z
" transform="scale(0.015625)"/>
      <path id="DejaVuSans-73" d="M 2834 3397 
L 2834 2853 
Q 2591 2978 2328 3040 
Q 2066 3103 1784 3103 
Q 1356 3103 1142 2972 
Q 928 2841 928 2578 
Q 928 2378 1081 2264 
Q 1234 2150 1697 2047 
L 1894 2003 
Q 2506 1872 2764 1633 
Q 3022 1394 3022 966 
Q 3022 478 2636 193 
Q 2250 -91 1575 -91 
Q 1294 -91 989 -36 
Q 684 19 347 128 
L 347 722 
Q 666 556 975 473 
Q 1284 391 1588 391 
Q 1994 391 2212 530 
Q 2431 669 2431 922 
Q 2431 1156 2273 1281 
Q 2116 1406 1581 1522 
L 1381 1569 
Q 847 1681 609 1914 
Q 372 2147 372 2553 
Q 372 3047 722 3315 
Q 1072 3584 1716 3584 
Q 2034 3584 2315 3537 
Q 2597 3491 2834 3397 
z
" transform="scale(0.015625)"/>
      <path id="DejaVuSans-75" d="M 544 1381 
L 544 3500 
L 1119 3500 
L 1119 1403 
Q 1119 906 1312 657 
Q 1506 409 1894 409 
Q 2359 409 2629 706 
Q 2900 1003 2900 1516 
L 2900 3500 
L 3475 3500 
L 3475 0 
L 2900 0 
L 2900 538 
Q 2691 219 2414 64 
Q 2138 -91 1772 -91 
Q 1169 -91 856 284 
Q 544 659 544 1381 
z
M 1991 3584 
L 1991 3584 
z
" transform="scale(0.015625)"/>
      <path id="DejaVuSans-62" d="M 3116 1747 
Q 3116 2381 2855 2742 
Q 2594 3103 2138 3103 
Q 1681 3103 1420 2742 
Q 1159 2381 1159 1747 
Q 1159 1113 1420 752 
Q 1681 391 2138 391 
Q 2594 391 2855 752 
Q 3116 1113 3116 1747 
z
M 1159 2969 
Q 1341 3281 1617 3432 
Q 1894 3584 2278 3584 
Q 2916 3584 3314 3078 
Q 3713 2572 3713 1747 
Q 3713 922 3314 415 
Q 2916 -91 2278 -91 
Q 1894 -91 1617 61 
Q 1341 213 1159 525 
L 1159 0 
L 581 0 
L 581 4863 
L 1159 4863 
L 1159 2969 
z
" transform="scale(0.015625)"/>
      <path id="DejaVuSans-63" d="M 3122 3366 
L 3122 2828 
Q 2878 2963 2633 3030 
Q 2388 3097 2138 3097 
Q 1578 3097 1268 2742 
Q 959 2388 959 1747 
Q 959 1106 1268 751 
Q 1578 397 2138 397 
Q 2388 397 2633 464 
Q 2878 531 3122 666 
L 3122 134 
Q 2881 22 2623 -34 
Q 2366 -91 2075 -91 
Q 1284 -91 818 406 
Q 353 903 353 1747 
Q 353 2603 823 3093 
Q 1294 3584 2113 3584 
Q 2378 3584 2631 3529 
Q 2884 3475 3122 3366 
z
" transform="scale(0.015625)"/>
      <path id="DejaVuSans-72" d="M 2631 2963 
Q 2534 3019 2420 3045 
Q 2306 3072 2169 3072 
Q 1681 3072 1420 2755 
Q 1159 2438 1159 1844 
L 1159 0 
L 581 0 
L 581 3500 
L 1159 3500 
L 1159 2956 
Q 1341 3275 1631 3429 
Q 1922 3584 2338 3584 
Q 2397 3584 2469 3576 
Q 2541 3569 2628 3553 
L 2631 2963 
z
" transform="scale(0.015625)"/>
      <path id="DejaVuSans-69" d="M 603 3500 
L 1178 3500 
L 1178 0 
L 603 0 
L 603 3500 
z
M 603 4863 
L 1178 4863 
L 1178 4134 
L 603 4134 
L 603 4863 
z
" transform="scale(0.015625)"/>
      <path id="DejaVuSans-20" transform="scale(0.015625)"/>
      <path id="DejaVuSans-68" d="M 3513 2113 
L 3513 0 
L 2938 0 
L 2938 2094 
Q 2938 2591 2744 2837 
Q 2550 3084 2163 3084 
Q 1697 3084 1428 2787 
Q 1159 2491 1159 1978 
L 1159 0 
L 581 0 
L 581 4863 
L 1159 4863 
L 1159 2956 
Q 1366 3272 1645 3428 
Q 1925 3584 2291 3584 
Q 2894 3584 3203 3211 
Q 3513 2838 3513 2113 
z
" transform="scale(0.015625)"/>
      <path id="DejaVuSans-6f" d="M 1959 3097 
Q 1497 3097 1228 2736 
Q 959 2375 959 1747 
Q 959 1119 1226 758 
Q 1494 397 1959 397 
Q 2419 397 2687 759 
Q 2956 1122 2956 1747 
Q 2956 2369 2687 2733 
Q 2419 3097 1959 3097 
z
M 1959 3584 
Q 2709 3584 3137 3096 
Q 3566 2609 3566 1747 
Q 3566 888 3137 398 
Q 2709 -91 1959 -91 
Q 1206 -91 779 398 
Q 353 888 353 1747 
Q 353 2609 779 3096 
Q 1206 3584 1959 3584 
z
" transform="scale(0.015625)"/>
      <path id="DejaVuSans-79" d="M 2059 -325 
Q 1816 -950 1584 -1140 
Q 1353 -1331 966 -1331 
L 506 -1331 
L 506 -850 
L 844 -850 
Q 1081 -850 1212 -737 
Q 1344 -625 1503 -206 
L 1606 56 
L 191 3500 
L 800 3500 
L 1894 763 
L 2988 3500 
L 3597 3500 
L 2059 -325 
z
" transform="scale(0.015625)"/>
     </defs>
     <use xlink:href="#DejaVuSans-67"/>
     <use xlink:href="#DejaVuSans-65" x="63.476562"/>
     <use xlink:href="#DejaVuSans-74" x="125"/>
     <use xlink:href="#DejaVuSans-5f" x="164.208984"/>
     <use xlink:href="#DejaVuSans-73" x="214.208984"/>
     <use xlink:href="#DejaVuSans-75" x="266.308594"/>
     <use xlink:href="#DejaVuSans-62" x="329.6875"/>
     <use xlink:href="#DejaVuSans-73" x="393.164062"/>
     <use xlink:href="#DejaVuSans-63" x="445.263672"/>
     <use xlink:href="#DejaVuSans-72" x="500.244141"/>
     <use xlink:href="#DejaVuSans-69" x="541.357422"/>
     <use xlink:href="#DejaVuSans-62" x="569.140625"/>
     <use xlink:href="#DejaVuSans-65" x="632.617188"/>
     <use xlink:href="#DejaVuSans-20" x="694.140625"/>
     <use xlink:href="#DejaVuSans-68" x="725.927734"/>
     <use xlink:href="#DejaVuSans-69" x="789.306641"/>
     <use xlink:href="#DejaVuSans-73" x="817.089844"/>
     <use xlink:href="#DejaVuSans-74" x="869.189453"/>
     <use xlink:href="#DejaVuSans-6f" x="908.398438"/>
     <use xlink:href="#DejaVuSans-72" x="969.580078"/>
     <use xlink:href="#DejaVuSans-79" x="1010.693359"/>
    </g>
   </g>
   <g id="legend_1">
    <g id="line2d_35">
     <path d="M 815.08 328.498438 
L 825.08 328.498438 
L 835.08 328.498438 
" style="fill: none; stroke: #1f77b4; stroke-width: 1.5; stroke-linecap: square"/>
    </g>
    <g id="text_18">
     <!-- star -->
     <g style="fill: #a9a9a9" transform="translate(843.08 331.998438)scale(0.1 -0.1)">
      <defs>
       <path id="DejaVuSans-61" d="M 2194 1759 
Q 1497 1759 1228 1600 
Q 959 1441 959 1056 
Q 959 750 1161 570 
Q 1363 391 1709 391 
Q 2188 391 2477 730 
Q 2766 1069 2766 1631 
L 2766 1759 
L 2194 1759 
z
M 3341 1997 
L 3341 0 
L 2766 0 
L 2766 531 
Q 2569 213 2275 61 
Q 1981 -91 1556 -91 
Q 1019 -91 701 211 
Q 384 513 384 1019 
Q 384 1609 779 1909 
Q 1175 2209 1959 2209 
L 2766 2209 
L 2766 2266 
Q 2766 2663 2505 2880 
Q 2244 3097 1772 3097 
Q 1472 3097 1187 3025 
Q 903 2953 641 2809 
L 641 3341 
Q 956 3463 1253 3523 
Q 1550 3584 1831 3584 
Q 2591 3584 2966 3190 
Q 3341 2797 3341 1997 
z
" transform="scale(0.015625)"/>
      </defs>
      <use xlink:href="#DejaVuSans-73"/>
      <use xlink:href="#DejaVuSans-74" x="52.099609"/>
      <use xlink:href="#DejaVuSans-61" x="91.308594"/>
      <use xlink:href="#DejaVuSans-72" x="152.587891"/>
     </g>
    </g>
    <g id="line2d_36">
     <path d="M 815.08 343.176562 
L 825.08 343.176562 
L 835.08 343.176562 
" style="fill: none; stroke: #ff7f0e; stroke-width: 1.5; stroke-linecap: square"/>
    </g>
    <g id="text_19">
     <!-- fork -->
     <g style="fill: #a9a9a9" transform="translate(843.08 346.676562)scale(0.1 -0.1)">
      <defs>
       <path id="DejaVuSans-66" d="M 2375 4863 
L 2375 4384 
L 1825 4384 
Q 1516 4384 1395 4259 
Q 1275 4134 1275 3809 
L 1275 3500 
L 2222 3500 
L 2222 3053 
L 1275 3053 
L 1275 0 
L 697 0 
L 697 3053 
L 147 3053 
L 147 3500 
L 697 3500 
L 697 3744 
Q 697 4328 969 4595 
Q 1241 4863 1831 4863 
L 2375 4863 
z
" transform="scale(0.015625)"/>
       <path id="DejaVuSans-6b" d="M 581 4863 
L 1159 4863 
L 1159 1991 
L 2875 3500 
L 3609 3500 
L 1753 1863 
L 3688 0 
L 2938 0 
L 1159 1709 
L 1159 0 
L 581 0 
L 581 4863 
z
" transform="scale(0.015625)"/>
      </defs>
      <use xlink:href="#DejaVuSans-66"/>
      <use xlink:href="#DejaVuSans-6f" x="35.205078"/>
      <use xlink:href="#DejaVuSans-72" x="96.386719"/>
      <use xlink:href="#DejaVuSans-6b" x="137.5"/>
     </g>
    </g>
   </g>
  </g>
 </g>
 <defs>
  <clipPath id="p89b415b486">
   <rect x="108" y="43.2" width="669.6" height="277.2"/>
  </clipPath>
 </defs>
</svg>
