<?xml version="1.0" encoding="utf-8" standalone="no"?>
<!DOCTYPE svg PUBLIC "-//W3C//DTD SVG 1.1//EN"
  "http://www.w3.org/Graphics/SVG/1.1/DTD/svg11.dtd">
<svg xmlns:xlink="http://www.w3.org/1999/xlink" width="864pt" height="360pt" viewBox="0 0 864 360" xmlns="http://www.w3.org/2000/svg" version="1.1">
 <metadata>
  <rdf:RDF xmlns:dc="http://purl.org/dc/elements/1.1/" xmlns:cc="http://creativecommons.org/ns#" xmlns:rdf="http://www.w3.org/1999/02/22-rdf-syntax-ns#">
   <cc:Work>
    <dc:type rdf:resource="http://purl.org/dc/dcmitype/StillImage"/>
    <dc:date>2022-06-29T09:06:09.913630</dc:date>
    <dc:format>image/svg+xml</dc:format>
    <dc:creator>
     <cc:Agent>
      <dc:title>Matplotlib v3.5.2, https://matplotlib.org/</dc:title>
     </cc:Agent>
    </dc:creator>
   </cc:Work>
  </rdf:RDF>
 </metadata>
 <defs>
  <style type="text/css">*{stroke-linejoin: round; stroke-linecap: butt}</style>
 </defs>
 <g id="figure_1">
  <g id="patch_1">
   <path d="M 0 360 
L 864 360 
L 864 0 
L 0 0 
L 0 360 
z
" style="fill: none; opacity: 0"/>
  </g>
  <g id="axes_1">
   <g id="patch_2">
    <path d="M 108 320.4 
L 777.6 320.4 
L 777.6 43.2 
L 108 43.2 
L 108 320.4 
z
" style="fill: none; opacity: 0"/>
   </g>
   <g id="matplotlib.axis_1">
    <g id="xtick_1">
     <g id="line2d_1">
      <path d="M 208.260963 320.4 
L 208.260963 43.2 
" clip-path="url(#p0f389c1989)" style="fill: none; stroke-dasharray: 5.12,1.28,0.8,1.28; stroke-dashoffset: 0; stroke: #b0b0b0; stroke-width: 0.8"/>
     </g>
     <g id="line2d_2">
      <defs>
       <path id="m53cea995bd" d="M 0 0 
L 0 3.5 
" style="stroke: #a9a9a9; stroke-width: 0.8"/>
      </defs>
      <g>
       <use xlink:href="#m53cea995bd" x="208.260963" y="320.4" style="fill: #a9a9a9; stroke: #a9a9a9; stroke-width: 0.8"/>
      </g>
     </g>
     <g id="text_1">
      <!-- 2021-09 -->
      <g style="fill: #a9a9a9" transform="translate(187.369556 334.998438)scale(0.1 -0.1)">
       <defs>
        <path id="DejaVuSans-32" d="M 1228 531 
L 3431 531 
L 3431 0 
L 469 0 
L 469 531 
Q 828 903 1448 1529 
Q 2069 2156 2228 2338 
Q 2531 2678 2651 2914 
Q 2772 3150 2772 3378 
Q 2772 3750 2511 3984 
Q 2250 4219 1831 4219 
Q 1534 4219 1204 4116 
Q 875 4013 500 3803 
L 500 4441 
Q 881 4594 1212 4672 
Q 1544 4750 1819 4750 
Q 2544 4750 2975 4387 
Q 3406 4025 3406 3419 
Q 3406 3131 3298 2873 
Q 3191 2616 2906 2266 
Q 2828 2175 2409 1742 
Q 1991 1309 1228 531 
z
" transform="scale(0.015625)"/>
        <path id="DejaVuSans-30" d="M 2034 4250 
Q 1547 4250 1301 3770 
Q 1056 3291 1056 2328 
Q 1056 1369 1301 889 
Q 1547 409 2034 409 
Q 2525 409 2770 889 
Q 3016 1369 3016 2328 
Q 3016 3291 2770 3770 
Q 2525 4250 2034 4250 
z
M 2034 4750 
Q 2819 4750 3233 4129 
Q 3647 3509 3647 2328 
Q 3647 1150 3233 529 
Q 2819 -91 2034 -91 
Q 1250 -91 836 529 
Q 422 1150 422 2328 
Q 422 3509 836 4129 
Q 1250 4750 2034 4750 
z
" transform="scale(0.015625)"/>
        <path id="DejaVuSans-31" d="M 794 531 
L 1825 531 
L 1825 4091 
L 703 3866 
L 703 4441 
L 1819 4666 
L 2450 4666 
L 2450 531 
L 3481 531 
L 3481 0 
L 794 0 
L 794 531 
z
" transform="scale(0.015625)"/>
        <path id="DejaVuSans-2d" d="M 313 2009 
L 1997 2009 
L 1997 1497 
L 313 1497 
L 313 2009 
z
" transform="scale(0.015625)"/>
        <path id="DejaVuSans-39" d="M 703 97 
L 703 672 
Q 941 559 1184 500 
Q 1428 441 1663 441 
Q 2288 441 2617 861 
Q 2947 1281 2994 2138 
Q 2813 1869 2534 1725 
Q 2256 1581 1919 1581 
Q 1219 1581 811 2004 
Q 403 2428 403 3163 
Q 403 3881 828 4315 
Q 1253 4750 1959 4750 
Q 2769 4750 3195 4129 
Q 3622 3509 3622 2328 
Q 3622 1225 3098 567 
Q 2575 -91 1691 -91 
Q 1453 -91 1209 -44 
Q 966 3 703 97 
z
M 1959 2075 
Q 2384 2075 2632 2365 
Q 2881 2656 2881 3163 
Q 2881 3666 2632 3958 
Q 2384 4250 1959 4250 
Q 1534 4250 1286 3958 
Q 1038 3666 1038 3163 
Q 1038 2656 1286 2365 
Q 1534 2075 1959 2075 
z
" transform="scale(0.015625)"/>
       </defs>
       <use xlink:href="#DejaVuSans-32"/>
       <use xlink:href="#DejaVuSans-30" x="63.623047"/>
       <use xlink:href="#DejaVuSans-32" x="127.246094"/>
       <use xlink:href="#DejaVuSans-31" x="190.869141"/>
       <use xlink:href="#DejaVuSans-2d" x="254.492188"/>
       <use xlink:href="#DejaVuSans-30" x="290.576172"/>
       <use xlink:href="#DejaVuSans-39" x="354.199219"/>
      </g>
     </g>
    </g>
    <g id="xtick_2">
     <g id="line2d_3">
      <path d="M 317.473797 320.4 
L 317.473797 43.2 
" clip-path="url(#p0f389c1989)" style="fill: none; stroke-dasharray: 5.12,1.28,0.8,1.28; stroke-dashoffset: 0; stroke: #b0b0b0; stroke-width: 0.8"/>
     </g>
     <g id="line2d_4">
      <g>
       <use xlink:href="#m53cea995bd" x="317.473797" y="320.4" style="fill: #a9a9a9; stroke: #a9a9a9; stroke-width: 0.8"/>
      </g>
     </g>
     <g id="text_2">
      <!-- 2021-11 -->
      <g style="fill: #a9a9a9" transform="translate(296.582391 334.998438)scale(0.1 -0.1)">
       <use xlink:href="#DejaVuSans-32"/>
       <use xlink:href="#DejaVuSans-30" x="63.623047"/>
       <use xlink:href="#DejaVuSans-32" x="127.246094"/>
       <use xlink:href="#DejaVuSans-31" x="190.869141"/>
       <use xlink:href="#DejaVuSans-2d" x="254.492188"/>
       <use xlink:href="#DejaVuSans-31" x="290.576172"/>
       <use xlink:href="#DejaVuSans-31" x="354.199219"/>
      </g>
     </g>
    </g>
    <g id="xtick_3">
     <g id="line2d_5">
      <path d="M 426.686631 320.4 
L 426.686631 43.2 
" clip-path="url(#p0f389c1989)" style="fill: none; stroke-dasharray: 5.12,1.28,0.8,1.28; stroke-dashoffset: 0; stroke: #b0b0b0; stroke-width: 0.8"/>
     </g>
     <g id="line2d_6">
      <g>
       <use xlink:href="#m53cea995bd" x="426.686631" y="320.4" style="fill: #a9a9a9; stroke: #a9a9a9; stroke-width: 0.8"/>
      </g>
     </g>
     <g id="text_3">
      <!-- 2022-01 -->
      <g style="fill: #a9a9a9" transform="translate(405.795225 334.998438)scale(0.1 -0.1)">
       <use xlink:href="#DejaVuSans-32"/>
       <use xlink:href="#DejaVuSans-30" x="63.623047"/>
       <use xlink:href="#DejaVuSans-32" x="127.246094"/>
       <use xlink:href="#DejaVuSans-32" x="190.869141"/>
       <use xlink:href="#DejaVuSans-2d" x="254.492188"/>
       <use xlink:href="#DejaVuSans-30" x="290.576172"/>
       <use xlink:href="#DejaVuSans-31" x="354.199219"/>
      </g>
     </g>
    </g>
    <g id="xtick_4">
     <g id="line2d_7">
      <path d="M 532.318717 320.4 
L 532.318717 43.2 
" clip-path="url(#p0f389c1989)" style="fill: none; stroke-dasharray: 5.12,1.28,0.8,1.28; stroke-dashoffset: 0; stroke: #b0b0b0; stroke-width: 0.8"/>
     </g>
     <g id="line2d_8">
      <g>
       <use xlink:href="#m53cea995bd" x="532.318717" y="320.4" style="fill: #a9a9a9; stroke: #a9a9a9; stroke-width: 0.8"/>
      </g>
     </g>
     <g id="text_4">
      <!-- 2022-03 -->
      <g style="fill: #a9a9a9" transform="translate(511.42731 334.998438)scale(0.1 -0.1)">
       <defs>
        <path id="DejaVuSans-33" d="M 2597 2516 
Q 3050 2419 3304 2112 
Q 3559 1806 3559 1356 
Q 3559 666 3084 287 
Q 2609 -91 1734 -91 
Q 1441 -91 1130 -33 
Q 819 25 488 141 
L 488 750 
Q 750 597 1062 519 
Q 1375 441 1716 441 
Q 2309 441 2620 675 
Q 2931 909 2931 1356 
Q 2931 1769 2642 2001 
Q 2353 2234 1838 2234 
L 1294 2234 
L 1294 2753 
L 1863 2753 
Q 2328 2753 2575 2939 
Q 2822 3125 2822 3475 
Q 2822 3834 2567 4026 
Q 2313 4219 1838 4219 
Q 1578 4219 1281 4162 
Q 984 4106 628 3988 
L 628 4550 
Q 988 4650 1302 4700 
Q 1616 4750 1894 4750 
Q 2613 4750 3031 4423 
Q 3450 4097 3450 3541 
Q 3450 3153 3228 2886 
Q 3006 2619 2597 2516 
z
" transform="scale(0.015625)"/>
       </defs>
       <use xlink:href="#DejaVuSans-32"/>
       <use xlink:href="#DejaVuSans-30" x="63.623047"/>
       <use xlink:href="#DejaVuSans-32" x="127.246094"/>
       <use xlink:href="#DejaVuSans-32" x="190.869141"/>
       <use xlink:href="#DejaVuSans-2d" x="254.492188"/>
       <use xlink:href="#DejaVuSans-30" x="290.576172"/>
       <use xlink:href="#DejaVuSans-33" x="354.199219"/>
      </g>
     </g>
    </g>
    <g id="xtick_5">
     <g id="line2d_9">
      <path d="M 641.531551 320.4 
L 641.531551 43.2 
" clip-path="url(#p0f389c1989)" style="fill: none; stroke-dasharray: 5.12,1.28,0.8,1.28; stroke-dashoffset: 0; stroke: #b0b0b0; stroke-width: 0.8"/>
     </g>
     <g id="line2d_10">
      <g>
       <use xlink:href="#m53cea995bd" x="641.531551" y="320.4" style="fill: #a9a9a9; stroke: #a9a9a9; stroke-width: 0.8"/>
      </g>
     </g>
     <g id="text_5">
      <!-- 2022-05 -->
      <g style="fill: #a9a9a9" transform="translate(620.640145 334.998438)scale(0.1 -0.1)">
       <defs>
        <path id="DejaVuSans-35" d="M 691 4666 
L 3169 4666 
L 3169 4134 
L 1269 4134 
L 1269 2991 
Q 1406 3038 1543 3061 
Q 1681 3084 1819 3084 
Q 2600 3084 3056 2656 
Q 3513 2228 3513 1497 
Q 3513 744 3044 326 
Q 2575 -91 1722 -91 
Q 1428 -91 1123 -41 
Q 819 9 494 109 
L 494 744 
Q 775 591 1075 516 
Q 1375 441 1709 441 
Q 2250 441 2565 725 
Q 2881 1009 2881 1497 
Q 2881 1984 2565 2268 
Q 2250 2553 1709 2553 
Q 1456 2553 1204 2497 
Q 953 2441 691 2322 
L 691 4666 
z
" transform="scale(0.015625)"/>
       </defs>
       <use xlink:href="#DejaVuSans-32"/>
       <use xlink:href="#DejaVuSans-30" x="63.623047"/>
       <use xlink:href="#DejaVuSans-32" x="127.246094"/>
       <use xlink:href="#DejaVuSans-32" x="190.869141"/>
       <use xlink:href="#DejaVuSans-2d" x="254.492188"/>
       <use xlink:href="#DejaVuSans-30" x="290.576172"/>
       <use xlink:href="#DejaVuSans-35" x="354.199219"/>
      </g>
     </g>
    </g>
    <g id="xtick_6">
     <g id="line2d_11">
      <path d="M 750.744385 320.4 
L 750.744385 43.2 
" clip-path="url(#p0f389c1989)" style="fill: none; stroke-dasharray: 5.12,1.28,0.8,1.28; stroke-dashoffset: 0; stroke: #b0b0b0; stroke-width: 0.8"/>
     </g>
     <g id="line2d_12">
      <g>
       <use xlink:href="#m53cea995bd" x="750.744385" y="320.4" style="fill: #a9a9a9; stroke: #a9a9a9; stroke-width: 0.8"/>
      </g>
     </g>
     <g id="text_6">
      <!-- 2022-07 -->
      <g style="fill: #a9a9a9" transform="translate(729.852979 334.998438)scale(0.1 -0.1)">
       <defs>
        <path id="DejaVuSans-37" d="M 525 4666 
L 3525 4666 
L 3525 4397 
L 1831 0 
L 1172 0 
L 2766 4134 
L 525 4134 
L 525 4666 
z
" transform="scale(0.015625)"/>
       </defs>
       <use xlink:href="#DejaVuSans-32"/>
       <use xlink:href="#DejaVuSans-30" x="63.623047"/>
       <use xlink:href="#DejaVuSans-32" x="127.246094"/>
       <use xlink:href="#DejaVuSans-32" x="190.869141"/>
       <use xlink:href="#DejaVuSans-2d" x="254.492188"/>
       <use xlink:href="#DejaVuSans-30" x="290.576172"/>
       <use xlink:href="#DejaVuSans-37" x="354.199219"/>
      </g>
     </g>
    </g>
   </g>
   <g id="matplotlib.axis_2">
    <g id="ytick_1">
     <g id="line2d_13">
      <path d="M 108 307.914545 
L 777.6 307.914545 
" clip-path="url(#p0f389c1989)" style="fill: none; stroke-dasharray: 5.12,1.28,0.8,1.28; stroke-dashoffset: 0; stroke: #b0b0b0; stroke-width: 0.8"/>
     </g>
     <g id="line2d_14">
      <defs>
       <path id="m513ebc5c95" d="M 0 0 
L -3.5 0 
" style="stroke: #a9a9a9; stroke-width: 0.8"/>
      </defs>
      <g>
       <use xlink:href="#m513ebc5c95" x="108" y="307.914545" style="fill: #a9a9a9; stroke: #a9a9a9; stroke-width: 0.8"/>
      </g>
     </g>
     <g id="text_7">
      <!-- 0 -->
      <g style="fill: #a9a9a9" transform="translate(94.6375 311.713764)scale(0.1 -0.1)">
       <use xlink:href="#DejaVuSans-30"/>
      </g>
     </g>
    </g>
    <g id="ytick_2">
     <g id="line2d_15">
      <path d="M 108 279.278182 
L 777.6 279.278182 
" clip-path="url(#p0f389c1989)" style="fill: none; stroke-dasharray: 5.12,1.28,0.8,1.28; stroke-dashoffset: 0; stroke: #b0b0b0; stroke-width: 0.8"/>
     </g>
     <g id="line2d_16">
      <g>
       <use xlink:href="#m513ebc5c95" x="108" y="279.278182" style="fill: #a9a9a9; stroke: #a9a9a9; stroke-width: 0.8"/>
      </g>
     </g>
     <g id="text_8">
      <!-- 250 -->
      <g style="fill: #a9a9a9" transform="translate(81.9125 283.077401)scale(0.1 -0.1)">
       <use xlink:href="#DejaVuSans-32"/>
       <use xlink:href="#DejaVuSans-35" x="63.623047"/>
       <use xlink:href="#DejaVuSans-30" x="127.246094"/>
      </g>
     </g>
    </g>
    <g id="ytick_3">
     <g id="line2d_17">
      <path d="M 108 250.641818 
L 777.6 250.641818 
" clip-path="url(#p0f389c1989)" style="fill: none; stroke-dasharray: 5.12,1.28,0.8,1.28; stroke-dashoffset: 0; stroke: #b0b0b0; stroke-width: 0.8"/>
     </g>
     <g id="line2d_18">
      <g>
       <use xlink:href="#m513ebc5c95" x="108" y="250.641818" style="fill: #a9a9a9; stroke: #a9a9a9; stroke-width: 0.8"/>
      </g>
     </g>
     <g id="text_9">
      <!-- 500 -->
      <g style="fill: #a9a9a9" transform="translate(81.9125 254.441037)scale(0.1 -0.1)">
       <use xlink:href="#DejaVuSans-35"/>
       <use xlink:href="#DejaVuSans-30" x="63.623047"/>
       <use xlink:href="#DejaVuSans-30" x="127.246094"/>
      </g>
     </g>
    </g>
    <g id="ytick_4">
     <g id="line2d_19">
      <path d="M 108 222.005455 
L 777.6 222.005455 
" clip-path="url(#p0f389c1989)" style="fill: none; stroke-dasharray: 5.12,1.28,0.8,1.28; stroke-dashoffset: 0; stroke: #b0b0b0; stroke-width: 0.8"/>
     </g>
     <g id="line2d_20">
      <g>
       <use xlink:href="#m513ebc5c95" x="108" y="222.005455" style="fill: #a9a9a9; stroke: #a9a9a9; stroke-width: 0.8"/>
      </g>
     </g>
     <g id="text_10">
      <!-- 750 -->
      <g style="fill: #a9a9a9" transform="translate(81.9125 225.804673)scale(0.1 -0.1)">
       <use xlink:href="#DejaVuSans-37"/>
       <use xlink:href="#DejaVuSans-35" x="63.623047"/>
       <use xlink:href="#DejaVuSans-30" x="127.246094"/>
      </g>
     </g>
    </g>
    <g id="ytick_5">
     <g id="line2d_21">
      <path d="M 108 193.369091 
L 777.6 193.369091 
" clip-path="url(#p0f389c1989)" style="fill: none; stroke-dasharray: 5.12,1.28,0.8,1.28; stroke-dashoffset: 0; stroke: #b0b0b0; stroke-width: 0.8"/>
     </g>
     <g id="line2d_22">
      <g>
       <use xlink:href="#m513ebc5c95" x="108" y="193.369091" style="fill: #a9a9a9; stroke: #a9a9a9; stroke-width: 0.8"/>
      </g>
     </g>
     <g id="text_11">
      <!-- 1000 -->
      <g style="fill: #a9a9a9" transform="translate(75.55 197.16831)scale(0.1 -0.1)">
       <use xlink:href="#DejaVuSans-31"/>
       <use xlink:href="#DejaVuSans-30" x="63.623047"/>
       <use xlink:href="#DejaVuSans-30" x="127.246094"/>
       <use xlink:href="#DejaVuSans-30" x="190.869141"/>
      </g>
     </g>
    </g>
    <g id="ytick_6">
     <g id="line2d_23">
      <path d="M 108 164.732727 
L 777.6 164.732727 
" clip-path="url(#p0f389c1989)" style="fill: none; stroke-dasharray: 5.12,1.28,0.8,1.28; stroke-dashoffset: 0; stroke: #b0b0b0; stroke-width: 0.8"/>
     </g>
     <g id="line2d_24">
      <g>
       <use xlink:href="#m513ebc5c95" x="108" y="164.732727" style="fill: #a9a9a9; stroke: #a9a9a9; stroke-width: 0.8"/>
      </g>
     </g>
     <g id="text_12">
      <!-- 1250 -->
      <g style="fill: #a9a9a9" transform="translate(75.55 168.531946)scale(0.1 -0.1)">
       <use xlink:href="#DejaVuSans-31"/>
       <use xlink:href="#DejaVuSans-32" x="63.623047"/>
       <use xlink:href="#DejaVuSans-35" x="127.246094"/>
       <use xlink:href="#DejaVuSans-30" x="190.869141"/>
      </g>
     </g>
    </g>
    <g id="ytick_7">
     <g id="line2d_25">
      <path d="M 108 136.096364 
L 777.6 136.096364 
" clip-path="url(#p0f389c1989)" style="fill: none; stroke-dasharray: 5.12,1.28,0.8,1.28; stroke-dashoffset: 0; stroke: #b0b0b0; stroke-width: 0.8"/>
     </g>
     <g id="line2d_26">
      <g>
       <use xlink:href="#m513ebc5c95" x="108" y="136.096364" style="fill: #a9a9a9; stroke: #a9a9a9; stroke-width: 0.8"/>
      </g>
     </g>
     <g id="text_13">
      <!-- 1500 -->
      <g style="fill: #a9a9a9" transform="translate(75.55 139.895582)scale(0.1 -0.1)">
       <use xlink:href="#DejaVuSans-31"/>
       <use xlink:href="#DejaVuSans-35" x="63.623047"/>
       <use xlink:href="#DejaVuSans-30" x="127.246094"/>
       <use xlink:href="#DejaVuSans-30" x="190.869141"/>
      </g>
     </g>
    </g>
    <g id="ytick_8">
     <g id="line2d_27">
      <path d="M 108 107.46 
L 777.6 107.46 
" clip-path="url(#p0f389c1989)" style="fill: none; stroke-dasharray: 5.12,1.28,0.8,1.28; stroke-dashoffset: 0; stroke: #b0b0b0; stroke-width: 0.8"/>
     </g>
     <g id="line2d_28">
      <g>
       <use xlink:href="#m513ebc5c95" x="108" y="107.46" style="fill: #a9a9a9; stroke: #a9a9a9; stroke-width: 0.8"/>
      </g>
     </g>
     <g id="text_14">
      <!-- 1750 -->
      <g style="fill: #a9a9a9" transform="translate(75.55 111.259219)scale(0.1 -0.1)">
       <use xlink:href="#DejaVuSans-31"/>
       <use xlink:href="#DejaVuSans-37" x="63.623047"/>
       <use xlink:href="#DejaVuSans-35" x="127.246094"/>
       <use xlink:href="#DejaVuSans-30" x="190.869141"/>
      </g>
     </g>
    </g>
    <g id="ytick_9">
     <g id="line2d_29">
      <path d="M 108 78.823636 
L 777.6 78.823636 
" clip-path="url(#p0f389c1989)" style="fill: none; stroke-dasharray: 5.12,1.28,0.8,1.28; stroke-dashoffset: 0; stroke: #b0b0b0; stroke-width: 0.8"/>
     </g>
     <g id="line2d_30">
      <g>
       <use xlink:href="#m513ebc5c95" x="108" y="78.823636" style="fill: #a9a9a9; stroke: #a9a9a9; stroke-width: 0.8"/>
      </g>
     </g>
     <g id="text_15">
      <!-- 2000 -->
      <g style="fill: #a9a9a9" transform="translate(75.55 82.622855)scale(0.1 -0.1)">
       <use xlink:href="#DejaVuSans-32"/>
       <use xlink:href="#DejaVuSans-30" x="63.623047"/>
       <use xlink:href="#DejaVuSans-30" x="127.246094"/>
       <use xlink:href="#DejaVuSans-30" x="190.869141"/>
      </g>
     </g>
    </g>
    <g id="ytick_10">
     <g id="line2d_31">
      <path d="M 108 50.187273 
L 777.6 50.187273 
" clip-path="url(#p0f389c1989)" style="fill: none; stroke-dasharray: 5.12,1.28,0.8,1.28; stroke-dashoffset: 0; stroke: #b0b0b0; stroke-width: 0.8"/>
     </g>
     <g id="line2d_32">
      <g>
       <use xlink:href="#m513ebc5c95" x="108" y="50.187273" style="fill: #a9a9a9; stroke: #a9a9a9; stroke-width: 0.8"/>
      </g>
     </g>
     <g id="text_16">
      <!-- 2250 -->
      <g style="fill: #a9a9a9" transform="translate(75.55 53.986491)scale(0.1 -0.1)">
       <use xlink:href="#DejaVuSans-32"/>
       <use xlink:href="#DejaVuSans-32" x="63.623047"/>
       <use xlink:href="#DejaVuSans-35" x="127.246094"/>
       <use xlink:href="#DejaVuSans-30" x="190.869141"/>
      </g>
     </g>
    </g>
   </g>
   <g id="line2d_33">
    <path d="M 138.436364 307.456364 
L 142.017112 307.227273 
L 147.388235 306.54 
L 149.17861 306.54 
L 150.968984 305.852727 
L 154.549733 305.623636 
L 158.130481 304.936364 
L 159.920856 304.707273 
L 161.71123 304.249091 
L 163.501604 304.02 
L 167.082353 303.218182 
L 168.872727 303.103636 
L 170.663102 302.874545 
L 172.453476 302.530909 
L 177.824599 302.187273 
L 179.614973 301.270909 
L 181.405348 300.812727 
L 183.195722 298.750909 
L 184.986096 297.605455 
L 186.776471 293.596364 
L 188.566845 293.367273 
L 190.357219 291.992727 
L 192.147594 291.305455 
L 193.937968 290.274545 
L 199.309091 286.036364 
L 201.099465 285.12 
L 204.680214 283.630909 
L 206.470588 282.370909 
L 208.260963 281.683636 
L 211.841711 279.507273 
L 213.632086 278.82 
L 215.42246 275.956364 
L 217.212834 274.581818 
L 219.003209 273.550909 
L 220.793583 272.749091 
L 226.164706 272.061818 
L 229.745455 271.374545 
L 231.535829 271.145455 
L 233.326203 270.801818 
L 236.906952 270.572727 
L 238.697326 270.114545 
L 240.487701 269.198182 
L 244.068449 268.969091 
L 245.858824 268.969091 
L 247.649198 268.625455 
L 251.229947 268.167273 
L 253.020321 268.052727 
L 254.810695 267.365455 
L 256.60107 267.021818 
L 260.181818 266.22 
L 261.972193 265.990909 
L 263.762567 265.647273 
L 265.552941 265.532727 
L 267.343316 265.303636 
L 269.13369 264.845455 
L 270.924064 264.616364 
L 272.714439 264.501818 
L 274.504813 264.158182 
L 276.295187 263.241818 
L 278.085561 263.012727 
L 281.66631 261.752727 
L 283.456684 261.523636 
L 285.247059 261.409091 
L 287.037433 260.836364 
L 288.827807 260.492727 
L 290.618182 260.378182 
L 292.408556 259.92 
L 294.19893 259.690909 
L 297.779679 258.545455 
L 299.570053 258.316364 
L 301.360428 258.316364 
L 303.150802 258.087273 
L 304.941176 257.972727 
L 306.731551 257.743636 
L 308.521925 257.170909 
L 310.312299 257.056364 
L 313.893048 256.025455 
L 315.683422 255.567273 
L 317.473797 255.338182 
L 321.054545 255.109091 
L 322.84492 254.765455 
L 324.635294 254.536364 
L 326.425668 254.078182 
L 328.216043 253.390909 
L 330.006417 251.1 
L 331.796791 250.412727 
L 333.587166 249.496364 
L 335.37754 249.267273 
L 337.167914 248.809091 
L 338.958289 248.58 
L 342.539037 247.090909 
L 344.329412 246.976364 
L 353.281283 244.570909 
L 355.071658 244.570909 
L 358.652406 244.112727 
L 360.442781 243.425455 
L 364.023529 242.394545 
L 365.813904 241.821818 
L 367.604278 241.478182 
L 369.394652 241.363636 
L 372.975401 239.874545 
L 374.765775 239.645455 
L 376.55615 238.843636 
L 378.346524 238.614545 
L 381.927273 238.385455 
L 383.717647 238.041818 
L 385.508021 237.583636 
L 387.298396 237.469091 
L 389.08877 237.24 
L 392.669519 236.552727 
L 394.459893 236.323636 
L 399.831016 235.063636 
L 401.62139 234.261818 
L 403.411765 233.689091 
L 405.202139 232.658182 
L 406.992513 232.2 
L 408.782888 231.970909 
L 412.363636 230.825455 
L 415.944385 228.878182 
L 417.734759 227.618182 
L 419.525134 227.389091 
L 421.315508 226.816364 
L 423.105882 226.587273 
L 424.896257 226.129091 
L 426.686631 225.9 
L 428.477005 225.098182 
L 432.057754 224.410909 
L 435.638503 222.692727 
L 437.428877 222.234545 
L 439.219251 222.005455 
L 441.009626 221.318182 
L 442.8 220.974545 
L 446.380749 220.172727 
L 448.171123 219.943636 
L 451.751872 218.34 
L 453.542246 217.996364 
L 455.33262 217.194545 
L 457.122995 216.965455 
L 458.913369 216.163636 
L 460.703743 215.705455 
L 462.494118 215.476364 
L 464.284492 215.361818 
L 467.865241 214.101818 
L 469.655615 213.872727 
L 471.445989 213.872727 
L 473.236364 213.070909 
L 475.026738 212.727273 
L 476.817112 212.498182 
L 478.607487 211.810909 
L 480.397861 211.810909 
L 482.188235 211.696364 
L 483.97861 211.467273 
L 485.768984 211.352727 
L 487.559358 211.123636 
L 489.349733 210.78 
L 492.930481 209.061818 
L 496.51123 207.458182 
L 498.301604 207 
L 500.091979 205.854545 
L 501.882353 205.281818 
L 505.463102 203.678182 
L 507.253476 203.334545 
L 509.04385 202.532727 
L 510.834225 201.96 
L 512.624599 200.7 
L 514.414973 199.783636 
L 516.205348 197.950909 
L 517.995722 194.972727 
L 519.786096 192.452727 
L 521.576471 191.88 
L 523.366845 191.765455 
L 526.947594 189.130909 
L 528.737968 188.672727 
L 530.528342 187.641818 
L 532.318717 187.298182 
L 534.109091 185.694545 
L 535.899465 185.236364 
L 541.270588 182.830909 
L 543.060963 180.769091 
L 544.851337 177.905455 
L 546.641711 176.874545 
L 548.432086 174.010909 
L 550.22246 172.292727 
L 552.012834 171.376364 
L 553.803209 170.803636 
L 555.593583 169.543636 
L 559.174332 167.825455 
L 560.964706 166.565455 
L 562.75508 165.076364 
L 564.545455 163.816364 
L 566.335829 162.785455 
L 568.126203 160.150909 
L 569.916578 155.912727 
L 571.706952 153.278182 
L 573.497326 151.789091 
L 575.287701 150.872727 
L 578.868449 147.436364 
L 582.449198 144.572727 
L 586.029947 141.709091 
L 587.820321 140.105455 
L 589.610695 137.585455 
L 591.40107 135.867273 
L 593.191444 134.492727 
L 596.772193 132.087273 
L 602.143316 127.963636 
L 603.93369 127.505455 
L 609.304813 124.641818 
L 612.885561 122.694545 
L 614.675936 121.892727 
L 618.256684 118.8 
L 620.047059 116.509091 
L 623.627807 114.103636 
L 625.418182 113.645455 
L 627.208556 112.729091 
L 628.99893 111.469091 
L 632.579679 109.636364 
L 634.370053 109.292727 
L 639.741176 105.970909 
L 641.531551 104.252727 
L 643.321925 102.992727 
L 645.112299 102.42 
L 646.902674 101.16 
L 648.693048 100.358182 
L 650.483422 99.098182 
L 652.273797 98.296364 
L 654.064171 97.150909 
L 655.854545 95.661818 
L 659.435294 94.401818 
L 661.225668 93.485455 
L 663.016043 93.027273 
L 664.806417 91.881818 
L 666.596791 91.423636 
L 680.919786 85.925455 
L 684.500535 85.238182 
L 686.290909 83.52 
L 688.081283 82.145455 
L 689.871658 81.458182 
L 697.033155 77.334545 
L 698.823529 76.532727 
L 700.613904 75.96 
L 702.404278 74.585455 
L 704.194652 73.898182 
L 709.565775 70.576364 
L 711.35615 70.232727 
L 718.517647 68.4 
L 723.88877 65.421818 
L 725.679144 65.192727 
L 727.469519 64.505455 
L 729.259893 64.161818 
L 731.050267 63.36 
L 732.840642 62.1 
L 734.631016 60.610909 
L 736.42139 59.465455 
L 738.211765 59.121818 
L 740.002139 58.205455 
L 741.792513 57.747273 
L 743.582888 57.06 
L 745.373262 55.8 
L 747.163636 55.8 
L 747.163636 55.8 
" clip-path="url(#p0f389c1989)" style="fill: none; stroke: #1f77b4; stroke-width: 1.5; stroke-linecap: square"/>
   </g>
   <g id="line2d_34">
    <path d="M 140.226738 307.8 
L 143.807487 307.8 
L 147.388235 307.341818 
L 156.340107 307.341818 
L 159.920856 307.112727 
L 161.71123 307.112727 
L 163.501604 306.998182 
L 167.082353 306.998182 
L 170.663102 306.769091 
L 177.824599 306.769091 
L 179.614973 306.310909 
L 181.405348 306.310909 
L 183.195722 306.081818 
L 184.986096 306.081818 
L 186.776471 305.852727 
L 188.566845 305.738182 
L 193.937968 305.050909 
L 199.309091 304.707273 
L 201.099465 304.707273 
L 204.680214 304.478182 
L 206.470588 304.249091 
L 210.051337 304.249091 
L 211.841711 303.905455 
L 213.632086 303.905455 
L 215.42246 303.790909 
L 217.212834 303.790909 
L 220.793583 303.332727 
L 227.95508 303.332727 
L 229.745455 303.103636 
L 236.906952 303.103636 
L 240.487701 302.874545 
L 242.278075 302.874545 
L 244.068449 302.76 
L 254.810695 302.76 
L 256.60107 302.645455 
L 260.181818 302.645455 
L 261.972193 302.530909 
L 267.343316 302.530909 
L 269.13369 302.416364 
L 270.924064 302.416364 
L 272.714439 302.301818 
L 274.504813 302.301818 
L 276.295187 302.187273 
L 283.456684 302.187273 
L 285.247059 301.958182 
L 287.037433 301.958182 
L 288.827807 301.843636 
L 290.618182 301.843636 
L 294.19893 301.614545 
L 295.989305 301.614545 
L 297.779679 301.5 
L 304.941176 301.5 
L 306.731551 301.385455 
L 310.312299 301.385455 
L 312.102674 301.270909 
L 317.473797 301.270909 
L 319.264171 301.156364 
L 321.054545 301.156364 
L 322.84492 300.927273 
L 324.635294 300.812727 
L 326.425668 300.469091 
L 328.216043 300.469091 
L 330.006417 300.354545 
L 335.37754 300.354545 
L 337.167914 300.24 
L 338.958289 300.010909 
L 342.539037 300.010909 
L 344.329412 299.896364 
L 346.119786 299.896364 
L 347.91016 299.781818 
L 353.281283 299.781818 
L 356.862032 299.552727 
L 360.442781 299.552727 
L 362.233155 299.438182 
L 364.023529 299.209091 
L 365.813904 299.094545 
L 367.604278 298.865455 
L 369.394652 298.750909 
L 371.185027 298.750909 
L 372.975401 298.636364 
L 374.765775 298.636364 
L 376.55615 298.521818 
L 378.346524 298.521818 
L 380.136898 298.407273 
L 385.508021 298.407273 
L 387.298396 298.178182 
L 392.669519 298.178182 
L 394.459893 297.949091 
L 396.250267 297.834545 
L 398.040642 297.605455 
L 399.831016 297.605455 
L 401.62139 297.490909 
L 403.411765 297.490909 
L 405.202139 297.376364 
L 410.573262 297.376364 
L 412.363636 297.147273 
L 414.154011 296.803636 
L 419.525134 296.46 
L 421.315508 296.116364 
L 423.105882 296.116364 
L 424.896257 296.001818 
L 428.477005 296.001818 
L 430.26738 295.887273 
L 432.057754 295.658182 
L 433.848128 295.543636 
L 435.638503 295.314545 
L 441.009626 294.970909 
L 442.8 294.970909 
L 446.380749 294.741818 
L 449.961497 294.741818 
L 455.33262 294.398182 
L 458.913369 294.398182 
L 460.703743 294.169091 
L 464.284492 293.94 
L 467.865241 293.94 
L 469.655615 293.710909 
L 471.445989 293.710909 
L 475.026738 293.481818 
L 476.817112 293.252727 
L 480.397861 293.252727 
L 482.188235 293.138182 
L 483.97861 293.138182 
L 489.349733 292.794545 
L 494.720856 292.794545 
L 498.301604 292.565455 
L 505.463102 292.565455 
L 507.253476 292.450909 
L 509.04385 292.450909 
L 510.834225 292.221818 
L 512.624599 291.878182 
L 516.205348 291.649091 
L 517.995722 291.649091 
L 519.786096 291.42 
L 521.576471 291.305455 
L 523.366845 291.305455 
L 526.947594 291.076364 
L 528.737968 291.076364 
L 530.528342 290.732727 
L 532.318717 290.618182 
L 534.109091 290.389091 
L 535.899465 289.930909 
L 539.480214 289.701818 
L 541.270588 289.243636 
L 543.060963 289.129091 
L 544.851337 288.9 
L 546.641711 288.785455 
L 550.22246 287.983636 
L 552.012834 287.869091 
L 553.803209 287.869091 
L 555.593583 287.754545 
L 557.383957 287.754545 
L 559.174332 287.525455 
L 560.964706 287.525455 
L 562.75508 287.296364 
L 566.335829 286.609091 
L 568.126203 286.150909 
L 571.706952 285.692727 
L 573.497326 285.692727 
L 577.078075 285.234545 
L 578.868449 285.234545 
L 584.239572 284.890909 
L 587.820321 284.432727 
L 591.40107 284.203636 
L 593.191444 284.203636 
L 594.981818 284.089091 
L 596.772193 283.86 
L 598.562567 283.745455 
L 602.143316 283.745455 
L 603.93369 283.516364 
L 605.724064 283.172727 
L 607.514439 283.058182 
L 609.304813 282.829091 
L 611.095187 282.829091 
L 612.885561 282.485455 
L 614.675936 282.256364 
L 616.46631 281.912727 
L 620.047059 281.683636 
L 625.418182 281.683636 
L 627.208556 281.225455 
L 628.99893 280.996364 
L 630.789305 280.996364 
L 634.370053 280.767273 
L 636.160428 280.767273 
L 637.950802 280.423636 
L 639.741176 280.309091 
L 641.531551 280.309091 
L 645.112299 279.850909 
L 646.902674 279.507273 
L 648.693048 279.049091 
L 650.483422 278.82 
L 652.273797 278.82 
L 655.854545 278.590909 
L 657.64492 278.361818 
L 659.435294 278.361818 
L 663.016043 278.132727 
L 666.596791 278.132727 
L 670.17754 277.903636 
L 671.967914 277.903636 
L 675.548663 277.445455 
L 677.339037 277.330909 
L 679.129412 277.330909 
L 682.71016 277.101818 
L 684.500535 276.872727 
L 689.871658 276.529091 
L 695.242781 276.529091 
L 697.033155 276.3 
L 698.823529 276.185455 
L 702.404278 276.185455 
L 704.194652 275.841818 
L 705.985027 275.727273 
L 707.775401 275.498182 
L 709.565775 275.383636 
L 711.35615 275.383636 
L 713.146524 275.154545 
L 716.727273 275.154545 
L 718.517647 275.04 
L 720.308021 274.696364 
L 723.88877 274.696364 
L 725.679144 274.467273 
L 727.469519 274.467273 
L 731.050267 274.238182 
L 732.840642 274.238182 
L 734.631016 273.894545 
L 738.211765 273.894545 
L 740.002139 273.78 
L 747.163636 273.78 
L 747.163636 273.78 
" clip-path="url(#p0f389c1989)" style="fill: none; stroke: #ff7f0e; stroke-width: 1.5; stroke-linecap: square"/>
   </g>
   <g id="patch_3">
    <path d="M 108 320.4 
L 108 43.2 
" style="fill: none; stroke: #a9a9a9; stroke-width: 0.8; stroke-linejoin: miter; stroke-linecap: square"/>
   </g>
   <g id="patch_4">
    <path d="M 777.6 320.4 
L 777.6 43.2 
" style="fill: none"/>
   </g>
   <g id="patch_5">
    <path d="M 108 320.4 
L 777.6 320.4 
" style="fill: none; stroke: #a9a9a9; stroke-width: 0.8; stroke-linejoin: miter; stroke-linecap: square"/>
   </g>
   <g id="patch_6">
    <path d="M 108 43.2 
L 777.6 43.2 
" style="fill: none"/>
   </g>
   <g id="text_17">
    <!-- get_subscribe history -->
    <g style="fill: #a9a9a9" transform="translate(378.6075 37.2)scale(0.12 -0.12)">
     <defs>
      <path id="DejaVuSans-67" d="M 2906 1791 
Q 2906 2416 2648 2759 
Q 2391 3103 1925 3103 
Q 1463 3103 1205 2759 
Q 947 2416 947 1791 
Q 947 1169 1205 825 
Q 1463 481 1925 481 
Q 2391 481 2648 825 
Q 2906 1169 2906 1791 
z
M 3481 434 
Q 3481 -459 3084 -895 
Q 2688 -1331 1869 -1331 
Q 1566 -1331 1297 -1286 
Q 1028 -1241 775 -1147 
L 775 -588 
Q 1028 -725 1275 -790 
Q 1522 -856 1778 -856 
Q 2344 -856 2625 -561 
Q 2906 -266 2906 331 
L 2906 616 
Q 2728 306 2450 153 
Q 2172 0 1784 0 
Q 1141 0 747 490 
Q 353 981 353 1791 
Q 353 2603 747 3093 
Q 1141 3584 1784 3584 
Q 2172 3584 2450 3431 
Q 2728 3278 2906 2969 
L 2906 3500 
L 3481 3500 
L 3481 434 
z
" transform="scale(0.015625)"/>
      <path id="DejaVuSans-65" d="M 3597 1894 
L 3597 1613 
L 953 1613 
Q 991 1019 1311 708 
Q 1631 397 2203 397 
Q 2534 397 2845 478 
Q 3156 559 3463 722 
L 3463 178 
Q 3153 47 2828 -22 
Q 2503 -91 2169 -91 
Q 1331 -91 842 396 
Q 353 884 353 1716 
Q 353 2575 817 3079 
Q 1281 3584 2069 3584 
Q 2775 3584 3186 3129 
Q 3597 2675 3597 1894 
z
M 3022 2063 
Q 3016 2534 2758 2815 
Q 2500 3097 2075 3097 
Q 1594 3097 1305 2825 
Q 1016 2553 972 2059 
L 3022 2063 
z
" transform="scale(0.015625)"/>
      <path id="DejaVuSans-74" d="M 1172 4494 
L 1172 3500 
L 2356 3500 
L 2356 3053 
L 1172 3053 
L 1172 1153 
Q 1172 725 1289 603 
Q 1406 481 1766 481 
L 2356 481 
L 2356 0 
L 1766 0 
Q 1100 0 847 248 
Q 594 497 594 1153 
L 594 3053 
L 172 3053 
L 172 3500 
L 594 3500 
L 594 4494 
L 1172 4494 
z
" transform="scale(0.015625)"/>
      <path id="DejaVuSans-5f" d="M 3263 -1063 
L 3263 -1509 
L -63 -1509 
L -63 -1063 
L 3263 -1063 
z
" transform="scale(0.015625)"/>
      <path id="DejaVuSans-73" d="M 2834 3397 
L 2834 2853 
Q 2591 2978 2328 3040 
Q 2066 3103 1784 3103 
Q 1356 3103 1142 2972 
Q 928 2841 928 2578 
Q 928 2378 1081 2264 
Q 1234 2150 1697 2047 
L 1894 2003 
Q 2506 1872 2764 1633 
Q 3022 1394 3022 966 
Q 3022 478 2636 193 
Q 2250 -91 1575 -91 
Q 1294 -91 989 -36 
Q 684 19 347 128 
L 347 722 
Q 666 556 975 473 
Q 1284 391 1588 391 
Q 1994 391 2212 530 
Q 2431 669 2431 922 
Q 2431 1156 2273 1281 
Q 2116 1406 1581 1522 
L 1381 1569 
Q 847 1681 609 1914 
Q 372 2147 372 2553 
Q 372 3047 722 3315 
Q 1072 3584 1716 3584 
Q 2034 3584 2315 3537 
Q 2597 3491 2834 3397 
z
" transform="scale(0.015625)"/>
      <path id="DejaVuSans-75" d="M 544 1381 
L 544 3500 
L 1119 3500 
L 1119 1403 
Q 1119 906 1312 657 
Q 1506 409 1894 409 
Q 2359 409 2629 706 
Q 2900 1003 2900 1516 
L 2900 3500 
L 3475 3500 
L 3475 0 
L 2900 0 
L 2900 538 
Q 2691 219 2414 64 
Q 2138 -91 1772 -91 
Q 1169 -91 856 284 
Q 544 659 544 1381 
z
M 1991 3584 
L 1991 3584 
z
" transform="scale(0.015625)"/>
      <path id="DejaVuSans-62" d="M 3116 1747 
Q 3116 2381 2855 2742 
Q 2594 3103 2138 3103 
Q 1681 3103 1420 2742 
Q 1159 2381 1159 1747 
Q 1159 1113 1420 752 
Q 1681 391 2138 391 
Q 2594 391 2855 752 
Q 3116 1113 3116 1747 
z
M 1159 2969 
Q 1341 3281 1617 3432 
Q 1894 3584 2278 3584 
Q 2916 3584 3314 3078 
Q 3713 2572 3713 1747 
Q 3713 922 3314 415 
Q 2916 -91 2278 -91 
Q 1894 -91 1617 61 
Q 1341 213 1159 525 
L 1159 0 
L 581 0 
L 581 4863 
L 1159 4863 
L 1159 2969 
z
" transform="scale(0.015625)"/>
      <path id="DejaVuSans-63" d="M 3122 3366 
L 3122 2828 
Q 2878 2963 2633 3030 
Q 2388 3097 2138 3097 
Q 1578 3097 1268 2742 
Q 959 2388 959 1747 
Q 959 1106 1268 751 
Q 1578 397 2138 397 
Q 2388 397 2633 464 
Q 2878 531 3122 666 
L 3122 134 
Q 2881 22 2623 -34 
Q 2366 -91 2075 -91 
Q 1284 -91 818 406 
Q 353 903 353 1747 
Q 353 2603 823 3093 
Q 1294 3584 2113 3584 
Q 2378 3584 2631 3529 
Q 2884 3475 3122 3366 
z
" transform="scale(0.015625)"/>
      <path id="DejaVuSans-72" d="M 2631 2963 
Q 2534 3019 2420 3045 
Q 2306 3072 2169 3072 
Q 1681 3072 1420 2755 
Q 1159 2438 1159 1844 
L 1159 0 
L 581 0 
L 581 3500 
L 1159 3500 
L 1159 2956 
Q 1341 3275 1631 3429 
Q 1922 3584 2338 3584 
Q 2397 3584 2469 3576 
Q 2541 3569 2628 3553 
L 2631 2963 
z
" transform="scale(0.015625)"/>
      <path id="DejaVuSans-69" d="M 603 3500 
L 1178 3500 
L 1178 0 
L 603 0 
L 603 3500 
z
M 603 4863 
L 1178 4863 
L 1178 4134 
L 603 4134 
L 603 4863 
z
" transform="scale(0.015625)"/>
      <path id="DejaVuSans-20" transform="scale(0.015625)"/>
      <path id="DejaVuSans-68" d="M 3513 2113 
L 3513 0 
L 2938 0 
L 2938 2094 
Q 2938 2591 2744 2837 
Q 2550 3084 2163 3084 
Q 1697 3084 1428 2787 
Q 1159 2491 1159 1978 
L 1159 0 
L 581 0 
L 581 4863 
L 1159 4863 
L 1159 2956 
Q 1366 3272 1645 3428 
Q 1925 3584 2291 3584 
Q 2894 3584 3203 3211 
Q 3513 2838 3513 2113 
z
" transform="scale(0.015625)"/>
      <path id="DejaVuSans-6f" d="M 1959 3097 
Q 1497 3097 1228 2736 
Q 959 2375 959 1747 
Q 959 1119 1226 758 
Q 1494 397 1959 397 
Q 2419 397 2687 759 
Q 2956 1122 2956 1747 
Q 2956 2369 2687 2733 
Q 2419 3097 1959 3097 
z
M 1959 3584 
Q 2709 3584 3137 3096 
Q 3566 2609 3566 1747 
Q 3566 888 3137 398 
Q 2709 -91 1959 -91 
Q 1206 -91 779 398 
Q 353 888 353 1747 
Q 353 2609 779 3096 
Q 1206 3584 1959 3584 
z
" transform="scale(0.015625)"/>
      <path id="DejaVuSans-79" d="M 2059 -325 
Q 1816 -950 1584 -1140 
Q 1353 -1331 966 -1331 
L 506 -1331 
L 506 -850 
L 844 -850 
Q 1081 -850 1212 -737 
Q 1344 -625 1503 -206 
L 1606 56 
L 191 3500 
L 800 3500 
L 1894 763 
L 2988 3500 
L 3597 3500 
L 2059 -325 
z
" transform="scale(0.015625)"/>
     </defs>
     <use xlink:href="#DejaVuSans-67"/>
     <use xlink:href="#DejaVuSans-65" x="63.476562"/>
     <use xlink:href="#DejaVuSans-74" x="125"/>
     <use xlink:href="#DejaVuSans-5f" x="164.208984"/>
     <use xlink:href="#DejaVuSans-73" x="214.208984"/>
     <use xlink:href="#DejaVuSans-75" x="266.308594"/>
     <use xlink:href="#DejaVuSans-62" x="329.6875"/>
     <use xlink:href="#DejaVuSans-73" x="393.164062"/>
     <use xlink:href="#DejaVuSans-63" x="445.263672"/>
     <use xlink:href="#DejaVuSans-72" x="500.244141"/>
     <use xlink:href="#DejaVuSans-69" x="541.357422"/>
     <use xlink:href="#DejaVuSans-62" x="569.140625"/>
     <use xlink:href="#DejaVuSans-65" x="632.617188"/>
     <use xlink:href="#DejaVuSans-20" x="694.140625"/>
     <use xlink:href="#DejaVuSans-68" x="725.927734"/>
     <use xlink:href="#DejaVuSans-69" x="789.306641"/>
     <use xlink:href="#DejaVuSans-73" x="817.089844"/>
     <use xlink:href="#DejaVuSans-74" x="869.189453"/>
     <use xlink:href="#DejaVuSans-6f" x="908.398438"/>
     <use xlink:href="#DejaVuSans-72" x="969.580078"/>
     <use xlink:href="#DejaVuSans-79" x="1010.693359"/>
    </g>
   </g>
   <g id="legend_1">
    <g id="line2d_35">
     <path d="M 815.08 328.498438 
L 825.08 328.498438 
L 835.08 328.498438 
" style="fill: none; stroke: #1f77b4; stroke-width: 1.5; stroke-linecap: square"/>
    </g>
    <g id="text_18">
     <!-- star -->
     <g style="fill: #a9a9a9" transform="translate(843.08 331.998438)scale(0.1 -0.1)">
      <defs>
       <path id="DejaVuSans-61" d="M 2194 1759 
Q 1497 1759 1228 1600 
Q 959 1441 959 1056 
Q 959 750 1161 570 
Q 1363 391 1709 391 
Q 2188 391 2477 730 
Q 2766 1069 2766 1631 
L 2766 1759 
L 2194 1759 
z
M 3341 1997 
L 3341 0 
L 2766 0 
L 2766 531 
Q 2569 213 2275 61 
Q 1981 -91 1556 -91 
Q 1019 -91 701 211 
Q 384 513 384 1019 
Q 384 1609 779 1909 
Q 1175 2209 1959 2209 
L 2766 2209 
L 2766 2266 
Q 2766 2663 2505 2880 
Q 2244 3097 1772 3097 
Q 1472 3097 1187 3025 
Q 903 2953 641 2809 
L 641 3341 
Q 956 3463 1253 3523 
Q 1550 3584 1831 3584 
Q 2591 3584 2966 3190 
Q 3341 2797 3341 1997 
z
" transform="scale(0.015625)"/>
      </defs>
      <use xlink:href="#DejaVuSans-73"/>
      <use xlink:href="#DejaVuSans-74" x="52.099609"/>
      <use xlink:href="#DejaVuSans-61" x="91.308594"/>
      <use xlink:href="#DejaVuSans-72" x="152.587891"/>
     </g>
    </g>
    <g id="line2d_36">
     <path d="M 815.08 343.176562 
L 825.08 343.176562 
L 835.08 343.176562 
" style="fill: none; stroke: #ff7f0e; stroke-width: 1.5; stroke-linecap: square"/>
    </g>
    <g id="text_19">
     <!-- fork -->
     <g style="fill: #a9a9a9" transform="translate(843.08 346.676562)scale(0.1 -0.1)">
      <defs>
       <path id="DejaVuSans-66" d="M 2375 4863 
L 2375 4384 
L 1825 4384 
Q 1516 4384 1395 4259 
Q 1275 4134 1275 3809 
L 1275 3500 
L 2222 3500 
L 2222 3053 
L 1275 3053 
L 1275 0 
L 697 0 
L 697 3053 
L 147 3053 
L 147 3500 
L 697 3500 
L 697 3744 
Q 697 4328 969 4595 
Q 1241 4863 1831 4863 
L 2375 4863 
z
" transform="scale(0.015625)"/>
       <path id="DejaVuSans-6b" d="M 581 4863 
L 1159 4863 
L 1159 1991 
L 2875 3500 
L 3609 3500 
L 1753 1863 
L 3688 0 
L 2938 0 
L 1159 1709 
L 1159 0 
L 581 0 
L 581 4863 
z
" transform="scale(0.015625)"/>
      </defs>
      <use xlink:href="#DejaVuSans-66"/>
      <use xlink:href="#DejaVuSans-6f" x="35.205078"/>
      <use xlink:href="#DejaVuSans-72" x="96.386719"/>
      <use xlink:href="#DejaVuSans-6b" x="137.5"/>
     </g>
    </g>
   </g>
  </g>
 </g>
 <defs>
  <clipPath id="p0f389c1989">
   <rect x="108" y="43.2" width="669.6" height="277.2"/>
  </clipPath>
 </defs>
</svg>
