<?xml version="1.0" encoding="utf-8" standalone="no"?>
<!DOCTYPE svg PUBLIC "-//W3C//DTD SVG 1.1//EN"
  "http://www.w3.org/Graphics/SVG/1.1/DTD/svg11.dtd">
<svg xmlns:xlink="http://www.w3.org/1999/xlink" width="864pt" height="360pt" viewBox="0 0 864 360" xmlns="http://www.w3.org/2000/svg" version="1.1">
 <metadata>
  <rdf:RDF xmlns:dc="http://purl.org/dc/elements/1.1/" xmlns:cc="http://creativecommons.org/ns#" xmlns:rdf="http://www.w3.org/1999/02/22-rdf-syntax-ns#">
   <cc:Work>
    <dc:type rdf:resource="http://purl.org/dc/dcmitype/StillImage"/>
    <dc:date>2022-06-28T09:09:35.897014</dc:date>
    <dc:format>image/svg+xml</dc:format>
    <dc:creator>
     <cc:Agent>
      <dc:title>Matplotlib v3.5.2, https://matplotlib.org/</dc:title>
     </cc:Agent>
    </dc:creator>
   </cc:Work>
  </rdf:RDF>
 </metadata>
 <defs>
  <style type="text/css">*{stroke-linejoin: round; stroke-linecap: butt}</style>
 </defs>
 <g id="figure_1">
  <g id="patch_1">
   <path d="M 0 360 
L 864 360 
L 864 0 
L 0 0 
L 0 360 
z
" style="fill: none; opacity: 0"/>
  </g>
  <g id="axes_1">
   <g id="patch_2">
    <path d="M 108 320.4 
L 777.6 320.4 
L 777.6 43.2 
L 108 43.2 
L 108 320.4 
z
" style="fill: none; opacity: 0"/>
   </g>
   <g id="matplotlib.axis_1">
    <g id="xtick_1">
     <g id="line2d_1">
      <path d="M 208.466935 320.4 
L 208.466935 43.2 
" clip-path="url(#p463242d169)" style="fill: none; stroke-dasharray: 5.12,1.28,0.8,1.28; stroke-dashoffset: 0; stroke: #b0b0b0; stroke-width: 0.8"/>
     </g>
     <g id="line2d_2">
      <defs>
       <path id="m4e640a8d54" d="M 0 0 
L 0 3.5 
" style="stroke: #a9a9a9; stroke-width: 0.8"/>
      </defs>
      <g>
       <use xlink:href="#m4e640a8d54" x="208.466935" y="320.4" style="fill: #a9a9a9; stroke: #a9a9a9; stroke-width: 0.8"/>
      </g>
     </g>
     <g id="text_1">
      <!-- 2021-09 -->
      <g style="fill: #a9a9a9" transform="translate(187.575529 334.998438)scale(0.1 -0.1)">
       <defs>
        <path id="DejaVuSans-32" d="M 1228 531 
L 3431 531 
L 3431 0 
L 469 0 
L 469 531 
Q 828 903 1448 1529 
Q 2069 2156 2228 2338 
Q 2531 2678 2651 2914 
Q 2772 3150 2772 3378 
Q 2772 3750 2511 3984 
Q 2250 4219 1831 4219 
Q 1534 4219 1204 4116 
Q 875 4013 500 3803 
L 500 4441 
Q 881 4594 1212 4672 
Q 1544 4750 1819 4750 
Q 2544 4750 2975 4387 
Q 3406 4025 3406 3419 
Q 3406 3131 3298 2873 
Q 3191 2616 2906 2266 
Q 2828 2175 2409 1742 
Q 1991 1309 1228 531 
z
" transform="scale(0.015625)"/>
        <path id="DejaVuSans-30" d="M 2034 4250 
Q 1547 4250 1301 3770 
Q 1056 3291 1056 2328 
Q 1056 1369 1301 889 
Q 1547 409 2034 409 
Q 2525 409 2770 889 
Q 3016 1369 3016 2328 
Q 3016 3291 2770 3770 
Q 2525 4250 2034 4250 
z
M 2034 4750 
Q 2819 4750 3233 4129 
Q 3647 3509 3647 2328 
Q 3647 1150 3233 529 
Q 2819 -91 2034 -91 
Q 1250 -91 836 529 
Q 422 1150 422 2328 
Q 422 3509 836 4129 
Q 1250 4750 2034 4750 
z
" transform="scale(0.015625)"/>
        <path id="DejaVuSans-31" d="M 794 531 
L 1825 531 
L 1825 4091 
L 703 3866 
L 703 4441 
L 1819 4666 
L 2450 4666 
L 2450 531 
L 3481 531 
L 3481 0 
L 794 0 
L 794 531 
z
" transform="scale(0.015625)"/>
        <path id="DejaVuSans-2d" d="M 313 2009 
L 1997 2009 
L 1997 1497 
L 313 1497 
L 313 2009 
z
" transform="scale(0.015625)"/>
        <path id="DejaVuSans-39" d="M 703 97 
L 703 672 
Q 941 559 1184 500 
Q 1428 441 1663 441 
Q 2288 441 2617 861 
Q 2947 1281 2994 2138 
Q 2813 1869 2534 1725 
Q 2256 1581 1919 1581 
Q 1219 1581 811 2004 
Q 403 2428 403 3163 
Q 403 3881 828 4315 
Q 1253 4750 1959 4750 
Q 2769 4750 3195 4129 
Q 3622 3509 3622 2328 
Q 3622 1225 3098 567 
Q 2575 -91 1691 -91 
Q 1453 -91 1209 -44 
Q 966 3 703 97 
z
M 1959 2075 
Q 2384 2075 2632 2365 
Q 2881 2656 2881 3163 
Q 2881 3666 2632 3958 
Q 2384 4250 1959 4250 
Q 1534 4250 1286 3958 
Q 1038 3666 1038 3163 
Q 1038 2656 1286 2365 
Q 1534 2075 1959 2075 
z
" transform="scale(0.015625)"/>
       </defs>
       <use xlink:href="#DejaVuSans-32"/>
       <use xlink:href="#DejaVuSans-30" x="63.623047"/>
       <use xlink:href="#DejaVuSans-32" x="127.246094"/>
       <use xlink:href="#DejaVuSans-31" x="190.869141"/>
       <use xlink:href="#DejaVuSans-2d" x="254.492188"/>
       <use xlink:href="#DejaVuSans-30" x="290.576172"/>
       <use xlink:href="#DejaVuSans-39" x="354.199219"/>
      </g>
     </g>
    </g>
    <g id="xtick_2">
     <g id="line2d_3">
      <path d="M 318.001931 320.4 
L 318.001931 43.2 
" clip-path="url(#p463242d169)" style="fill: none; stroke-dasharray: 5.12,1.28,0.8,1.28; stroke-dashoffset: 0; stroke: #b0b0b0; stroke-width: 0.8"/>
     </g>
     <g id="line2d_4">
      <g>
       <use xlink:href="#m4e640a8d54" x="318.001931" y="320.4" style="fill: #a9a9a9; stroke: #a9a9a9; stroke-width: 0.8"/>
      </g>
     </g>
     <g id="text_2">
      <!-- 2021-11 -->
      <g style="fill: #a9a9a9" transform="translate(297.110525 334.998438)scale(0.1 -0.1)">
       <use xlink:href="#DejaVuSans-32"/>
       <use xlink:href="#DejaVuSans-30" x="63.623047"/>
       <use xlink:href="#DejaVuSans-32" x="127.246094"/>
       <use xlink:href="#DejaVuSans-31" x="190.869141"/>
       <use xlink:href="#DejaVuSans-2d" x="254.492188"/>
       <use xlink:href="#DejaVuSans-31" x="290.576172"/>
       <use xlink:href="#DejaVuSans-31" x="354.199219"/>
      </g>
     </g>
    </g>
    <g id="xtick_3">
     <g id="line2d_5">
      <path d="M 427.536927 320.4 
L 427.536927 43.2 
" clip-path="url(#p463242d169)" style="fill: none; stroke-dasharray: 5.12,1.28,0.8,1.28; stroke-dashoffset: 0; stroke: #b0b0b0; stroke-width: 0.8"/>
     </g>
     <g id="line2d_6">
      <g>
       <use xlink:href="#m4e640a8d54" x="427.536927" y="320.4" style="fill: #a9a9a9; stroke: #a9a9a9; stroke-width: 0.8"/>
      </g>
     </g>
     <g id="text_3">
      <!-- 2022-01 -->
      <g style="fill: #a9a9a9" transform="translate(406.645521 334.998438)scale(0.1 -0.1)">
       <use xlink:href="#DejaVuSans-32"/>
       <use xlink:href="#DejaVuSans-30" x="63.623047"/>
       <use xlink:href="#DejaVuSans-32" x="127.246094"/>
       <use xlink:href="#DejaVuSans-32" x="190.869141"/>
       <use xlink:href="#DejaVuSans-2d" x="254.492188"/>
       <use xlink:href="#DejaVuSans-30" x="290.576172"/>
       <use xlink:href="#DejaVuSans-31" x="354.199219"/>
      </g>
     </g>
    </g>
    <g id="xtick_4">
     <g id="line2d_7">
      <path d="M 533.480611 320.4 
L 533.480611 43.2 
" clip-path="url(#p463242d169)" style="fill: none; stroke-dasharray: 5.12,1.28,0.8,1.28; stroke-dashoffset: 0; stroke: #b0b0b0; stroke-width: 0.8"/>
     </g>
     <g id="line2d_8">
      <g>
       <use xlink:href="#m4e640a8d54" x="533.480611" y="320.4" style="fill: #a9a9a9; stroke: #a9a9a9; stroke-width: 0.8"/>
      </g>
     </g>
     <g id="text_4">
      <!-- 2022-03 -->
      <g style="fill: #a9a9a9" transform="translate(512.589205 334.998438)scale(0.1 -0.1)">
       <defs>
        <path id="DejaVuSans-33" d="M 2597 2516 
Q 3050 2419 3304 2112 
Q 3559 1806 3559 1356 
Q 3559 666 3084 287 
Q 2609 -91 1734 -91 
Q 1441 -91 1130 -33 
Q 819 25 488 141 
L 488 750 
Q 750 597 1062 519 
Q 1375 441 1716 441 
Q 2309 441 2620 675 
Q 2931 909 2931 1356 
Q 2931 1769 2642 2001 
Q 2353 2234 1838 2234 
L 1294 2234 
L 1294 2753 
L 1863 2753 
Q 2328 2753 2575 2939 
Q 2822 3125 2822 3475 
Q 2822 3834 2567 4026 
Q 2313 4219 1838 4219 
Q 1578 4219 1281 4162 
Q 984 4106 628 3988 
L 628 4550 
Q 988 4650 1302 4700 
Q 1616 4750 1894 4750 
Q 2613 4750 3031 4423 
Q 3450 4097 3450 3541 
Q 3450 3153 3228 2886 
Q 3006 2619 2597 2516 
z
" transform="scale(0.015625)"/>
       </defs>
       <use xlink:href="#DejaVuSans-32"/>
       <use xlink:href="#DejaVuSans-30" x="63.623047"/>
       <use xlink:href="#DejaVuSans-32" x="127.246094"/>
       <use xlink:href="#DejaVuSans-32" x="190.869141"/>
       <use xlink:href="#DejaVuSans-2d" x="254.492188"/>
       <use xlink:href="#DejaVuSans-30" x="290.576172"/>
       <use xlink:href="#DejaVuSans-33" x="354.199219"/>
      </g>
     </g>
    </g>
    <g id="xtick_5">
     <g id="line2d_9">
      <path d="M 643.015607 320.4 
L 643.015607 43.2 
" clip-path="url(#p463242d169)" style="fill: none; stroke-dasharray: 5.12,1.28,0.8,1.28; stroke-dashoffset: 0; stroke: #b0b0b0; stroke-width: 0.8"/>
     </g>
     <g id="line2d_10">
      <g>
       <use xlink:href="#m4e640a8d54" x="643.015607" y="320.4" style="fill: #a9a9a9; stroke: #a9a9a9; stroke-width: 0.8"/>
      </g>
     </g>
     <g id="text_5">
      <!-- 2022-05 -->
      <g style="fill: #a9a9a9" transform="translate(622.124201 334.998438)scale(0.1 -0.1)">
       <defs>
        <path id="DejaVuSans-35" d="M 691 4666 
L 3169 4666 
L 3169 4134 
L 1269 4134 
L 1269 2991 
Q 1406 3038 1543 3061 
Q 1681 3084 1819 3084 
Q 2600 3084 3056 2656 
Q 3513 2228 3513 1497 
Q 3513 744 3044 326 
Q 2575 -91 1722 -91 
Q 1428 -91 1123 -41 
Q 819 9 494 109 
L 494 744 
Q 775 591 1075 516 
Q 1375 441 1709 441 
Q 2250 441 2565 725 
Q 2881 1009 2881 1497 
Q 2881 1984 2565 2268 
Q 2250 2553 1709 2553 
Q 1456 2553 1204 2497 
Q 953 2441 691 2322 
L 691 4666 
z
" transform="scale(0.015625)"/>
       </defs>
       <use xlink:href="#DejaVuSans-32"/>
       <use xlink:href="#DejaVuSans-30" x="63.623047"/>
       <use xlink:href="#DejaVuSans-32" x="127.246094"/>
       <use xlink:href="#DejaVuSans-32" x="190.869141"/>
       <use xlink:href="#DejaVuSans-2d" x="254.492188"/>
       <use xlink:href="#DejaVuSans-30" x="290.576172"/>
       <use xlink:href="#DejaVuSans-35" x="354.199219"/>
      </g>
     </g>
    </g>
    <g id="xtick_6">
     <g id="line2d_11">
      <path d="M 752.550603 320.4 
L 752.550603 43.2 
" clip-path="url(#p463242d169)" style="fill: none; stroke-dasharray: 5.12,1.28,0.8,1.28; stroke-dashoffset: 0; stroke: #b0b0b0; stroke-width: 0.8"/>
     </g>
     <g id="line2d_12">
      <g>
       <use xlink:href="#m4e640a8d54" x="752.550603" y="320.4" style="fill: #a9a9a9; stroke: #a9a9a9; stroke-width: 0.8"/>
      </g>
     </g>
     <g id="text_6">
      <!-- 2022-07 -->
      <g style="fill: #a9a9a9" transform="translate(731.659197 334.998438)scale(0.1 -0.1)">
       <defs>
        <path id="DejaVuSans-37" d="M 525 4666 
L 3525 4666 
L 3525 4397 
L 1831 0 
L 1172 0 
L 2766 4134 
L 525 4134 
L 525 4666 
z
" transform="scale(0.015625)"/>
       </defs>
       <use xlink:href="#DejaVuSans-32"/>
       <use xlink:href="#DejaVuSans-30" x="63.623047"/>
       <use xlink:href="#DejaVuSans-32" x="127.246094"/>
       <use xlink:href="#DejaVuSans-32" x="190.869141"/>
       <use xlink:href="#DejaVuSans-2d" x="254.492188"/>
       <use xlink:href="#DejaVuSans-30" x="290.576172"/>
       <use xlink:href="#DejaVuSans-37" x="354.199219"/>
      </g>
     </g>
    </g>
   </g>
   <g id="matplotlib.axis_2">
    <g id="ytick_1">
     <g id="line2d_13">
      <path d="M 108 307.914964 
L 777.6 307.914964 
" clip-path="url(#p463242d169)" style="fill: none; stroke-dasharray: 5.12,1.28,0.8,1.28; stroke-dashoffset: 0; stroke: #b0b0b0; stroke-width: 0.8"/>
     </g>
     <g id="line2d_14">
      <defs>
       <path id="md6d2ab7914" d="M 0 0 
L -3.5 0 
" style="stroke: #a9a9a9; stroke-width: 0.8"/>
      </defs>
      <g>
       <use xlink:href="#md6d2ab7914" x="108" y="307.914964" style="fill: #a9a9a9; stroke: #a9a9a9; stroke-width: 0.8"/>
      </g>
     </g>
     <g id="text_7">
      <!-- 0 -->
      <g style="fill: #a9a9a9" transform="translate(94.6375 311.714182)scale(0.1 -0.1)">
       <use xlink:href="#DejaVuSans-30"/>
      </g>
     </g>
    </g>
    <g id="ytick_2">
     <g id="line2d_15">
      <path d="M 108 279.174088 
L 777.6 279.174088 
" clip-path="url(#p463242d169)" style="fill: none; stroke-dasharray: 5.12,1.28,0.8,1.28; stroke-dashoffset: 0; stroke: #b0b0b0; stroke-width: 0.8"/>
     </g>
     <g id="line2d_16">
      <g>
       <use xlink:href="#md6d2ab7914" x="108" y="279.174088" style="fill: #a9a9a9; stroke: #a9a9a9; stroke-width: 0.8"/>
      </g>
     </g>
     <g id="text_8">
      <!-- 250 -->
      <g style="fill: #a9a9a9" transform="translate(81.9125 282.973306)scale(0.1 -0.1)">
       <use xlink:href="#DejaVuSans-32"/>
       <use xlink:href="#DejaVuSans-35" x="63.623047"/>
       <use xlink:href="#DejaVuSans-30" x="127.246094"/>
      </g>
     </g>
    </g>
    <g id="ytick_3">
     <g id="line2d_17">
      <path d="M 108 250.433212 
L 777.6 250.433212 
" clip-path="url(#p463242d169)" style="fill: none; stroke-dasharray: 5.12,1.28,0.8,1.28; stroke-dashoffset: 0; stroke: #b0b0b0; stroke-width: 0.8"/>
     </g>
     <g id="line2d_18">
      <g>
       <use xlink:href="#md6d2ab7914" x="108" y="250.433212" style="fill: #a9a9a9; stroke: #a9a9a9; stroke-width: 0.8"/>
      </g>
     </g>
     <g id="text_9">
      <!-- 500 -->
      <g style="fill: #a9a9a9" transform="translate(81.9125 254.23243)scale(0.1 -0.1)">
       <use xlink:href="#DejaVuSans-35"/>
       <use xlink:href="#DejaVuSans-30" x="63.623047"/>
       <use xlink:href="#DejaVuSans-30" x="127.246094"/>
      </g>
     </g>
    </g>
    <g id="ytick_4">
     <g id="line2d_19">
      <path d="M 108 221.692336 
L 777.6 221.692336 
" clip-path="url(#p463242d169)" style="fill: none; stroke-dasharray: 5.12,1.28,0.8,1.28; stroke-dashoffset: 0; stroke: #b0b0b0; stroke-width: 0.8"/>
     </g>
     <g id="line2d_20">
      <g>
       <use xlink:href="#md6d2ab7914" x="108" y="221.692336" style="fill: #a9a9a9; stroke: #a9a9a9; stroke-width: 0.8"/>
      </g>
     </g>
     <g id="text_10">
      <!-- 750 -->
      <g style="fill: #a9a9a9" transform="translate(81.9125 225.491555)scale(0.1 -0.1)">
       <use xlink:href="#DejaVuSans-37"/>
       <use xlink:href="#DejaVuSans-35" x="63.623047"/>
       <use xlink:href="#DejaVuSans-30" x="127.246094"/>
      </g>
     </g>
    </g>
    <g id="ytick_5">
     <g id="line2d_21">
      <path d="M 108 192.95146 
L 777.6 192.95146 
" clip-path="url(#p463242d169)" style="fill: none; stroke-dasharray: 5.12,1.28,0.8,1.28; stroke-dashoffset: 0; stroke: #b0b0b0; stroke-width: 0.8"/>
     </g>
     <g id="line2d_22">
      <g>
       <use xlink:href="#md6d2ab7914" x="108" y="192.95146" style="fill: #a9a9a9; stroke: #a9a9a9; stroke-width: 0.8"/>
      </g>
     </g>
     <g id="text_11">
      <!-- 1000 -->
      <g style="fill: #a9a9a9" transform="translate(75.55 196.750679)scale(0.1 -0.1)">
       <use xlink:href="#DejaVuSans-31"/>
       <use xlink:href="#DejaVuSans-30" x="63.623047"/>
       <use xlink:href="#DejaVuSans-30" x="127.246094"/>
       <use xlink:href="#DejaVuSans-30" x="190.869141"/>
      </g>
     </g>
    </g>
    <g id="ytick_6">
     <g id="line2d_23">
      <path d="M 108 164.210584 
L 777.6 164.210584 
" clip-path="url(#p463242d169)" style="fill: none; stroke-dasharray: 5.12,1.28,0.8,1.28; stroke-dashoffset: 0; stroke: #b0b0b0; stroke-width: 0.8"/>
     </g>
     <g id="line2d_24">
      <g>
       <use xlink:href="#md6d2ab7914" x="108" y="164.210584" style="fill: #a9a9a9; stroke: #a9a9a9; stroke-width: 0.8"/>
      </g>
     </g>
     <g id="text_12">
      <!-- 1250 -->
      <g style="fill: #a9a9a9" transform="translate(75.55 168.009803)scale(0.1 -0.1)">
       <use xlink:href="#DejaVuSans-31"/>
       <use xlink:href="#DejaVuSans-32" x="63.623047"/>
       <use xlink:href="#DejaVuSans-35" x="127.246094"/>
       <use xlink:href="#DejaVuSans-30" x="190.869141"/>
      </g>
     </g>
    </g>
    <g id="ytick_7">
     <g id="line2d_25">
      <path d="M 108 135.469708 
L 777.6 135.469708 
" clip-path="url(#p463242d169)" style="fill: none; stroke-dasharray: 5.12,1.28,0.8,1.28; stroke-dashoffset: 0; stroke: #b0b0b0; stroke-width: 0.8"/>
     </g>
     <g id="line2d_26">
      <g>
       <use xlink:href="#md6d2ab7914" x="108" y="135.469708" style="fill: #a9a9a9; stroke: #a9a9a9; stroke-width: 0.8"/>
      </g>
     </g>
     <g id="text_13">
      <!-- 1500 -->
      <g style="fill: #a9a9a9" transform="translate(75.55 139.268927)scale(0.1 -0.1)">
       <use xlink:href="#DejaVuSans-31"/>
       <use xlink:href="#DejaVuSans-35" x="63.623047"/>
       <use xlink:href="#DejaVuSans-30" x="127.246094"/>
       <use xlink:href="#DejaVuSans-30" x="190.869141"/>
      </g>
     </g>
    </g>
    <g id="ytick_8">
     <g id="line2d_27">
      <path d="M 108 106.728832 
L 777.6 106.728832 
" clip-path="url(#p463242d169)" style="fill: none; stroke-dasharray: 5.12,1.28,0.8,1.28; stroke-dashoffset: 0; stroke: #b0b0b0; stroke-width: 0.8"/>
     </g>
     <g id="line2d_28">
      <g>
       <use xlink:href="#md6d2ab7914" x="108" y="106.728832" style="fill: #a9a9a9; stroke: #a9a9a9; stroke-width: 0.8"/>
      </g>
     </g>
     <g id="text_14">
      <!-- 1750 -->
      <g style="fill: #a9a9a9" transform="translate(75.55 110.528051)scale(0.1 -0.1)">
       <use xlink:href="#DejaVuSans-31"/>
       <use xlink:href="#DejaVuSans-37" x="63.623047"/>
       <use xlink:href="#DejaVuSans-35" x="127.246094"/>
       <use xlink:href="#DejaVuSans-30" x="190.869141"/>
      </g>
     </g>
    </g>
    <g id="ytick_9">
     <g id="line2d_29">
      <path d="M 108 77.987956 
L 777.6 77.987956 
" clip-path="url(#p463242d169)" style="fill: none; stroke-dasharray: 5.12,1.28,0.8,1.28; stroke-dashoffset: 0; stroke: #b0b0b0; stroke-width: 0.8"/>
     </g>
     <g id="line2d_30">
      <g>
       <use xlink:href="#md6d2ab7914" x="108" y="77.987956" style="fill: #a9a9a9; stroke: #a9a9a9; stroke-width: 0.8"/>
      </g>
     </g>
     <g id="text_15">
      <!-- 2000 -->
      <g style="fill: #a9a9a9" transform="translate(75.55 81.787175)scale(0.1 -0.1)">
       <use xlink:href="#DejaVuSans-32"/>
       <use xlink:href="#DejaVuSans-30" x="63.623047"/>
       <use xlink:href="#DejaVuSans-30" x="127.246094"/>
       <use xlink:href="#DejaVuSans-30" x="190.869141"/>
      </g>
     </g>
    </g>
    <g id="ytick_10">
     <g id="line2d_31">
      <path d="M 108 49.24708 
L 777.6 49.24708 
" clip-path="url(#p463242d169)" style="fill: none; stroke-dasharray: 5.12,1.28,0.8,1.28; stroke-dashoffset: 0; stroke: #b0b0b0; stroke-width: 0.8"/>
     </g>
     <g id="line2d_32">
      <g>
       <use xlink:href="#md6d2ab7914" x="108" y="49.24708" style="fill: #a9a9a9; stroke: #a9a9a9; stroke-width: 0.8"/>
      </g>
     </g>
     <g id="text_16">
      <!-- 2250 -->
      <g style="fill: #a9a9a9" transform="translate(75.55 53.046299)scale(0.1 -0.1)">
       <use xlink:href="#DejaVuSans-32"/>
       <use xlink:href="#DejaVuSans-32" x="63.623047"/>
       <use xlink:href="#DejaVuSans-35" x="127.246094"/>
       <use xlink:href="#DejaVuSans-30" x="190.869141"/>
      </g>
     </g>
    </g>
   </g>
   <g id="line2d_33">
    <path d="M 138.436364 307.455109 
L 142.027675 307.225182 
L 147.414642 306.535401 
L 149.210298 306.535401 
L 151.005953 305.84562 
L 154.597265 305.615693 
L 158.188576 304.925912 
L 159.984232 304.695985 
L 161.779887 304.236131 
L 163.575543 304.006204 
L 165.371199 303.54635 
L 167.166854 303.20146 
L 168.96251 303.086496 
L 170.758166 302.856569 
L 172.553821 302.511679 
L 177.940788 302.166788 
L 179.736444 301.24708 
L 181.5321 300.787226 
L 183.327755 298.717883 
L 185.123411 297.568248 
L 186.919067 293.544526 
L 188.714722 293.314599 
L 190.510378 291.935036 
L 192.306034 291.245255 
L 194.101689 290.210584 
L 199.488656 285.956934 
L 201.284312 285.037226 
L 204.875623 283.542701 
L 206.671279 282.278102 
L 208.466935 281.588321 
L 212.058246 279.404015 
L 213.853902 278.714234 
L 215.649558 275.840146 
L 217.445213 274.460584 
L 219.240869 273.425912 
L 221.036525 272.621168 
L 226.423492 271.931387 
L 230.014803 271.241606 
L 231.810459 271.011679 
L 233.606114 270.666788 
L 237.197426 270.436861 
L 238.993081 269.977007 
L 240.788737 269.057299 
L 244.380048 268.827372 
L 246.175704 268.827372 
L 247.97136 268.482482 
L 251.562671 268.022628 
L 253.358327 267.907664 
L 255.153982 267.217883 
L 256.949638 266.872993 
L 258.745294 266.413139 
L 260.540949 266.068248 
L 262.336605 265.838321 
L 264.132261 265.493431 
L 265.927916 265.378467 
L 267.723572 265.14854 
L 269.519228 264.688686 
L 271.314883 264.458759 
L 273.110539 264.343796 
L 274.906195 263.998905 
L 276.70185 263.079197 
L 278.497506 262.84927 
L 282.088817 261.584672 
L 283.884473 261.354745 
L 285.680129 261.239781 
L 287.475784 260.664964 
L 289.27144 260.320073 
L 291.067096 260.205109 
L 292.862751 259.745255 
L 294.658407 259.515328 
L 298.249718 258.365693 
L 300.045374 258.135766 
L 301.84103 258.135766 
L 303.636685 257.905839 
L 305.432341 257.790876 
L 307.227997 257.560949 
L 309.023652 256.986131 
L 310.819308 256.871168 
L 314.410619 255.836496 
L 316.206275 255.376642 
L 318.001931 255.146715 
L 321.593242 254.916788 
L 323.388898 254.571898 
L 325.184553 254.341971 
L 326.980209 253.882117 
L 328.775865 253.192336 
L 330.571521 250.893066 
L 332.367176 250.203285 
L 334.162832 249.283577 
L 335.958488 249.05365 
L 337.754143 248.593796 
L 339.549799 248.363869 
L 343.14111 246.869343 
L 344.936766 246.75438 
L 348.528077 245.834672 
L 352.119389 244.8 
L 353.915044 244.340146 
L 355.7107 244.340146 
L 359.302011 243.880292 
L 361.097667 243.190511 
L 362.893323 242.730657 
L 366.484634 241.581022 
L 368.28029 241.236131 
L 370.075945 241.121168 
L 373.667257 239.626642 
L 375.462912 239.396715 
L 377.258568 238.591971 
L 379.054224 238.362044 
L 382.645535 238.132117 
L 384.441191 237.787226 
L 386.236846 237.327372 
L 388.032502 237.212409 
L 389.828158 236.982482 
L 393.419469 236.292701 
L 395.215125 236.062774 
L 397.01078 235.60292 
L 398.806436 235.028102 
L 400.602092 234.798175 
L 402.397747 233.993431 
L 404.193403 233.418613 
L 405.989059 232.383942 
L 407.784714 231.924088 
L 409.58037 231.694161 
L 413.171681 230.544526 
L 416.762993 228.590146 
L 418.558648 227.325547 
L 420.354304 227.09562 
L 422.14996 226.520803 
L 423.945615 226.290876 
L 425.741271 225.831022 
L 427.536927 225.601095 
L 429.332582 224.79635 
L 432.923894 224.106569 
L 436.515205 222.382117 
L 438.310861 221.922263 
L 440.106516 221.692336 
L 441.902172 221.002555 
L 443.697828 220.657664 
L 445.493484 220.19781 
L 447.289139 219.85292 
L 449.084795 219.622993 
L 452.676106 218.013504 
L 454.471762 217.668613 
L 456.267418 216.863869 
L 458.063073 216.633942 
L 459.858729 215.829197 
L 461.654385 215.369343 
L 463.45004 215.139416 
L 465.245696 215.024453 
L 468.837007 213.759854 
L 470.632663 213.529927 
L 472.428319 213.529927 
L 474.223974 212.725182 
L 476.01963 212.380292 
L 477.815286 212.150365 
L 479.610941 211.460584 
L 481.406597 211.460584 
L 483.202253 211.34562 
L 484.997908 211.115693 
L 486.793564 211.00073 
L 488.58922 210.770803 
L 490.384875 210.425912 
L 493.976187 208.70146 
L 497.567498 207.091971 
L 499.363154 206.632117 
L 501.158809 205.482482 
L 502.954465 204.907664 
L 506.545776 203.298175 
L 508.341432 202.953285 
L 510.137088 202.14854 
L 511.932743 201.573723 
L 513.728399 200.309124 
L 515.524055 199.389416 
L 517.31971 197.55 
L 519.115366 194.560949 
L 520.911022 192.031752 
L 522.706677 191.456934 
L 524.502333 191.341971 
L 528.093644 188.69781 
L 529.8893 188.237956 
L 531.684956 187.203285 
L 533.480611 186.858394 
L 535.276267 185.248905 
L 537.071923 184.789051 
L 542.45889 182.374818 
L 544.254545 180.305474 
L 546.050201 177.431387 
L 547.845857 176.396715 
L 549.641512 173.522628 
L 551.437168 171.798175 
L 553.232824 170.878467 
L 555.028479 170.30365 
L 556.824135 169.039051 
L 560.415447 167.314599 
L 562.211102 166.05 
L 564.006758 164.555474 
L 565.802414 163.290876 
L 567.598069 162.256204 
L 569.393725 159.612044 
L 571.189381 155.358394 
L 572.985036 152.714234 
L 574.780692 151.219708 
L 576.576348 150.3 
L 580.167659 146.851095 
L 583.75897 143.977007 
L 587.350282 141.10292 
L 589.145937 139.493431 
L 590.941593 136.964234 
L 592.737249 135.239781 
L 594.532904 133.860219 
L 598.124216 131.445985 
L 603.511183 127.307299 
L 605.306838 126.847445 
L 610.693805 123.973358 
L 614.285117 122.018978 
L 616.080772 121.214234 
L 619.672084 118.110219 
L 621.467739 115.810949 
L 625.059051 113.396715 
L 626.854706 112.936861 
L 628.650362 112.017153 
L 630.446018 110.752555 
L 634.037329 108.913139 
L 635.832985 108.568248 
L 641.219952 105.234307 
L 643.015607 103.509854 
L 644.811263 102.245255 
L 646.606919 101.670438 
L 648.402574 100.405839 
L 650.19823 99.601095 
L 651.993886 98.336496 
L 653.789541 97.531752 
L 655.585197 96.382117 
L 657.380853 94.887591 
L 660.972164 93.622993 
L 662.76782 92.703285 
L 664.563475 92.128467 
L 666.359131 90.978832 
L 668.154787 90.518978 
L 682.520032 85.00073 
L 686.111344 84.310949 
L 687.906999 82.586496 
L 689.702655 81.206934 
L 691.498311 80.517153 
L 698.680933 76.378467 
L 700.476589 75.573723 
L 702.272245 74.998905 
L 704.0679 73.619343 
L 705.863556 72.929562 
L 711.250523 69.59562 
L 713.046179 69.25073 
L 714.841834 68.790876 
L 716.63749 68.445985 
L 720.228801 67.411314 
L 725.615768 64.422263 
L 727.411424 64.192336 
L 729.20708 63.502555 
L 731.002735 63.157664 
L 732.798391 62.35292 
L 734.594047 61.088321 
L 736.389702 59.593796 
L 738.185358 58.444161 
L 739.981014 58.09927 
L 741.776669 57.179562 
L 743.572325 56.719708 
L 745.367981 56.029927 
L 747.163636 55.8 
L 747.163636 55.8 
" clip-path="url(#p463242d169)" style="fill: none; stroke: #1f77b4; stroke-width: 1.5; stroke-linecap: square"/>
   </g>
   <g id="line2d_34">
    <path d="M 140.232019 307.8 
L 143.823331 307.8 
L 147.414642 307.340146 
L 156.39292 307.340146 
L 159.984232 307.110219 
L 161.779887 307.110219 
L 163.575543 306.995255 
L 167.166854 306.995255 
L 170.758166 306.765328 
L 177.940788 306.765328 
L 179.736444 306.305474 
L 181.5321 306.305474 
L 183.327755 306.075547 
L 185.123411 306.075547 
L 186.919067 305.84562 
L 188.714722 305.730657 
L 194.101689 305.040876 
L 199.488656 304.695985 
L 201.284312 304.695985 
L 204.875623 304.466058 
L 206.671279 304.236131 
L 210.262591 304.236131 
L 212.058246 303.891241 
L 213.853902 303.891241 
L 215.649558 303.776277 
L 217.445213 303.776277 
L 221.036525 303.316423 
L 228.219147 303.316423 
L 230.014803 303.086496 
L 237.197426 303.086496 
L 240.788737 302.856569 
L 242.584393 302.856569 
L 244.380048 302.741606 
L 255.153982 302.741606 
L 256.949638 302.626642 
L 260.540949 302.626642 
L 262.336605 302.511679 
L 267.723572 302.511679 
L 269.519228 302.396715 
L 271.314883 302.396715 
L 273.110539 302.281752 
L 274.906195 302.281752 
L 276.70185 302.166788 
L 283.884473 302.166788 
L 285.680129 301.936861 
L 287.475784 301.936861 
L 289.27144 301.821898 
L 291.067096 301.821898 
L 294.658407 301.591971 
L 296.454063 301.591971 
L 298.249718 301.477007 
L 305.432341 301.477007 
L 307.227997 301.362044 
L 310.819308 301.362044 
L 312.614964 301.24708 
L 318.001931 301.24708 
L 319.797586 301.132117 
L 321.593242 301.132117 
L 323.388898 300.90219 
L 325.184553 300.787226 
L 326.980209 300.442336 
L 328.775865 300.442336 
L 330.571521 300.327372 
L 335.958488 300.327372 
L 337.754143 300.212409 
L 339.549799 299.982482 
L 343.14111 299.982482 
L 344.936766 299.867518 
L 346.732422 299.867518 
L 348.528077 299.752555 
L 353.915044 299.752555 
L 357.506356 299.522628 
L 361.097667 299.522628 
L 362.893323 299.407664 
L 364.688978 299.177737 
L 366.484634 299.062774 
L 368.28029 298.832847 
L 370.075945 298.717883 
L 371.871601 298.717883 
L 373.667257 298.60292 
L 375.462912 298.60292 
L 377.258568 298.487956 
L 379.054224 298.487956 
L 380.849879 298.372993 
L 386.236846 298.372993 
L 388.032502 298.143066 
L 393.419469 298.143066 
L 395.215125 297.913139 
L 397.01078 297.798175 
L 398.806436 297.568248 
L 400.602092 297.568248 
L 402.397747 297.453285 
L 404.193403 297.453285 
L 405.989059 297.338321 
L 411.376026 297.338321 
L 413.171681 297.108394 
L 414.967337 296.763504 
L 420.354304 296.418613 
L 422.14996 296.073723 
L 423.945615 296.073723 
L 425.741271 295.958759 
L 429.332582 295.958759 
L 431.128238 295.843796 
L 432.923894 295.613869 
L 434.719549 295.498905 
L 436.515205 295.268978 
L 441.902172 294.924088 
L 443.697828 294.924088 
L 447.289139 294.694161 
L 450.880451 294.694161 
L 456.267418 294.34927 
L 459.858729 294.34927 
L 461.654385 294.119343 
L 465.245696 293.889416 
L 468.837007 293.889416 
L 470.632663 293.659489 
L 472.428319 293.659489 
L 476.01963 293.429562 
L 477.815286 293.199635 
L 481.406597 293.199635 
L 483.202253 293.084672 
L 484.997908 293.084672 
L 490.384875 292.739781 
L 495.771842 292.739781 
L 499.363154 292.509854 
L 506.545776 292.509854 
L 508.341432 292.394891 
L 510.137088 292.394891 
L 511.932743 292.164964 
L 513.728399 291.820073 
L 517.31971 291.590146 
L 519.115366 291.590146 
L 520.911022 291.360219 
L 522.706677 291.245255 
L 524.502333 291.245255 
L 528.093644 291.015328 
L 529.8893 291.015328 
L 531.684956 290.670438 
L 533.480611 290.555474 
L 535.276267 290.325547 
L 537.071923 289.865693 
L 540.663234 289.635766 
L 542.45889 289.175912 
L 544.254545 289.060949 
L 546.050201 288.831022 
L 547.845857 288.716058 
L 549.641512 288.256204 
L 551.437168 287.911314 
L 553.232824 287.79635 
L 555.028479 287.79635 
L 556.824135 287.681387 
L 558.619791 287.681387 
L 560.415447 287.45146 
L 562.211102 287.45146 
L 564.006758 287.221533 
L 567.598069 286.531752 
L 569.393725 286.071898 
L 572.985036 285.612044 
L 574.780692 285.612044 
L 578.372003 285.15219 
L 580.167659 285.15219 
L 585.554626 284.807299 
L 589.145937 284.347445 
L 592.737249 284.117518 
L 594.532904 284.117518 
L 596.32856 284.002555 
L 598.124216 283.772628 
L 599.919871 283.657664 
L 603.511183 283.657664 
L 605.306838 283.427737 
L 607.102494 283.082847 
L 608.89815 282.967883 
L 610.693805 282.737956 
L 612.489461 282.737956 
L 614.285117 282.393066 
L 616.080772 282.163139 
L 617.876428 281.818248 
L 621.467739 281.588321 
L 626.854706 281.588321 
L 628.650362 281.128467 
L 630.446018 280.89854 
L 632.241673 280.89854 
L 635.832985 280.668613 
L 637.62864 280.668613 
L 639.424296 280.323723 
L 641.219952 280.208759 
L 643.015607 280.208759 
L 646.606919 279.748905 
L 648.402574 279.404015 
L 650.19823 278.944161 
L 651.993886 278.714234 
L 653.789541 278.714234 
L 657.380853 278.484307 
L 659.176508 278.25438 
L 660.972164 278.25438 
L 664.563475 278.024453 
L 668.154787 278.024453 
L 671.746098 277.794526 
L 673.541754 277.794526 
L 677.133065 277.334672 
L 678.928721 277.219708 
L 680.724377 277.219708 
L 684.315688 276.989781 
L 686.111344 276.759854 
L 691.498311 276.414964 
L 696.885278 276.414964 
L 698.680933 276.185036 
L 700.476589 276.070073 
L 704.0679 276.070073 
L 705.863556 275.725182 
L 707.659212 275.610219 
L 709.454867 275.380292 
L 711.250523 275.265328 
L 713.046179 275.265328 
L 714.841834 275.035401 
L 718.433146 275.035401 
L 720.228801 274.920438 
L 722.024457 274.575547 
L 725.615768 274.575547 
L 727.411424 274.34562 
L 729.20708 274.34562 
L 732.798391 274.115693 
L 734.594047 274.115693 
L 736.389702 273.770803 
L 739.981014 273.770803 
L 741.776669 273.655839 
L 747.163636 273.655839 
L 747.163636 273.655839 
" clip-path="url(#p463242d169)" style="fill: none; stroke: #ff7f0e; stroke-width: 1.5; stroke-linecap: square"/>
   </g>
   <g id="patch_3">
    <path d="M 108 320.4 
L 108 43.2 
" style="fill: none; stroke: #a9a9a9; stroke-width: 0.8; stroke-linejoin: miter; stroke-linecap: square"/>
   </g>
   <g id="patch_4">
    <path d="M 777.6 320.4 
L 777.6 43.2 
" style="fill: none"/>
   </g>
   <g id="patch_5">
    <path d="M 108 320.4 
L 777.6 320.4 
" style="fill: none; stroke: #a9a9a9; stroke-width: 0.8; stroke-linejoin: miter; stroke-linecap: square"/>
   </g>
   <g id="patch_6">
    <path d="M 108 43.2 
L 777.6 43.2 
" style="fill: none"/>
   </g>
   <g id="text_17">
    <!-- get_subscribe history -->
    <g style="fill: #a9a9a9" transform="translate(378.6075 37.2)scale(0.12 -0.12)">
     <defs>
      <path id="DejaVuSans-67" d="M 2906 1791 
Q 2906 2416 2648 2759 
Q 2391 3103 1925 3103 
Q 1463 3103 1205 2759 
Q 947 2416 947 1791 
Q 947 1169 1205 825 
Q 1463 481 1925 481 
Q 2391 481 2648 825 
Q 2906 1169 2906 1791 
z
M 3481 434 
Q 3481 -459 3084 -895 
Q 2688 -1331 1869 -1331 
Q 1566 -1331 1297 -1286 
Q 1028 -1241 775 -1147 
L 775 -588 
Q 1028 -725 1275 -790 
Q 1522 -856 1778 -856 
Q 2344 -856 2625 -561 
Q 2906 -266 2906 331 
L 2906 616 
Q 2728 306 2450 153 
Q 2172 0 1784 0 
Q 1141 0 747 490 
Q 353 981 353 1791 
Q 353 2603 747 3093 
Q 1141 3584 1784 3584 
Q 2172 3584 2450 3431 
Q 2728 3278 2906 2969 
L 2906 3500 
L 3481 3500 
L 3481 434 
z
" transform="scale(0.015625)"/>
      <path id="DejaVuSans-65" d="M 3597 1894 
L 3597 1613 
L 953 1613 
Q 991 1019 1311 708 
Q 1631 397 2203 397 
Q 2534 397 2845 478 
Q 3156 559 3463 722 
L 3463 178 
Q 3153 47 2828 -22 
Q 2503 -91 2169 -91 
Q 1331 -91 842 396 
Q 353 884 353 1716 
Q 353 2575 817 3079 
Q 1281 3584 2069 3584 
Q 2775 3584 3186 3129 
Q 3597 2675 3597 1894 
z
M 3022 2063 
Q 3016 2534 2758 2815 
Q 2500 3097 2075 3097 
Q 1594 3097 1305 2825 
Q 1016 2553 972 2059 
L 3022 2063 
z
" transform="scale(0.015625)"/>
      <path id="DejaVuSans-74" d="M 1172 4494 
L 1172 3500 
L 2356 3500 
L 2356 3053 
L 1172 3053 
L 1172 1153 
Q 1172 725 1289 603 
Q 1406 481 1766 481 
L 2356 481 
L 2356 0 
L 1766 0 
Q 1100 0 847 248 
Q 594 497 594 1153 
L 594 3053 
L 172 3053 
L 172 3500 
L 594 3500 
L 594 4494 
L 1172 4494 
z
" transform="scale(0.015625)"/>
      <path id="DejaVuSans-5f" d="M 3263 -1063 
L 3263 -1509 
L -63 -1509 
L -63 -1063 
L 3263 -1063 
z
" transform="scale(0.015625)"/>
      <path id="DejaVuSans-73" d="M 2834 3397 
L 2834 2853 
Q 2591 2978 2328 3040 
Q 2066 3103 1784 3103 
Q 1356 3103 1142 2972 
Q 928 2841 928 2578 
Q 928 2378 1081 2264 
Q 1234 2150 1697 2047 
L 1894 2003 
Q 2506 1872 2764 1633 
Q 3022 1394 3022 966 
Q 3022 478 2636 193 
Q 2250 -91 1575 -91 
Q 1294 -91 989 -36 
Q 684 19 347 128 
L 347 722 
Q 666 556 975 473 
Q 1284 391 1588 391 
Q 1994 391 2212 530 
Q 2431 669 2431 922 
Q 2431 1156 2273 1281 
Q 2116 1406 1581 1522 
L 1381 1569 
Q 847 1681 609 1914 
Q 372 2147 372 2553 
Q 372 3047 722 3315 
Q 1072 3584 1716 3584 
Q 2034 3584 2315 3537 
Q 2597 3491 2834 3397 
z
" transform="scale(0.015625)"/>
      <path id="DejaVuSans-75" d="M 544 1381 
L 544 3500 
L 1119 3500 
L 1119 1403 
Q 1119 906 1312 657 
Q 1506 409 1894 409 
Q 2359 409 2629 706 
Q 2900 1003 2900 1516 
L 2900 3500 
L 3475 3500 
L 3475 0 
L 2900 0 
L 2900 538 
Q 2691 219 2414 64 
Q 2138 -91 1772 -91 
Q 1169 -91 856 284 
Q 544 659 544 1381 
z
M 1991 3584 
L 1991 3584 
z
" transform="scale(0.015625)"/>
      <path id="DejaVuSans-62" d="M 3116 1747 
Q 3116 2381 2855 2742 
Q 2594 3103 2138 3103 
Q 1681 3103 1420 2742 
Q 1159 2381 1159 1747 
Q 1159 1113 1420 752 
Q 1681 391 2138 391 
Q 2594 391 2855 752 
Q 3116 1113 3116 1747 
z
M 1159 2969 
Q 1341 3281 1617 3432 
Q 1894 3584 2278 3584 
Q 2916 3584 3314 3078 
Q 3713 2572 3713 1747 
Q 3713 922 3314 415 
Q 2916 -91 2278 -91 
Q 1894 -91 1617 61 
Q 1341 213 1159 525 
L 1159 0 
L 581 0 
L 581 4863 
L 1159 4863 
L 1159 2969 
z
" transform="scale(0.015625)"/>
      <path id="DejaVuSans-63" d="M 3122 3366 
L 3122 2828 
Q 2878 2963 2633 3030 
Q 2388 3097 2138 3097 
Q 1578 3097 1268 2742 
Q 959 2388 959 1747 
Q 959 1106 1268 751 
Q 1578 397 2138 397 
Q 2388 397 2633 464 
Q 2878 531 3122 666 
L 3122 134 
Q 2881 22 2623 -34 
Q 2366 -91 2075 -91 
Q 1284 -91 818 406 
Q 353 903 353 1747 
Q 353 2603 823 3093 
Q 1294 3584 2113 3584 
Q 2378 3584 2631 3529 
Q 2884 3475 3122 3366 
z
" transform="scale(0.015625)"/>
      <path id="DejaVuSans-72" d="M 2631 2963 
Q 2534 3019 2420 3045 
Q 2306 3072 2169 3072 
Q 1681 3072 1420 2755 
Q 1159 2438 1159 1844 
L 1159 0 
L 581 0 
L 581 3500 
L 1159 3500 
L 1159 2956 
Q 1341 3275 1631 3429 
Q 1922 3584 2338 3584 
Q 2397 3584 2469 3576 
Q 2541 3569 2628 3553 
L 2631 2963 
z
" transform="scale(0.015625)"/>
      <path id="DejaVuSans-69" d="M 603 3500 
L 1178 3500 
L 1178 0 
L 603 0 
L 603 3500 
z
M 603 4863 
L 1178 4863 
L 1178 4134 
L 603 4134 
L 603 4863 
z
" transform="scale(0.015625)"/>
      <path id="DejaVuSans-20" transform="scale(0.015625)"/>
      <path id="DejaVuSans-68" d="M 3513 2113 
L 3513 0 
L 2938 0 
L 2938 2094 
Q 2938 2591 2744 2837 
Q 2550 3084 2163 3084 
Q 1697 3084 1428 2787 
Q 1159 2491 1159 1978 
L 1159 0 
L 581 0 
L 581 4863 
L 1159 4863 
L 1159 2956 
Q 1366 3272 1645 3428 
Q 1925 3584 2291 3584 
Q 2894 3584 3203 3211 
Q 3513 2838 3513 2113 
z
" transform="scale(0.015625)"/>
      <path id="DejaVuSans-6f" d="M 1959 3097 
Q 1497 3097 1228 2736 
Q 959 2375 959 1747 
Q 959 1119 1226 758 
Q 1494 397 1959 397 
Q 2419 397 2687 759 
Q 2956 1122 2956 1747 
Q 2956 2369 2687 2733 
Q 2419 3097 1959 3097 
z
M 1959 3584 
Q 2709 3584 3137 3096 
Q 3566 2609 3566 1747 
Q 3566 888 3137 398 
Q 2709 -91 1959 -91 
Q 1206 -91 779 398 
Q 353 888 353 1747 
Q 353 2609 779 3096 
Q 1206 3584 1959 3584 
z
" transform="scale(0.015625)"/>
      <path id="DejaVuSans-79" d="M 2059 -325 
Q 1816 -950 1584 -1140 
Q 1353 -1331 966 -1331 
L 506 -1331 
L 506 -850 
L 844 -850 
Q 1081 -850 1212 -737 
Q 1344 -625 1503 -206 
L 1606 56 
L 191 3500 
L 800 3500 
L 1894 763 
L 2988 3500 
L 3597 3500 
L 2059 -325 
z
" transform="scale(0.015625)"/>
     </defs>
     <use xlink:href="#DejaVuSans-67"/>
     <use xlink:href="#DejaVuSans-65" x="63.476562"/>
     <use xlink:href="#DejaVuSans-74" x="125"/>
     <use xlink:href="#DejaVuSans-5f" x="164.208984"/>
     <use xlink:href="#DejaVuSans-73" x="214.208984"/>
     <use xlink:href="#DejaVuSans-75" x="266.308594"/>
     <use xlink:href="#DejaVuSans-62" x="329.6875"/>
     <use xlink:href="#DejaVuSans-73" x="393.164062"/>
     <use xlink:href="#DejaVuSans-63" x="445.263672"/>
     <use xlink:href="#DejaVuSans-72" x="500.244141"/>
     <use xlink:href="#DejaVuSans-69" x="541.357422"/>
     <use xlink:href="#DejaVuSans-62" x="569.140625"/>
     <use xlink:href="#DejaVuSans-65" x="632.617188"/>
     <use xlink:href="#DejaVuSans-20" x="694.140625"/>
     <use xlink:href="#DejaVuSans-68" x="725.927734"/>
     <use xlink:href="#DejaVuSans-69" x="789.306641"/>
     <use xlink:href="#DejaVuSans-73" x="817.089844"/>
     <use xlink:href="#DejaVuSans-74" x="869.189453"/>
     <use xlink:href="#DejaVuSans-6f" x="908.398438"/>
     <use xlink:href="#DejaVuSans-72" x="969.580078"/>
     <use xlink:href="#DejaVuSans-79" x="1010.693359"/>
    </g>
   </g>
   <g id="legend_1">
    <g id="line2d_35">
     <path d="M 815.08 328.498438 
L 825.08 328.498438 
L 835.08 328.498438 
" style="fill: none; stroke: #1f77b4; stroke-width: 1.5; stroke-linecap: square"/>
    </g>
    <g id="text_18">
     <!-- star -->
     <g style="fill: #a9a9a9" transform="translate(843.08 331.998438)scale(0.1 -0.1)">
      <defs>
       <path id="DejaVuSans-61" d="M 2194 1759 
Q 1497 1759 1228 1600 
Q 959 1441 959 1056 
Q 959 750 1161 570 
Q 1363 391 1709 391 
Q 2188 391 2477 730 
Q 2766 1069 2766 1631 
L 2766 1759 
L 2194 1759 
z
M 3341 1997 
L 3341 0 
L 2766 0 
L 2766 531 
Q 2569 213 2275 61 
Q 1981 -91 1556 -91 
Q 1019 -91 701 211 
Q 384 513 384 1019 
Q 384 1609 779 1909 
Q 1175 2209 1959 2209 
L 2766 2209 
L 2766 2266 
Q 2766 2663 2505 2880 
Q 2244 3097 1772 3097 
Q 1472 3097 1187 3025 
Q 903 2953 641 2809 
L 641 3341 
Q 956 3463 1253 3523 
Q 1550 3584 1831 3584 
Q 2591 3584 2966 3190 
Q 3341 2797 3341 1997 
z
" transform="scale(0.015625)"/>
      </defs>
      <use xlink:href="#DejaVuSans-73"/>
      <use xlink:href="#DejaVuSans-74" x="52.099609"/>
      <use xlink:href="#DejaVuSans-61" x="91.308594"/>
      <use xlink:href="#DejaVuSans-72" x="152.587891"/>
     </g>
    </g>
    <g id="line2d_36">
     <path d="M 815.08 343.176562 
L 825.08 343.176562 
L 835.08 343.176562 
" style="fill: none; stroke: #ff7f0e; stroke-width: 1.5; stroke-linecap: square"/>
    </g>
    <g id="text_19">
     <!-- fork -->
     <g style="fill: #a9a9a9" transform="translate(843.08 346.676562)scale(0.1 -0.1)">
      <defs>
       <path id="DejaVuSans-66" d="M 2375 4863 
L 2375 4384 
L 1825 4384 
Q 1516 4384 1395 4259 
Q 1275 4134 1275 3809 
L 1275 3500 
L 2222 3500 
L 2222 3053 
L 1275 3053 
L 1275 0 
L 697 0 
L 697 3053 
L 147 3053 
L 147 3500 
L 697 3500 
L 697 3744 
Q 697 4328 969 4595 
Q 1241 4863 1831 4863 
L 2375 4863 
z
" transform="scale(0.015625)"/>
       <path id="DejaVuSans-6b" d="M 581 4863 
L 1159 4863 
L 1159 1991 
L 2875 3500 
L 3609 3500 
L 1753 1863 
L 3688 0 
L 2938 0 
L 1159 1709 
L 1159 0 
L 581 0 
L 581 4863 
z
" transform="scale(0.015625)"/>
      </defs>
      <use xlink:href="#DejaVuSans-66"/>
      <use xlink:href="#DejaVuSans-6f" x="35.205078"/>
      <use xlink:href="#DejaVuSans-72" x="96.386719"/>
      <use xlink:href="#DejaVuSans-6b" x="137.5"/>
     </g>
    </g>
   </g>
  </g>
 </g>
 <defs>
  <clipPath id="p463242d169">
   <rect x="108" y="43.2" width="669.6" height="277.2"/>
  </clipPath>
 </defs>
</svg>
