<?xml version="1.0" encoding="utf-8" standalone="no"?>
<!DOCTYPE svg PUBLIC "-//W3C//DTD SVG 1.1//EN"
  "http://www.w3.org/Graphics/SVG/1.1/DTD/svg11.dtd">
<svg xmlns:xlink="http://www.w3.org/1999/xlink" width="864pt" height="360pt" viewBox="0 0 864 360" xmlns="http://www.w3.org/2000/svg" version="1.1">
 <metadata>
  <rdf:RDF xmlns:dc="http://purl.org/dc/elements/1.1/" xmlns:cc="http://creativecommons.org/ns#" xmlns:rdf="http://www.w3.org/1999/02/22-rdf-syntax-ns#">
   <cc:Work>
    <dc:type rdf:resource="http://purl.org/dc/dcmitype/StillImage"/>
    <dc:date>2022-06-27T20:27:59.852517</dc:date>
    <dc:format>image/svg+xml</dc:format>
    <dc:creator>
     <cc:Agent>
      <dc:title>Matplotlib v3.5.2, https://matplotlib.org/</dc:title>
     </cc:Agent>
    </dc:creator>
   </cc:Work>
  </rdf:RDF>
 </metadata>
 <defs>
  <style type="text/css">*{stroke-linejoin: round; stroke-linecap: butt}</style>
 </defs>
 <g id="figure_1">
  <g id="patch_1">
   <path d="M 0 360 
L 864 360 
L 864 0 
L 0 0 
L 0 360 
z
" style="fill: none; opacity: 0"/>
  </g>
  <g id="axes_1">
   <g id="patch_2">
    <path d="M 108 320.4 
L 777.6 320.4 
L 777.6 43.2 
L 108 43.2 
L 108 320.4 
z
" style="fill: none; opacity: 0"/>
   </g>
   <g id="matplotlib.axis_1">
    <g id="xtick_1">
     <g id="line2d_1">
      <path d="M 208.674126 320.4 
L 208.674126 43.2 
" clip-path="url(#pf3e809db5e)" style="fill: none; stroke-dasharray: 5.12,1.28,0.8,1.28; stroke-dashoffset: 0; stroke: #b0b0b0; stroke-width: 0.8"/>
     </g>
     <g id="line2d_2">
      <defs>
       <path id="m16cadde078" d="M 0 0 
L 0 3.5 
" style="stroke: #a9a9a9; stroke-width: 0.8"/>
      </defs>
      <g>
       <use xlink:href="#m16cadde078" x="208.674126" y="320.4" style="fill: #a9a9a9; stroke: #a9a9a9; stroke-width: 0.8"/>
      </g>
     </g>
     <g id="text_1">
      <!-- 2021-09 -->
      <g style="fill: #a9a9a9" transform="translate(187.78272 334.998438)scale(0.1 -0.1)">
       <defs>
        <path id="DejaVuSans-32" d="M 1228 531 
L 3431 531 
L 3431 0 
L 469 0 
L 469 531 
Q 828 903 1448 1529 
Q 2069 2156 2228 2338 
Q 2531 2678 2651 2914 
Q 2772 3150 2772 3378 
Q 2772 3750 2511 3984 
Q 2250 4219 1831 4219 
Q 1534 4219 1204 4116 
Q 875 4013 500 3803 
L 500 4441 
Q 881 4594 1212 4672 
Q 1544 4750 1819 4750 
Q 2544 4750 2975 4387 
Q 3406 4025 3406 3419 
Q 3406 3131 3298 2873 
Q 3191 2616 2906 2266 
Q 2828 2175 2409 1742 
Q 1991 1309 1228 531 
z
" transform="scale(0.015625)"/>
        <path id="DejaVuSans-30" d="M 2034 4250 
Q 1547 4250 1301 3770 
Q 1056 3291 1056 2328 
Q 1056 1369 1301 889 
Q 1547 409 2034 409 
Q 2525 409 2770 889 
Q 3016 1369 3016 2328 
Q 3016 3291 2770 3770 
Q 2525 4250 2034 4250 
z
M 2034 4750 
Q 2819 4750 3233 4129 
Q 3647 3509 3647 2328 
Q 3647 1150 3233 529 
Q 2819 -91 2034 -91 
Q 1250 -91 836 529 
Q 422 1150 422 2328 
Q 422 3509 836 4129 
Q 1250 4750 2034 4750 
z
" transform="scale(0.015625)"/>
        <path id="DejaVuSans-31" d="M 794 531 
L 1825 531 
L 1825 4091 
L 703 3866 
L 703 4441 
L 1819 4666 
L 2450 4666 
L 2450 531 
L 3481 531 
L 3481 0 
L 794 0 
L 794 531 
z
" transform="scale(0.015625)"/>
        <path id="DejaVuSans-2d" d="M 313 2009 
L 1997 2009 
L 1997 1497 
L 313 1497 
L 313 2009 
z
" transform="scale(0.015625)"/>
        <path id="DejaVuSans-39" d="M 703 97 
L 703 672 
Q 941 559 1184 500 
Q 1428 441 1663 441 
Q 2288 441 2617 861 
Q 2947 1281 2994 2138 
Q 2813 1869 2534 1725 
Q 2256 1581 1919 1581 
Q 1219 1581 811 2004 
Q 403 2428 403 3163 
Q 403 3881 828 4315 
Q 1253 4750 1959 4750 
Q 2769 4750 3195 4129 
Q 3622 3509 3622 2328 
Q 3622 1225 3098 567 
Q 2575 -91 1691 -91 
Q 1453 -91 1209 -44 
Q 966 3 703 97 
z
M 1959 2075 
Q 2384 2075 2632 2365 
Q 2881 2656 2881 3163 
Q 2881 3666 2632 3958 
Q 2384 4250 1959 4250 
Q 1534 4250 1286 3958 
Q 1038 3666 1038 3163 
Q 1038 2656 1286 2365 
Q 1534 2075 1959 2075 
z
" transform="scale(0.015625)"/>
       </defs>
       <use xlink:href="#DejaVuSans-32"/>
       <use xlink:href="#DejaVuSans-30" x="63.623047"/>
       <use xlink:href="#DejaVuSans-32" x="127.246094"/>
       <use xlink:href="#DejaVuSans-31" x="190.869141"/>
       <use xlink:href="#DejaVuSans-2d" x="254.492188"/>
       <use xlink:href="#DejaVuSans-30" x="290.576172"/>
       <use xlink:href="#DejaVuSans-39" x="354.199219"/>
      </g>
     </g>
    </g>
    <g id="xtick_2">
     <g id="line2d_3">
      <path d="M 318.53319 320.4 
L 318.53319 43.2 
" clip-path="url(#pf3e809db5e)" style="fill: none; stroke-dasharray: 5.12,1.28,0.8,1.28; stroke-dashoffset: 0; stroke: #b0b0b0; stroke-width: 0.8"/>
     </g>
     <g id="line2d_4">
      <g>
       <use xlink:href="#m16cadde078" x="318.53319" y="320.4" style="fill: #a9a9a9; stroke: #a9a9a9; stroke-width: 0.8"/>
      </g>
     </g>
     <g id="text_2">
      <!-- 2021-11 -->
      <g style="fill: #a9a9a9" transform="translate(297.641784 334.998438)scale(0.1 -0.1)">
       <use xlink:href="#DejaVuSans-32"/>
       <use xlink:href="#DejaVuSans-30" x="63.623047"/>
       <use xlink:href="#DejaVuSans-32" x="127.246094"/>
       <use xlink:href="#DejaVuSans-31" x="190.869141"/>
       <use xlink:href="#DejaVuSans-2d" x="254.492188"/>
       <use xlink:href="#DejaVuSans-31" x="290.576172"/>
       <use xlink:href="#DejaVuSans-31" x="354.199219"/>
      </g>
     </g>
    </g>
    <g id="xtick_3">
     <g id="line2d_5">
      <path d="M 428.392254 320.4 
L 428.392254 43.2 
" clip-path="url(#pf3e809db5e)" style="fill: none; stroke-dasharray: 5.12,1.28,0.8,1.28; stroke-dashoffset: 0; stroke: #b0b0b0; stroke-width: 0.8"/>
     </g>
     <g id="line2d_6">
      <g>
       <use xlink:href="#m16cadde078" x="428.392254" y="320.4" style="fill: #a9a9a9; stroke: #a9a9a9; stroke-width: 0.8"/>
      </g>
     </g>
     <g id="text_3">
      <!-- 2022-01 -->
      <g style="fill: #a9a9a9" transform="translate(407.500848 334.998438)scale(0.1 -0.1)">
       <use xlink:href="#DejaVuSans-32"/>
       <use xlink:href="#DejaVuSans-30" x="63.623047"/>
       <use xlink:href="#DejaVuSans-32" x="127.246094"/>
       <use xlink:href="#DejaVuSans-32" x="190.869141"/>
       <use xlink:href="#DejaVuSans-2d" x="254.492188"/>
       <use xlink:href="#DejaVuSans-30" x="290.576172"/>
       <use xlink:href="#DejaVuSans-31" x="354.199219"/>
      </g>
     </g>
    </g>
    <g id="xtick_4">
     <g id="line2d_7">
      <path d="M 534.649381 320.4 
L 534.649381 43.2 
" clip-path="url(#pf3e809db5e)" style="fill: none; stroke-dasharray: 5.12,1.28,0.8,1.28; stroke-dashoffset: 0; stroke: #b0b0b0; stroke-width: 0.8"/>
     </g>
     <g id="line2d_8">
      <g>
       <use xlink:href="#m16cadde078" x="534.649381" y="320.4" style="fill: #a9a9a9; stroke: #a9a9a9; stroke-width: 0.8"/>
      </g>
     </g>
     <g id="text_4">
      <!-- 2022-03 -->
      <g style="fill: #a9a9a9" transform="translate(513.757975 334.998438)scale(0.1 -0.1)">
       <defs>
        <path id="DejaVuSans-33" d="M 2597 2516 
Q 3050 2419 3304 2112 
Q 3559 1806 3559 1356 
Q 3559 666 3084 287 
Q 2609 -91 1734 -91 
Q 1441 -91 1130 -33 
Q 819 25 488 141 
L 488 750 
Q 750 597 1062 519 
Q 1375 441 1716 441 
Q 2309 441 2620 675 
Q 2931 909 2931 1356 
Q 2931 1769 2642 2001 
Q 2353 2234 1838 2234 
L 1294 2234 
L 1294 2753 
L 1863 2753 
Q 2328 2753 2575 2939 
Q 2822 3125 2822 3475 
Q 2822 3834 2567 4026 
Q 2313 4219 1838 4219 
Q 1578 4219 1281 4162 
Q 984 4106 628 3988 
L 628 4550 
Q 988 4650 1302 4700 
Q 1616 4750 1894 4750 
Q 2613 4750 3031 4423 
Q 3450 4097 3450 3541 
Q 3450 3153 3228 2886 
Q 3006 2619 2597 2516 
z
" transform="scale(0.015625)"/>
       </defs>
       <use xlink:href="#DejaVuSans-32"/>
       <use xlink:href="#DejaVuSans-30" x="63.623047"/>
       <use xlink:href="#DejaVuSans-32" x="127.246094"/>
       <use xlink:href="#DejaVuSans-32" x="190.869141"/>
       <use xlink:href="#DejaVuSans-2d" x="254.492188"/>
       <use xlink:href="#DejaVuSans-30" x="290.576172"/>
       <use xlink:href="#DejaVuSans-33" x="354.199219"/>
      </g>
     </g>
    </g>
    <g id="xtick_5">
     <g id="line2d_9">
      <path d="M 644.508445 320.4 
L 644.508445 43.2 
" clip-path="url(#pf3e809db5e)" style="fill: none; stroke-dasharray: 5.12,1.28,0.8,1.28; stroke-dashoffset: 0; stroke: #b0b0b0; stroke-width: 0.8"/>
     </g>
     <g id="line2d_10">
      <g>
       <use xlink:href="#m16cadde078" x="644.508445" y="320.4" style="fill: #a9a9a9; stroke: #a9a9a9; stroke-width: 0.8"/>
      </g>
     </g>
     <g id="text_5">
      <!-- 2022-05 -->
      <g style="fill: #a9a9a9" transform="translate(623.617039 334.998438)scale(0.1 -0.1)">
       <defs>
        <path id="DejaVuSans-35" d="M 691 4666 
L 3169 4666 
L 3169 4134 
L 1269 4134 
L 1269 2991 
Q 1406 3038 1543 3061 
Q 1681 3084 1819 3084 
Q 2600 3084 3056 2656 
Q 3513 2228 3513 1497 
Q 3513 744 3044 326 
Q 2575 -91 1722 -91 
Q 1428 -91 1123 -41 
Q 819 9 494 109 
L 494 744 
Q 775 591 1075 516 
Q 1375 441 1709 441 
Q 2250 441 2565 725 
Q 2881 1009 2881 1497 
Q 2881 1984 2565 2268 
Q 2250 2553 1709 2553 
Q 1456 2553 1204 2497 
Q 953 2441 691 2322 
L 691 4666 
z
" transform="scale(0.015625)"/>
       </defs>
       <use xlink:href="#DejaVuSans-32"/>
       <use xlink:href="#DejaVuSans-30" x="63.623047"/>
       <use xlink:href="#DejaVuSans-32" x="127.246094"/>
       <use xlink:href="#DejaVuSans-32" x="190.869141"/>
       <use xlink:href="#DejaVuSans-2d" x="254.492188"/>
       <use xlink:href="#DejaVuSans-30" x="290.576172"/>
       <use xlink:href="#DejaVuSans-35" x="354.199219"/>
      </g>
     </g>
    </g>
    <g id="xtick_6">
     <g id="line2d_11">
      <path d="M 754.367509 320.4 
L 754.367509 43.2 
" clip-path="url(#pf3e809db5e)" style="fill: none; stroke-dasharray: 5.12,1.28,0.8,1.28; stroke-dashoffset: 0; stroke: #b0b0b0; stroke-width: 0.8"/>
     </g>
     <g id="line2d_12">
      <g>
       <use xlink:href="#m16cadde078" x="754.367509" y="320.4" style="fill: #a9a9a9; stroke: #a9a9a9; stroke-width: 0.8"/>
      </g>
     </g>
     <g id="text_6">
      <!-- 2022-07 -->
      <g style="fill: #a9a9a9" transform="translate(733.476103 334.998438)scale(0.1 -0.1)">
       <defs>
        <path id="DejaVuSans-37" d="M 525 4666 
L 3525 4666 
L 3525 4397 
L 1831 0 
L 1172 0 
L 2766 4134 
L 525 4134 
L 525 4666 
z
" transform="scale(0.015625)"/>
       </defs>
       <use xlink:href="#DejaVuSans-32"/>
       <use xlink:href="#DejaVuSans-30" x="63.623047"/>
       <use xlink:href="#DejaVuSans-32" x="127.246094"/>
       <use xlink:href="#DejaVuSans-32" x="190.869141"/>
       <use xlink:href="#DejaVuSans-2d" x="254.492188"/>
       <use xlink:href="#DejaVuSans-30" x="290.576172"/>
       <use xlink:href="#DejaVuSans-37" x="354.199219"/>
      </g>
     </g>
    </g>
   </g>
   <g id="matplotlib.axis_2">
    <g id="ytick_1">
     <g id="line2d_13">
      <path d="M 108 307.915121 
L 777.6 307.915121 
" clip-path="url(#pf3e809db5e)" style="fill: none; stroke-dasharray: 5.12,1.28,0.8,1.28; stroke-dashoffset: 0; stroke: #b0b0b0; stroke-width: 0.8"/>
     </g>
     <g id="line2d_14">
      <defs>
       <path id="m50f8bedfce" d="M 0 0 
L -3.5 0 
" style="stroke: #a9a9a9; stroke-width: 0.8"/>
      </defs>
      <g>
       <use xlink:href="#m50f8bedfce" x="108" y="307.915121" style="fill: #a9a9a9; stroke: #a9a9a9; stroke-width: 0.8"/>
      </g>
     </g>
     <g id="text_7">
      <!-- 0 -->
      <g style="fill: #a9a9a9" transform="translate(94.6375 311.71434)scale(0.1 -0.1)">
       <use xlink:href="#DejaVuSans-30"/>
      </g>
     </g>
    </g>
    <g id="ytick_2">
     <g id="line2d_15">
      <path d="M 108 279.134856 
L 777.6 279.134856 
" clip-path="url(#pf3e809db5e)" style="fill: none; stroke-dasharray: 5.12,1.28,0.8,1.28; stroke-dashoffset: 0; stroke: #b0b0b0; stroke-width: 0.8"/>
     </g>
     <g id="line2d_16">
      <g>
       <use xlink:href="#m50f8bedfce" x="108" y="279.134856" style="fill: #a9a9a9; stroke: #a9a9a9; stroke-width: 0.8"/>
      </g>
     </g>
     <g id="text_8">
      <!-- 250 -->
      <g style="fill: #a9a9a9" transform="translate(81.9125 282.934075)scale(0.1 -0.1)">
       <use xlink:href="#DejaVuSans-32"/>
       <use xlink:href="#DejaVuSans-35" x="63.623047"/>
       <use xlink:href="#DejaVuSans-30" x="127.246094"/>
      </g>
     </g>
    </g>
    <g id="ytick_3">
     <g id="line2d_17">
      <path d="M 108 250.354591 
L 777.6 250.354591 
" clip-path="url(#pf3e809db5e)" style="fill: none; stroke-dasharray: 5.12,1.28,0.8,1.28; stroke-dashoffset: 0; stroke: #b0b0b0; stroke-width: 0.8"/>
     </g>
     <g id="line2d_18">
      <g>
       <use xlink:href="#m50f8bedfce" x="108" y="250.354591" style="fill: #a9a9a9; stroke: #a9a9a9; stroke-width: 0.8"/>
      </g>
     </g>
     <g id="text_9">
      <!-- 500 -->
      <g style="fill: #a9a9a9" transform="translate(81.9125 254.15381)scale(0.1 -0.1)">
       <use xlink:href="#DejaVuSans-35"/>
       <use xlink:href="#DejaVuSans-30" x="63.623047"/>
       <use xlink:href="#DejaVuSans-30" x="127.246094"/>
      </g>
     </g>
    </g>
    <g id="ytick_4">
     <g id="line2d_19">
      <path d="M 108 221.574326 
L 777.6 221.574326 
" clip-path="url(#pf3e809db5e)" style="fill: none; stroke-dasharray: 5.12,1.28,0.8,1.28; stroke-dashoffset: 0; stroke: #b0b0b0; stroke-width: 0.8"/>
     </g>
     <g id="line2d_20">
      <g>
       <use xlink:href="#m50f8bedfce" x="108" y="221.574326" style="fill: #a9a9a9; stroke: #a9a9a9; stroke-width: 0.8"/>
      </g>
     </g>
     <g id="text_10">
      <!-- 750 -->
      <g style="fill: #a9a9a9" transform="translate(81.9125 225.373545)scale(0.1 -0.1)">
       <use xlink:href="#DejaVuSans-37"/>
       <use xlink:href="#DejaVuSans-35" x="63.623047"/>
       <use xlink:href="#DejaVuSans-30" x="127.246094"/>
      </g>
     </g>
    </g>
    <g id="ytick_5">
     <g id="line2d_21">
      <path d="M 108 192.794061 
L 777.6 192.794061 
" clip-path="url(#pf3e809db5e)" style="fill: none; stroke-dasharray: 5.12,1.28,0.8,1.28; stroke-dashoffset: 0; stroke: #b0b0b0; stroke-width: 0.8"/>
     </g>
     <g id="line2d_22">
      <g>
       <use xlink:href="#m50f8bedfce" x="108" y="192.794061" style="fill: #a9a9a9; stroke: #a9a9a9; stroke-width: 0.8"/>
      </g>
     </g>
     <g id="text_11">
      <!-- 1000 -->
      <g style="fill: #a9a9a9" transform="translate(75.55 196.59328)scale(0.1 -0.1)">
       <use xlink:href="#DejaVuSans-31"/>
       <use xlink:href="#DejaVuSans-30" x="63.623047"/>
       <use xlink:href="#DejaVuSans-30" x="127.246094"/>
       <use xlink:href="#DejaVuSans-30" x="190.869141"/>
      </g>
     </g>
    </g>
    <g id="ytick_6">
     <g id="line2d_23">
      <path d="M 108 164.013796 
L 777.6 164.013796 
" clip-path="url(#pf3e809db5e)" style="fill: none; stroke-dasharray: 5.12,1.28,0.8,1.28; stroke-dashoffset: 0; stroke: #b0b0b0; stroke-width: 0.8"/>
     </g>
     <g id="line2d_24">
      <g>
       <use xlink:href="#m50f8bedfce" x="108" y="164.013796" style="fill: #a9a9a9; stroke: #a9a9a9; stroke-width: 0.8"/>
      </g>
     </g>
     <g id="text_12">
      <!-- 1250 -->
      <g style="fill: #a9a9a9" transform="translate(75.55 167.813015)scale(0.1 -0.1)">
       <use xlink:href="#DejaVuSans-31"/>
       <use xlink:href="#DejaVuSans-32" x="63.623047"/>
       <use xlink:href="#DejaVuSans-35" x="127.246094"/>
       <use xlink:href="#DejaVuSans-30" x="190.869141"/>
      </g>
     </g>
    </g>
    <g id="ytick_7">
     <g id="line2d_25">
      <path d="M 108 135.233531 
L 777.6 135.233531 
" clip-path="url(#pf3e809db5e)" style="fill: none; stroke-dasharray: 5.12,1.28,0.8,1.28; stroke-dashoffset: 0; stroke: #b0b0b0; stroke-width: 0.8"/>
     </g>
     <g id="line2d_26">
      <g>
       <use xlink:href="#m50f8bedfce" x="108" y="135.233531" style="fill: #a9a9a9; stroke: #a9a9a9; stroke-width: 0.8"/>
      </g>
     </g>
     <g id="text_13">
      <!-- 1500 -->
      <g style="fill: #a9a9a9" transform="translate(75.55 139.03275)scale(0.1 -0.1)">
       <use xlink:href="#DejaVuSans-31"/>
       <use xlink:href="#DejaVuSans-35" x="63.623047"/>
       <use xlink:href="#DejaVuSans-30" x="127.246094"/>
       <use xlink:href="#DejaVuSans-30" x="190.869141"/>
      </g>
     </g>
    </g>
    <g id="ytick_8">
     <g id="line2d_27">
      <path d="M 108 106.453266 
L 777.6 106.453266 
" clip-path="url(#pf3e809db5e)" style="fill: none; stroke-dasharray: 5.12,1.28,0.8,1.28; stroke-dashoffset: 0; stroke: #b0b0b0; stroke-width: 0.8"/>
     </g>
     <g id="line2d_28">
      <g>
       <use xlink:href="#m50f8bedfce" x="108" y="106.453266" style="fill: #a9a9a9; stroke: #a9a9a9; stroke-width: 0.8"/>
      </g>
     </g>
     <g id="text_14">
      <!-- 1750 -->
      <g style="fill: #a9a9a9" transform="translate(75.55 110.252485)scale(0.1 -0.1)">
       <use xlink:href="#DejaVuSans-31"/>
       <use xlink:href="#DejaVuSans-37" x="63.623047"/>
       <use xlink:href="#DejaVuSans-35" x="127.246094"/>
       <use xlink:href="#DejaVuSans-30" x="190.869141"/>
      </g>
     </g>
    </g>
    <g id="ytick_9">
     <g id="line2d_29">
      <path d="M 108 77.673001 
L 777.6 77.673001 
" clip-path="url(#pf3e809db5e)" style="fill: none; stroke-dasharray: 5.12,1.28,0.8,1.28; stroke-dashoffset: 0; stroke: #b0b0b0; stroke-width: 0.8"/>
     </g>
     <g id="line2d_30">
      <g>
       <use xlink:href="#m50f8bedfce" x="108" y="77.673001" style="fill: #a9a9a9; stroke: #a9a9a9; stroke-width: 0.8"/>
      </g>
     </g>
     <g id="text_15">
      <!-- 2000 -->
      <g style="fill: #a9a9a9" transform="translate(75.55 81.47222)scale(0.1 -0.1)">
       <use xlink:href="#DejaVuSans-32"/>
       <use xlink:href="#DejaVuSans-30" x="63.623047"/>
       <use xlink:href="#DejaVuSans-30" x="127.246094"/>
       <use xlink:href="#DejaVuSans-30" x="190.869141"/>
      </g>
     </g>
    </g>
    <g id="ytick_10">
     <g id="line2d_31">
      <path d="M 108 48.892736 
L 777.6 48.892736 
" clip-path="url(#pf3e809db5e)" style="fill: none; stroke-dasharray: 5.12,1.28,0.8,1.28; stroke-dashoffset: 0; stroke: #b0b0b0; stroke-width: 0.8"/>
     </g>
     <g id="line2d_32">
      <g>
       <use xlink:href="#m50f8bedfce" x="108" y="48.892736" style="fill: #a9a9a9; stroke: #a9a9a9; stroke-width: 0.8"/>
      </g>
     </g>
     <g id="text_16">
      <!-- 2250 -->
      <g style="fill: #a9a9a9" transform="translate(75.55 52.691955)scale(0.1 -0.1)">
       <use xlink:href="#DejaVuSans-32"/>
       <use xlink:href="#DejaVuSans-32" x="63.623047"/>
       <use xlink:href="#DejaVuSans-35" x="127.246094"/>
       <use xlink:href="#DejaVuSans-30" x="190.869141"/>
      </g>
     </g>
    </g>
   </g>
   <g id="line2d_33">
    <path d="M 138.436364 307.454637 
L 142.0383 307.224395 
L 147.441205 306.533668 
L 149.242173 306.533668 
L 151.043141 305.842942 
L 154.645078 305.6127 
L 158.247015 304.921974 
L 160.047983 304.691731 
L 161.848951 304.231247 
L 163.649919 304.001005 
L 165.450888 303.540521 
L 167.251856 303.195158 
L 169.052824 303.080037 
L 170.853792 302.849794 
L 172.654761 302.504431 
L 178.057665 302.159068 
L 179.858634 301.2381 
L 181.659602 300.777615 
L 183.46057 298.705436 
L 185.261538 297.554226 
L 187.062507 293.524989 
L 188.863475 293.294746 
L 190.664443 291.913294 
L 192.465412 291.222567 
L 194.26638 290.186478 
L 199.669285 285.926999 
L 201.470253 285.00603 
L 205.072189 283.509456 
L 206.873158 282.243125 
L 208.674126 281.552398 
L 212.276062 279.365098 
L 214.077031 278.674372 
L 215.877999 275.796345 
L 217.678967 274.414893 
L 219.479935 273.378803 
L 221.280904 272.572956 
L 226.683808 271.882229 
L 230.285745 271.191503 
L 232.086713 270.961261 
L 233.887682 270.615898 
L 237.489618 270.385656 
L 239.290586 269.925171 
L 241.091555 269.004203 
L 244.693491 268.773961 
L 246.494459 268.773961 
L 248.295428 268.428598 
L 251.897364 267.968113 
L 253.698332 267.852992 
L 255.499301 267.162266 
L 257.300269 266.816903 
L 259.101237 266.356418 
L 260.902205 266.011055 
L 262.703174 265.780813 
L 264.504142 265.43545 
L 266.30511 265.320329 
L 268.106079 265.090087 
L 269.907047 264.629603 
L 271.708015 264.39936 
L 273.508983 264.284239 
L 275.309952 263.938876 
L 277.11092 263.017908 
L 278.911888 262.787666 
L 282.513825 261.521334 
L 284.314793 261.291092 
L 286.115761 261.175971 
L 287.916729 260.600365 
L 289.717698 260.255002 
L 291.518666 260.139881 
L 293.319634 259.679397 
L 295.120602 259.449155 
L 298.722539 258.297944 
L 300.523507 258.067702 
L 302.324476 258.067702 
L 304.125444 257.83746 
L 305.926412 257.722339 
L 307.72738 257.492097 
L 309.528349 256.916492 
L 311.329317 256.80137 
L 314.931253 255.765281 
L 316.732222 255.304797 
L 318.53319 255.074555 
L 322.135126 254.844312 
L 323.936095 254.498949 
L 325.737063 254.268707 
L 327.538031 253.808223 
L 329.338999 253.117497 
L 331.139968 250.815075 
L 332.940936 250.124349 
L 334.741904 249.203381 
L 336.542873 248.973138 
L 338.343841 248.512654 
L 340.144809 248.282412 
L 343.746746 246.785838 
L 345.547714 246.670717 
L 349.14965 245.749749 
L 352.751587 244.713659 
L 354.552555 244.253175 
L 356.353523 244.253175 
L 359.95546 243.792691 
L 361.756428 243.101964 
L 363.557396 242.64148 
L 367.159333 241.49027 
L 368.960301 241.144906 
L 370.761269 241.029785 
L 374.363206 239.533212 
L 376.164174 239.302969 
L 377.965143 238.497122 
L 379.766111 238.26688 
L 383.368047 238.036638 
L 385.169016 237.691275 
L 386.969984 237.23079 
L 388.770952 237.115669 
L 390.57192 236.885427 
L 394.173857 236.194701 
L 395.974825 235.964459 
L 397.775793 235.503974 
L 399.576762 234.928369 
L 401.37773 234.698127 
L 403.178698 233.89228 
L 404.979666 233.316674 
L 406.780635 232.280585 
L 408.581603 231.820101 
L 410.382571 231.589858 
L 413.984508 230.438648 
L 417.586444 228.48159 
L 419.387413 227.215258 
L 421.188381 226.985016 
L 422.989349 226.409411 
L 424.790317 226.179169 
L 426.591286 225.718684 
L 428.392254 225.488442 
L 430.193222 224.682595 
L 433.795159 223.991868 
L 437.397095 222.265053 
L 439.198063 221.804568 
L 440.999032 221.574326 
L 442.8 220.8836 
L 444.600968 220.538237 
L 446.401937 220.077752 
L 448.202905 219.732389 
L 450.003873 219.502147 
L 453.60581 217.890452 
L 455.406778 217.545089 
L 457.207746 216.739242 
L 459.008714 216.509 
L 460.809683 215.703152 
L 462.610651 215.242668 
L 464.411619 215.012426 
L 466.212587 214.897305 
L 469.814524 213.630973 
L 471.615492 213.400731 
L 473.41646 213.400731 
L 475.217429 212.594884 
L 477.018397 212.24952 
L 478.819365 212.019278 
L 480.620334 211.328552 
L 482.421302 211.328552 
L 484.22227 211.213431 
L 486.023238 210.983189 
L 487.824207 210.868068 
L 489.625175 210.637825 
L 491.426143 210.292462 
L 495.02808 208.565646 
L 498.630016 206.953952 
L 500.430984 206.493467 
L 502.231953 205.342257 
L 504.032921 204.766651 
L 507.634857 203.154957 
L 509.435826 202.809593 
L 511.236794 202.003746 
L 513.037762 201.428141 
L 514.838731 200.161809 
L 516.639699 199.240841 
L 518.440667 197.398904 
L 520.241635 194.405756 
L 522.042604 191.873093 
L 523.843572 191.297487 
L 525.64454 191.182366 
L 529.246477 188.534582 
L 531.047445 188.074098 
L 532.848413 187.038008 
L 534.649381 186.692645 
L 536.45035 185.08095 
L 538.251318 184.620466 
L 543.654223 182.202924 
L 545.455191 180.130745 
L 547.256159 177.252718 
L 549.057127 176.216629 
L 550.858096 173.338602 
L 552.659064 171.611786 
L 554.460032 170.690818 
L 556.261001 170.115212 
L 558.061969 168.848881 
L 561.663905 167.122065 
L 563.464874 165.855733 
L 565.265842 164.359159 
L 567.06681 163.092828 
L 568.867778 162.056738 
L 570.668747 159.408954 
L 572.469715 155.149475 
L 574.270683 152.50169 
L 576.071651 151.005116 
L 577.87262 150.084148 
L 581.474556 146.630516 
L 585.076493 143.75249 
L 588.678429 140.874463 
L 590.479398 139.262768 
L 592.280366 136.730105 
L 594.081334 135.003289 
L 595.882302 133.621836 
L 599.484239 131.204294 
L 604.887144 127.059936 
L 606.688112 126.599452 
L 612.091017 123.721425 
L 615.692953 121.764367 
L 617.493921 120.95852 
L 621.095858 117.850251 
L 622.896826 115.54783 
L 626.498763 113.130288 
L 628.299731 112.669804 
L 630.100699 111.748835 
L 631.901668 110.482503 
L 635.503604 108.640566 
L 637.304572 108.295203 
L 642.707477 104.956693 
L 644.508445 103.229877 
L 646.309414 101.963545 
L 648.110382 101.38794 
L 649.91135 100.121608 
L 651.712318 99.315761 
L 653.513287 98.049429 
L 655.314255 97.243582 
L 657.115223 96.092371 
L 658.916192 94.595797 
L 662.518128 93.329466 
L 664.319096 92.408497 
L 666.120065 91.832892 
L 667.921033 90.681681 
L 669.722001 90.221197 
L 684.129747 84.695386 
L 687.731684 84.00466 
L 689.532652 82.277844 
L 691.33362 80.896391 
L 693.134588 80.205665 
L 700.338462 76.061307 
L 702.13943 75.255459 
L 703.940398 74.679854 
L 705.741366 73.298401 
L 707.542335 72.607675 
L 712.945239 69.269164 
L 714.746208 68.923801 
L 716.547176 68.463317 
L 718.348144 68.117953 
L 721.950081 67.081864 
L 727.352985 64.088716 
L 729.153954 63.858474 
L 730.954922 63.167748 
L 732.75589 62.822385 
L 734.556859 62.016537 
L 736.357827 60.750206 
L 738.158795 59.253632 
L 739.959763 58.102421 
L 741.760732 57.757058 
L 743.5617 56.83609 
L 745.362668 56.375605 
L 747.163636 55.8 
L 747.163636 55.8 
" clip-path="url(#pf3e809db5e)" style="fill: none; stroke: #1f77b4; stroke-width: 1.5; stroke-linecap: square"/>
   </g>
   <g id="line2d_34">
    <path d="M 140.237332 307.8 
L 143.839268 307.8 
L 147.441205 307.339516 
L 156.446046 307.339516 
L 160.047983 307.109274 
L 161.848951 307.109274 
L 163.649919 306.994153 
L 167.251856 306.994153 
L 170.853792 306.76391 
L 178.057665 306.76391 
L 179.858634 306.303426 
L 181.659602 306.303426 
L 183.46057 306.073184 
L 185.261538 306.073184 
L 187.062507 305.842942 
L 188.863475 305.727821 
L 194.26638 305.037095 
L 199.669285 304.691731 
L 201.470253 304.691731 
L 205.072189 304.461489 
L 206.873158 304.231247 
L 210.475094 304.231247 
L 212.276062 303.885884 
L 214.077031 303.885884 
L 215.877999 303.770763 
L 217.678967 303.770763 
L 221.280904 303.310279 
L 228.484777 303.310279 
L 230.285745 303.080037 
L 237.489618 303.080037 
L 241.091555 302.849794 
L 242.892523 302.849794 
L 244.693491 302.734673 
L 255.499301 302.734673 
L 257.300269 302.619552 
L 260.902205 302.619552 
L 262.703174 302.504431 
L 268.106079 302.504431 
L 269.907047 302.38931 
L 271.708015 302.38931 
L 273.508983 302.274189 
L 275.309952 302.274189 
L 277.11092 302.159068 
L 284.314793 302.159068 
L 286.115761 301.928826 
L 287.916729 301.928826 
L 289.717698 301.813705 
L 291.518666 301.813705 
L 295.120602 301.583463 
L 296.921571 301.583463 
L 298.722539 301.468342 
L 305.926412 301.468342 
L 307.72738 301.353221 
L 311.329317 301.353221 
L 313.130285 301.2381 
L 318.53319 301.2381 
L 320.334158 301.122979 
L 322.135126 301.122979 
L 323.936095 300.892736 
L 325.737063 300.777615 
L 327.538031 300.432252 
L 329.338999 300.432252 
L 331.139968 300.317131 
L 336.542873 300.317131 
L 338.343841 300.20201 
L 340.144809 299.971768 
L 343.746746 299.971768 
L 345.547714 299.856647 
L 347.348682 299.856647 
L 349.14965 299.741526 
L 354.552555 299.741526 
L 358.154492 299.511284 
L 361.756428 299.511284 
L 363.557396 299.396163 
L 365.358365 299.165921 
L 367.159333 299.050799 
L 368.960301 298.820557 
L 370.761269 298.705436 
L 372.562238 298.705436 
L 374.363206 298.590315 
L 376.164174 298.590315 
L 377.965143 298.475194 
L 379.766111 298.475194 
L 381.567079 298.360073 
L 386.969984 298.360073 
L 388.770952 298.129831 
L 394.173857 298.129831 
L 395.974825 297.899589 
L 397.775793 297.784468 
L 399.576762 297.554226 
L 401.37773 297.554226 
L 403.178698 297.439105 
L 404.979666 297.439105 
L 406.780635 297.323984 
L 412.18354 297.323984 
L 413.984508 297.093741 
L 415.785476 296.748378 
L 421.188381 296.403015 
L 422.989349 296.057652 
L 424.790317 296.057652 
L 426.591286 295.942531 
L 430.193222 295.942531 
L 431.99419 295.82741 
L 433.795159 295.597168 
L 435.596127 295.482047 
L 437.397095 295.251804 
L 442.8 294.906441 
L 444.600968 294.906441 
L 448.202905 294.676199 
L 451.804841 294.676199 
L 457.207746 294.330836 
L 460.809683 294.330836 
L 462.610651 294.100594 
L 466.212587 293.870352 
L 469.814524 293.870352 
L 471.615492 293.64011 
L 473.41646 293.64011 
L 477.018397 293.409868 
L 478.819365 293.179625 
L 482.421302 293.179625 
L 484.22227 293.064504 
L 486.023238 293.064504 
L 491.426143 292.719141 
L 496.829048 292.719141 
L 500.430984 292.488899 
L 507.634857 292.488899 
L 509.435826 292.373778 
L 511.236794 292.373778 
L 513.037762 292.143536 
L 514.838731 291.798173 
L 518.440667 291.567931 
L 520.241635 291.567931 
L 522.042604 291.337688 
L 523.843572 291.222567 
L 525.64454 291.222567 
L 529.246477 290.992325 
L 531.047445 290.992325 
L 532.848413 290.646962 
L 534.649381 290.531841 
L 536.45035 290.301599 
L 538.251318 289.841115 
L 541.853254 289.610873 
L 543.654223 289.150388 
L 545.455191 289.035267 
L 547.256159 288.805025 
L 549.057127 288.689904 
L 550.858096 288.22942 
L 552.659064 287.884057 
L 554.460032 287.768936 
L 556.261001 287.768936 
L 558.061969 287.653815 
L 559.862937 287.653815 
L 561.663905 287.423572 
L 563.464874 287.423572 
L 565.265842 287.19333 
L 568.867778 286.502604 
L 570.668747 286.04212 
L 574.270683 285.581635 
L 576.071651 285.581635 
L 579.673588 285.121151 
L 581.474556 285.121151 
L 586.877461 284.775788 
L 590.479398 284.315304 
L 594.081334 284.085062 
L 595.882302 284.085062 
L 597.683271 283.969941 
L 599.484239 283.739698 
L 601.285207 283.624577 
L 604.887144 283.624577 
L 606.688112 283.394335 
L 608.48908 283.048972 
L 610.290048 282.933851 
L 612.091017 282.703609 
L 613.891985 282.703609 
L 615.692953 282.358246 
L 617.493921 282.128004 
L 619.29489 281.78264 
L 622.896826 281.552398 
L 628.299731 281.552398 
L 630.100699 281.091914 
L 631.901668 280.861672 
L 633.702636 280.861672 
L 637.304572 280.63143 
L 639.105541 280.63143 
L 640.906509 280.286067 
L 642.707477 280.170946 
L 644.508445 280.170946 
L 648.110382 279.710461 
L 649.91135 279.365098 
L 651.712318 278.904614 
L 653.513287 278.674372 
L 655.314255 278.674372 
L 658.916192 278.44413 
L 660.71716 278.213888 
L 662.518128 278.213888 
L 666.120065 277.983646 
L 669.722001 277.983646 
L 673.323938 277.753403 
L 675.124906 277.753403 
L 678.726842 277.292919 
L 680.527811 277.177798 
L 682.328779 277.177798 
L 685.930715 276.947556 
L 687.731684 276.717314 
L 693.134588 276.371951 
L 698.537493 276.371951 
L 700.338462 276.141709 
L 702.13943 276.026587 
L 705.741366 276.026587 
L 707.542335 275.681224 
L 709.343303 275.566103 
L 711.144271 275.335861 
L 712.945239 275.22074 
L 714.746208 275.22074 
L 716.547176 274.990498 
L 720.149112 274.990498 
L 721.950081 274.875377 
L 723.751049 274.530014 
L 727.352985 274.530014 
L 729.153954 274.299772 
L 730.954922 274.299772 
L 734.556859 274.069529 
L 736.357827 274.069529 
L 738.158795 273.724166 
L 741.760732 273.724166 
L 743.5617 273.609045 
L 747.163636 273.609045 
L 747.163636 273.609045 
" clip-path="url(#pf3e809db5e)" style="fill: none; stroke: #ff7f0e; stroke-width: 1.5; stroke-linecap: square"/>
   </g>
   <g id="patch_3">
    <path d="M 108 320.4 
L 108 43.2 
" style="fill: none; stroke: #a9a9a9; stroke-width: 0.8; stroke-linejoin: miter; stroke-linecap: square"/>
   </g>
   <g id="patch_4">
    <path d="M 777.6 320.4 
L 777.6 43.2 
" style="fill: none"/>
   </g>
   <g id="patch_5">
    <path d="M 108 320.4 
L 777.6 320.4 
" style="fill: none; stroke: #a9a9a9; stroke-width: 0.8; stroke-linejoin: miter; stroke-linecap: square"/>
   </g>
   <g id="patch_6">
    <path d="M 108 43.2 
L 777.6 43.2 
" style="fill: none"/>
   </g>
   <g id="text_17">
    <!-- get_subscribe history -->
    <g style="fill: #a9a9a9" transform="translate(378.6075 37.2)scale(0.12 -0.12)">
     <defs>
      <path id="DejaVuSans-67" d="M 2906 1791 
Q 2906 2416 2648 2759 
Q 2391 3103 1925 3103 
Q 1463 3103 1205 2759 
Q 947 2416 947 1791 
Q 947 1169 1205 825 
Q 1463 481 1925 481 
Q 2391 481 2648 825 
Q 2906 1169 2906 1791 
z
M 3481 434 
Q 3481 -459 3084 -895 
Q 2688 -1331 1869 -1331 
Q 1566 -1331 1297 -1286 
Q 1028 -1241 775 -1147 
L 775 -588 
Q 1028 -725 1275 -790 
Q 1522 -856 1778 -856 
Q 2344 -856 2625 -561 
Q 2906 -266 2906 331 
L 2906 616 
Q 2728 306 2450 153 
Q 2172 0 1784 0 
Q 1141 0 747 490 
Q 353 981 353 1791 
Q 353 2603 747 3093 
Q 1141 3584 1784 3584 
Q 2172 3584 2450 3431 
Q 2728 3278 2906 2969 
L 2906 3500 
L 3481 3500 
L 3481 434 
z
" transform="scale(0.015625)"/>
      <path id="DejaVuSans-65" d="M 3597 1894 
L 3597 1613 
L 953 1613 
Q 991 1019 1311 708 
Q 1631 397 2203 397 
Q 2534 397 2845 478 
Q 3156 559 3463 722 
L 3463 178 
Q 3153 47 2828 -22 
Q 2503 -91 2169 -91 
Q 1331 -91 842 396 
Q 353 884 353 1716 
Q 353 2575 817 3079 
Q 1281 3584 2069 3584 
Q 2775 3584 3186 3129 
Q 3597 2675 3597 1894 
z
M 3022 2063 
Q 3016 2534 2758 2815 
Q 2500 3097 2075 3097 
Q 1594 3097 1305 2825 
Q 1016 2553 972 2059 
L 3022 2063 
z
" transform="scale(0.015625)"/>
      <path id="DejaVuSans-74" d="M 1172 4494 
L 1172 3500 
L 2356 3500 
L 2356 3053 
L 1172 3053 
L 1172 1153 
Q 1172 725 1289 603 
Q 1406 481 1766 481 
L 2356 481 
L 2356 0 
L 1766 0 
Q 1100 0 847 248 
Q 594 497 594 1153 
L 594 3053 
L 172 3053 
L 172 3500 
L 594 3500 
L 594 4494 
L 1172 4494 
z
" transform="scale(0.015625)"/>
      <path id="DejaVuSans-5f" d="M 3263 -1063 
L 3263 -1509 
L -63 -1509 
L -63 -1063 
L 3263 -1063 
z
" transform="scale(0.015625)"/>
      <path id="DejaVuSans-73" d="M 2834 3397 
L 2834 2853 
Q 2591 2978 2328 3040 
Q 2066 3103 1784 3103 
Q 1356 3103 1142 2972 
Q 928 2841 928 2578 
Q 928 2378 1081 2264 
Q 1234 2150 1697 2047 
L 1894 2003 
Q 2506 1872 2764 1633 
Q 3022 1394 3022 966 
Q 3022 478 2636 193 
Q 2250 -91 1575 -91 
Q 1294 -91 989 -36 
Q 684 19 347 128 
L 347 722 
Q 666 556 975 473 
Q 1284 391 1588 391 
Q 1994 391 2212 530 
Q 2431 669 2431 922 
Q 2431 1156 2273 1281 
Q 2116 1406 1581 1522 
L 1381 1569 
Q 847 1681 609 1914 
Q 372 2147 372 2553 
Q 372 3047 722 3315 
Q 1072 3584 1716 3584 
Q 2034 3584 2315 3537 
Q 2597 3491 2834 3397 
z
" transform="scale(0.015625)"/>
      <path id="DejaVuSans-75" d="M 544 1381 
L 544 3500 
L 1119 3500 
L 1119 1403 
Q 1119 906 1312 657 
Q 1506 409 1894 409 
Q 2359 409 2629 706 
Q 2900 1003 2900 1516 
L 2900 3500 
L 3475 3500 
L 3475 0 
L 2900 0 
L 2900 538 
Q 2691 219 2414 64 
Q 2138 -91 1772 -91 
Q 1169 -91 856 284 
Q 544 659 544 1381 
z
M 1991 3584 
L 1991 3584 
z
" transform="scale(0.015625)"/>
      <path id="DejaVuSans-62" d="M 3116 1747 
Q 3116 2381 2855 2742 
Q 2594 3103 2138 3103 
Q 1681 3103 1420 2742 
Q 1159 2381 1159 1747 
Q 1159 1113 1420 752 
Q 1681 391 2138 391 
Q 2594 391 2855 752 
Q 3116 1113 3116 1747 
z
M 1159 2969 
Q 1341 3281 1617 3432 
Q 1894 3584 2278 3584 
Q 2916 3584 3314 3078 
Q 3713 2572 3713 1747 
Q 3713 922 3314 415 
Q 2916 -91 2278 -91 
Q 1894 -91 1617 61 
Q 1341 213 1159 525 
L 1159 0 
L 581 0 
L 581 4863 
L 1159 4863 
L 1159 2969 
z
" transform="scale(0.015625)"/>
      <path id="DejaVuSans-63" d="M 3122 3366 
L 3122 2828 
Q 2878 2963 2633 3030 
Q 2388 3097 2138 3097 
Q 1578 3097 1268 2742 
Q 959 2388 959 1747 
Q 959 1106 1268 751 
Q 1578 397 2138 397 
Q 2388 397 2633 464 
Q 2878 531 3122 666 
L 3122 134 
Q 2881 22 2623 -34 
Q 2366 -91 2075 -91 
Q 1284 -91 818 406 
Q 353 903 353 1747 
Q 353 2603 823 3093 
Q 1294 3584 2113 3584 
Q 2378 3584 2631 3529 
Q 2884 3475 3122 3366 
z
" transform="scale(0.015625)"/>
      <path id="DejaVuSans-72" d="M 2631 2963 
Q 2534 3019 2420 3045 
Q 2306 3072 2169 3072 
Q 1681 3072 1420 2755 
Q 1159 2438 1159 1844 
L 1159 0 
L 581 0 
L 581 3500 
L 1159 3500 
L 1159 2956 
Q 1341 3275 1631 3429 
Q 1922 3584 2338 3584 
Q 2397 3584 2469 3576 
Q 2541 3569 2628 3553 
L 2631 2963 
z
" transform="scale(0.015625)"/>
      <path id="DejaVuSans-69" d="M 603 3500 
L 1178 3500 
L 1178 0 
L 603 0 
L 603 3500 
z
M 603 4863 
L 1178 4863 
L 1178 4134 
L 603 4134 
L 603 4863 
z
" transform="scale(0.015625)"/>
      <path id="DejaVuSans-20" transform="scale(0.015625)"/>
      <path id="DejaVuSans-68" d="M 3513 2113 
L 3513 0 
L 2938 0 
L 2938 2094 
Q 2938 2591 2744 2837 
Q 2550 3084 2163 3084 
Q 1697 3084 1428 2787 
Q 1159 2491 1159 1978 
L 1159 0 
L 581 0 
L 581 4863 
L 1159 4863 
L 1159 2956 
Q 1366 3272 1645 3428 
Q 1925 3584 2291 3584 
Q 2894 3584 3203 3211 
Q 3513 2838 3513 2113 
z
" transform="scale(0.015625)"/>
      <path id="DejaVuSans-6f" d="M 1959 3097 
Q 1497 3097 1228 2736 
Q 959 2375 959 1747 
Q 959 1119 1226 758 
Q 1494 397 1959 397 
Q 2419 397 2687 759 
Q 2956 1122 2956 1747 
Q 2956 2369 2687 2733 
Q 2419 3097 1959 3097 
z
M 1959 3584 
Q 2709 3584 3137 3096 
Q 3566 2609 3566 1747 
Q 3566 888 3137 398 
Q 2709 -91 1959 -91 
Q 1206 -91 779 398 
Q 353 888 353 1747 
Q 353 2609 779 3096 
Q 1206 3584 1959 3584 
z
" transform="scale(0.015625)"/>
      <path id="DejaVuSans-79" d="M 2059 -325 
Q 1816 -950 1584 -1140 
Q 1353 -1331 966 -1331 
L 506 -1331 
L 506 -850 
L 844 -850 
Q 1081 -850 1212 -737 
Q 1344 -625 1503 -206 
L 1606 56 
L 191 3500 
L 800 3500 
L 1894 763 
L 2988 3500 
L 3597 3500 
L 2059 -325 
z
" transform="scale(0.015625)"/>
     </defs>
     <use xlink:href="#DejaVuSans-67"/>
     <use xlink:href="#DejaVuSans-65" x="63.476562"/>
     <use xlink:href="#DejaVuSans-74" x="125"/>
     <use xlink:href="#DejaVuSans-5f" x="164.208984"/>
     <use xlink:href="#DejaVuSans-73" x="214.208984"/>
     <use xlink:href="#DejaVuSans-75" x="266.308594"/>
     <use xlink:href="#DejaVuSans-62" x="329.6875"/>
     <use xlink:href="#DejaVuSans-73" x="393.164062"/>
     <use xlink:href="#DejaVuSans-63" x="445.263672"/>
     <use xlink:href="#DejaVuSans-72" x="500.244141"/>
     <use xlink:href="#DejaVuSans-69" x="541.357422"/>
     <use xlink:href="#DejaVuSans-62" x="569.140625"/>
     <use xlink:href="#DejaVuSans-65" x="632.617188"/>
     <use xlink:href="#DejaVuSans-20" x="694.140625"/>
     <use xlink:href="#DejaVuSans-68" x="725.927734"/>
     <use xlink:href="#DejaVuSans-69" x="789.306641"/>
     <use xlink:href="#DejaVuSans-73" x="817.089844"/>
     <use xlink:href="#DejaVuSans-74" x="869.189453"/>
     <use xlink:href="#DejaVuSans-6f" x="908.398438"/>
     <use xlink:href="#DejaVuSans-72" x="969.580078"/>
     <use xlink:href="#DejaVuSans-79" x="1010.693359"/>
    </g>
   </g>
   <g id="legend_1">
    <g id="line2d_35">
     <path d="M 815.08 328.498438 
L 825.08 328.498438 
L 835.08 328.498438 
" style="fill: none; stroke: #1f77b4; stroke-width: 1.5; stroke-linecap: square"/>
    </g>
    <g id="text_18">
     <!-- star -->
     <g style="fill: #a9a9a9" transform="translate(843.08 331.998438)scale(0.1 -0.1)">
      <defs>
       <path id="DejaVuSans-61" d="M 2194 1759 
Q 1497 1759 1228 1600 
Q 959 1441 959 1056 
Q 959 750 1161 570 
Q 1363 391 1709 391 
Q 2188 391 2477 730 
Q 2766 1069 2766 1631 
L 2766 1759 
L 2194 1759 
z
M 3341 1997 
L 3341 0 
L 2766 0 
L 2766 531 
Q 2569 213 2275 61 
Q 1981 -91 1556 -91 
Q 1019 -91 701 211 
Q 384 513 384 1019 
Q 384 1609 779 1909 
Q 1175 2209 1959 2209 
L 2766 2209 
L 2766 2266 
Q 2766 2663 2505 2880 
Q 2244 3097 1772 3097 
Q 1472 3097 1187 3025 
Q 903 2953 641 2809 
L 641 3341 
Q 956 3463 1253 3523 
Q 1550 3584 1831 3584 
Q 2591 3584 2966 3190 
Q 3341 2797 3341 1997 
z
" transform="scale(0.015625)"/>
      </defs>
      <use xlink:href="#DejaVuSans-73"/>
      <use xlink:href="#DejaVuSans-74" x="52.099609"/>
      <use xlink:href="#DejaVuSans-61" x="91.308594"/>
      <use xlink:href="#DejaVuSans-72" x="152.587891"/>
     </g>
    </g>
    <g id="line2d_36">
     <path d="M 815.08 343.176562 
L 825.08 343.176562 
L 835.08 343.176562 
" style="fill: none; stroke: #ff7f0e; stroke-width: 1.5; stroke-linecap: square"/>
    </g>
    <g id="text_19">
     <!-- fork -->
     <g style="fill: #a9a9a9" transform="translate(843.08 346.676562)scale(0.1 -0.1)">
      <defs>
       <path id="DejaVuSans-66" d="M 2375 4863 
L 2375 4384 
L 1825 4384 
Q 1516 4384 1395 4259 
Q 1275 4134 1275 3809 
L 1275 3500 
L 2222 3500 
L 2222 3053 
L 1275 3053 
L 1275 0 
L 697 0 
L 697 3053 
L 147 3053 
L 147 3500 
L 697 3500 
L 697 3744 
Q 697 4328 969 4595 
Q 1241 4863 1831 4863 
L 2375 4863 
z
" transform="scale(0.015625)"/>
       <path id="DejaVuSans-6b" d="M 581 4863 
L 1159 4863 
L 1159 1991 
L 2875 3500 
L 3609 3500 
L 1753 1863 
L 3688 0 
L 2938 0 
L 1159 1709 
L 1159 0 
L 581 0 
L 581 4863 
z
" transform="scale(0.015625)"/>
      </defs>
      <use xlink:href="#DejaVuSans-66"/>
      <use xlink:href="#DejaVuSans-6f" x="35.205078"/>
      <use xlink:href="#DejaVuSans-72" x="96.386719"/>
      <use xlink:href="#DejaVuSans-6b" x="137.5"/>
     </g>
    </g>
   </g>
  </g>
 </g>
 <defs>
  <clipPath id="pf3e809db5e">
   <rect x="108" y="43.2" width="669.6" height="277.2"/>
  </clipPath>
 </defs>
</svg>
