<?xml version="1.0" encoding="utf-8" standalone="no"?>
<!DOCTYPE svg PUBLIC "-//W3C//DTD SVG 1.1//EN"
  "http://www.w3.org/Graphics/SVG/1.1/DTD/svg11.dtd">
<svg xmlns:xlink="http://www.w3.org/1999/xlink" width="864pt" height="360pt" viewBox="0 0 864 360" xmlns="http://www.w3.org/2000/svg" version="1.1">
 <metadata>
  <rdf:RDF xmlns:dc="http://purl.org/dc/elements/1.1/" xmlns:cc="http://creativecommons.org/ns#" xmlns:rdf="http://www.w3.org/1999/02/22-rdf-syntax-ns#">
   <cc:Work>
    <dc:type rdf:resource="http://purl.org/dc/dcmitype/StillImage"/>
    <dc:date>2022-06-27T09:10:07.189108</dc:date>
    <dc:format>image/svg+xml</dc:format>
    <dc:creator>
     <cc:Agent>
      <dc:title>Matplotlib v3.5.2, https://matplotlib.org/</dc:title>
     </cc:Agent>
    </dc:creator>
   </cc:Work>
  </rdf:RDF>
 </metadata>
 <defs>
  <style type="text/css">*{stroke-linejoin: round; stroke-linecap: butt}</style>
 </defs>
 <g id="figure_1">
  <g id="patch_1">
   <path d="M 0 360 
L 864 360 
L 864 0 
L 0 0 
L 0 360 
z
" style="fill: none; opacity: 0"/>
  </g>
  <g id="axes_1">
   <g id="patch_2">
    <path d="M 108 320.4 
L 777.6 320.4 
L 777.6 43.2 
L 108 43.2 
L 108 320.4 
z
" style="fill: none; opacity: 0"/>
   </g>
   <g id="matplotlib.axis_1">
    <g id="xtick_1">
     <g id="line2d_1">
      <path d="M 208.674126 320.4 
L 208.674126 43.2 
" clip-path="url(#p79912c19bb)" style="fill: none; stroke-dasharray: 5.12,1.28,0.8,1.28; stroke-dashoffset: 0; stroke: #b0b0b0; stroke-width: 0.8"/>
     </g>
     <g id="line2d_2">
      <defs>
       <path id="m70963539b8" d="M 0 0 
L 0 3.5 
" style="stroke: #a9a9a9; stroke-width: 0.8"/>
      </defs>
      <g>
       <use xlink:href="#m70963539b8" x="208.674126" y="320.4" style="fill: #a9a9a9; stroke: #a9a9a9; stroke-width: 0.8"/>
      </g>
     </g>
     <g id="text_1">
      <!-- 2021-09 -->
      <g style="fill: #a9a9a9" transform="translate(187.78272 334.998438)scale(0.1 -0.1)">
       <defs>
        <path id="DejaVuSans-32" d="M 1228 531 
L 3431 531 
L 3431 0 
L 469 0 
L 469 531 
Q 828 903 1448 1529 
Q 2069 2156 2228 2338 
Q 2531 2678 2651 2914 
Q 2772 3150 2772 3378 
Q 2772 3750 2511 3984 
Q 2250 4219 1831 4219 
Q 1534 4219 1204 4116 
Q 875 4013 500 3803 
L 500 4441 
Q 881 4594 1212 4672 
Q 1544 4750 1819 4750 
Q 2544 4750 2975 4387 
Q 3406 4025 3406 3419 
Q 3406 3131 3298 2873 
Q 3191 2616 2906 2266 
Q 2828 2175 2409 1742 
Q 1991 1309 1228 531 
z
" transform="scale(0.015625)"/>
        <path id="DejaVuSans-30" d="M 2034 4250 
Q 1547 4250 1301 3770 
Q 1056 3291 1056 2328 
Q 1056 1369 1301 889 
Q 1547 409 2034 409 
Q 2525 409 2770 889 
Q 3016 1369 3016 2328 
Q 3016 3291 2770 3770 
Q 2525 4250 2034 4250 
z
M 2034 4750 
Q 2819 4750 3233 4129 
Q 3647 3509 3647 2328 
Q 3647 1150 3233 529 
Q 2819 -91 2034 -91 
Q 1250 -91 836 529 
Q 422 1150 422 2328 
Q 422 3509 836 4129 
Q 1250 4750 2034 4750 
z
" transform="scale(0.015625)"/>
        <path id="DejaVuSans-31" d="M 794 531 
L 1825 531 
L 1825 4091 
L 703 3866 
L 703 4441 
L 1819 4666 
L 2450 4666 
L 2450 531 
L 3481 531 
L 3481 0 
L 794 0 
L 794 531 
z
" transform="scale(0.015625)"/>
        <path id="DejaVuSans-2d" d="M 313 2009 
L 1997 2009 
L 1997 1497 
L 313 1497 
L 313 2009 
z
" transform="scale(0.015625)"/>
        <path id="DejaVuSans-39" d="M 703 97 
L 703 672 
Q 941 559 1184 500 
Q 1428 441 1663 441 
Q 2288 441 2617 861 
Q 2947 1281 2994 2138 
Q 2813 1869 2534 1725 
Q 2256 1581 1919 1581 
Q 1219 1581 811 2004 
Q 403 2428 403 3163 
Q 403 3881 828 4315 
Q 1253 4750 1959 4750 
Q 2769 4750 3195 4129 
Q 3622 3509 3622 2328 
Q 3622 1225 3098 567 
Q 2575 -91 1691 -91 
Q 1453 -91 1209 -44 
Q 966 3 703 97 
z
M 1959 2075 
Q 2384 2075 2632 2365 
Q 2881 2656 2881 3163 
Q 2881 3666 2632 3958 
Q 2384 4250 1959 4250 
Q 1534 4250 1286 3958 
Q 1038 3666 1038 3163 
Q 1038 2656 1286 2365 
Q 1534 2075 1959 2075 
z
" transform="scale(0.015625)"/>
       </defs>
       <use xlink:href="#DejaVuSans-32"/>
       <use xlink:href="#DejaVuSans-30" x="63.623047"/>
       <use xlink:href="#DejaVuSans-32" x="127.246094"/>
       <use xlink:href="#DejaVuSans-31" x="190.869141"/>
       <use xlink:href="#DejaVuSans-2d" x="254.492188"/>
       <use xlink:href="#DejaVuSans-30" x="290.576172"/>
       <use xlink:href="#DejaVuSans-39" x="354.199219"/>
      </g>
     </g>
    </g>
    <g id="xtick_2">
     <g id="line2d_3">
      <path d="M 318.53319 320.4 
L 318.53319 43.2 
" clip-path="url(#p79912c19bb)" style="fill: none; stroke-dasharray: 5.12,1.28,0.8,1.28; stroke-dashoffset: 0; stroke: #b0b0b0; stroke-width: 0.8"/>
     </g>
     <g id="line2d_4">
      <g>
       <use xlink:href="#m70963539b8" x="318.53319" y="320.4" style="fill: #a9a9a9; stroke: #a9a9a9; stroke-width: 0.8"/>
      </g>
     </g>
     <g id="text_2">
      <!-- 2021-11 -->
      <g style="fill: #a9a9a9" transform="translate(297.641784 334.998438)scale(0.1 -0.1)">
       <use xlink:href="#DejaVuSans-32"/>
       <use xlink:href="#DejaVuSans-30" x="63.623047"/>
       <use xlink:href="#DejaVuSans-32" x="127.246094"/>
       <use xlink:href="#DejaVuSans-31" x="190.869141"/>
       <use xlink:href="#DejaVuSans-2d" x="254.492188"/>
       <use xlink:href="#DejaVuSans-31" x="290.576172"/>
       <use xlink:href="#DejaVuSans-31" x="354.199219"/>
      </g>
     </g>
    </g>
    <g id="xtick_3">
     <g id="line2d_5">
      <path d="M 428.392254 320.4 
L 428.392254 43.2 
" clip-path="url(#p79912c19bb)" style="fill: none; stroke-dasharray: 5.12,1.28,0.8,1.28; stroke-dashoffset: 0; stroke: #b0b0b0; stroke-width: 0.8"/>
     </g>
     <g id="line2d_6">
      <g>
       <use xlink:href="#m70963539b8" x="428.392254" y="320.4" style="fill: #a9a9a9; stroke: #a9a9a9; stroke-width: 0.8"/>
      </g>
     </g>
     <g id="text_3">
      <!-- 2022-01 -->
      <g style="fill: #a9a9a9" transform="translate(407.500848 334.998438)scale(0.1 -0.1)">
       <use xlink:href="#DejaVuSans-32"/>
       <use xlink:href="#DejaVuSans-30" x="63.623047"/>
       <use xlink:href="#DejaVuSans-32" x="127.246094"/>
       <use xlink:href="#DejaVuSans-32" x="190.869141"/>
       <use xlink:href="#DejaVuSans-2d" x="254.492188"/>
       <use xlink:href="#DejaVuSans-30" x="290.576172"/>
       <use xlink:href="#DejaVuSans-31" x="354.199219"/>
      </g>
     </g>
    </g>
    <g id="xtick_4">
     <g id="line2d_7">
      <path d="M 534.649381 320.4 
L 534.649381 43.2 
" clip-path="url(#p79912c19bb)" style="fill: none; stroke-dasharray: 5.12,1.28,0.8,1.28; stroke-dashoffset: 0; stroke: #b0b0b0; stroke-width: 0.8"/>
     </g>
     <g id="line2d_8">
      <g>
       <use xlink:href="#m70963539b8" x="534.649381" y="320.4" style="fill: #a9a9a9; stroke: #a9a9a9; stroke-width: 0.8"/>
      </g>
     </g>
     <g id="text_4">
      <!-- 2022-03 -->
      <g style="fill: #a9a9a9" transform="translate(513.757975 334.998438)scale(0.1 -0.1)">
       <defs>
        <path id="DejaVuSans-33" d="M 2597 2516 
Q 3050 2419 3304 2112 
Q 3559 1806 3559 1356 
Q 3559 666 3084 287 
Q 2609 -91 1734 -91 
Q 1441 -91 1130 -33 
Q 819 25 488 141 
L 488 750 
Q 750 597 1062 519 
Q 1375 441 1716 441 
Q 2309 441 2620 675 
Q 2931 909 2931 1356 
Q 2931 1769 2642 2001 
Q 2353 2234 1838 2234 
L 1294 2234 
L 1294 2753 
L 1863 2753 
Q 2328 2753 2575 2939 
Q 2822 3125 2822 3475 
Q 2822 3834 2567 4026 
Q 2313 4219 1838 4219 
Q 1578 4219 1281 4162 
Q 984 4106 628 3988 
L 628 4550 
Q 988 4650 1302 4700 
Q 1616 4750 1894 4750 
Q 2613 4750 3031 4423 
Q 3450 4097 3450 3541 
Q 3450 3153 3228 2886 
Q 3006 2619 2597 2516 
z
" transform="scale(0.015625)"/>
       </defs>
       <use xlink:href="#DejaVuSans-32"/>
       <use xlink:href="#DejaVuSans-30" x="63.623047"/>
       <use xlink:href="#DejaVuSans-32" x="127.246094"/>
       <use xlink:href="#DejaVuSans-32" x="190.869141"/>
       <use xlink:href="#DejaVuSans-2d" x="254.492188"/>
       <use xlink:href="#DejaVuSans-30" x="290.576172"/>
       <use xlink:href="#DejaVuSans-33" x="354.199219"/>
      </g>
     </g>
    </g>
    <g id="xtick_5">
     <g id="line2d_9">
      <path d="M 644.508445 320.4 
L 644.508445 43.2 
" clip-path="url(#p79912c19bb)" style="fill: none; stroke-dasharray: 5.12,1.28,0.8,1.28; stroke-dashoffset: 0; stroke: #b0b0b0; stroke-width: 0.8"/>
     </g>
     <g id="line2d_10">
      <g>
       <use xlink:href="#m70963539b8" x="644.508445" y="320.4" style="fill: #a9a9a9; stroke: #a9a9a9; stroke-width: 0.8"/>
      </g>
     </g>
     <g id="text_5">
      <!-- 2022-05 -->
      <g style="fill: #a9a9a9" transform="translate(623.617039 334.998438)scale(0.1 -0.1)">
       <defs>
        <path id="DejaVuSans-35" d="M 691 4666 
L 3169 4666 
L 3169 4134 
L 1269 4134 
L 1269 2991 
Q 1406 3038 1543 3061 
Q 1681 3084 1819 3084 
Q 2600 3084 3056 2656 
Q 3513 2228 3513 1497 
Q 3513 744 3044 326 
Q 2575 -91 1722 -91 
Q 1428 -91 1123 -41 
Q 819 9 494 109 
L 494 744 
Q 775 591 1075 516 
Q 1375 441 1709 441 
Q 2250 441 2565 725 
Q 2881 1009 2881 1497 
Q 2881 1984 2565 2268 
Q 2250 2553 1709 2553 
Q 1456 2553 1204 2497 
Q 953 2441 691 2322 
L 691 4666 
z
" transform="scale(0.015625)"/>
       </defs>
       <use xlink:href="#DejaVuSans-32"/>
       <use xlink:href="#DejaVuSans-30" x="63.623047"/>
       <use xlink:href="#DejaVuSans-32" x="127.246094"/>
       <use xlink:href="#DejaVuSans-32" x="190.869141"/>
       <use xlink:href="#DejaVuSans-2d" x="254.492188"/>
       <use xlink:href="#DejaVuSans-30" x="290.576172"/>
       <use xlink:href="#DejaVuSans-35" x="354.199219"/>
      </g>
     </g>
    </g>
    <g id="xtick_6">
     <g id="line2d_11">
      <path d="M 754.367509 320.4 
L 754.367509 43.2 
" clip-path="url(#p79912c19bb)" style="fill: none; stroke-dasharray: 5.12,1.28,0.8,1.28; stroke-dashoffset: 0; stroke: #b0b0b0; stroke-width: 0.8"/>
     </g>
     <g id="line2d_12">
      <g>
       <use xlink:href="#m70963539b8" x="754.367509" y="320.4" style="fill: #a9a9a9; stroke: #a9a9a9; stroke-width: 0.8"/>
      </g>
     </g>
     <g id="text_6">
      <!-- 2022-07 -->
      <g style="fill: #a9a9a9" transform="translate(733.476103 334.998438)scale(0.1 -0.1)">
       <defs>
        <path id="DejaVuSans-37" d="M 525 4666 
L 3525 4666 
L 3525 4397 
L 1831 0 
L 1172 0 
L 2766 4134 
L 525 4134 
L 525 4666 
z
" transform="scale(0.015625)"/>
       </defs>
       <use xlink:href="#DejaVuSans-32"/>
       <use xlink:href="#DejaVuSans-30" x="63.623047"/>
       <use xlink:href="#DejaVuSans-32" x="127.246094"/>
       <use xlink:href="#DejaVuSans-32" x="190.869141"/>
       <use xlink:href="#DejaVuSans-2d" x="254.492188"/>
       <use xlink:href="#DejaVuSans-30" x="290.576172"/>
       <use xlink:href="#DejaVuSans-37" x="354.199219"/>
      </g>
     </g>
    </g>
   </g>
   <g id="matplotlib.axis_2">
    <g id="ytick_1">
     <g id="line2d_13">
      <path d="M 108 307.915332 
L 777.6 307.915332 
" clip-path="url(#p79912c19bb)" style="fill: none; stroke-dasharray: 5.12,1.28,0.8,1.28; stroke-dashoffset: 0; stroke: #b0b0b0; stroke-width: 0.8"/>
     </g>
     <g id="line2d_14">
      <defs>
       <path id="m2a7f5cb935" d="M 0 0 
L -3.5 0 
" style="stroke: #a9a9a9; stroke-width: 0.8"/>
      </defs>
      <g>
       <use xlink:href="#m2a7f5cb935" x="108" y="307.915332" style="fill: #a9a9a9; stroke: #a9a9a9; stroke-width: 0.8"/>
      </g>
     </g>
     <g id="text_7">
      <!-- 0 -->
      <g style="fill: #a9a9a9" transform="translate(94.6375 311.714551)scale(0.1 -0.1)">
       <use xlink:href="#DejaVuSans-30"/>
      </g>
     </g>
    </g>
    <g id="ytick_2">
     <g id="line2d_15">
      <path d="M 108 279.08238 
L 777.6 279.08238 
" clip-path="url(#p79912c19bb)" style="fill: none; stroke-dasharray: 5.12,1.28,0.8,1.28; stroke-dashoffset: 0; stroke: #b0b0b0; stroke-width: 0.8"/>
     </g>
     <g id="line2d_16">
      <g>
       <use xlink:href="#m2a7f5cb935" x="108" y="279.08238" style="fill: #a9a9a9; stroke: #a9a9a9; stroke-width: 0.8"/>
      </g>
     </g>
     <g id="text_8">
      <!-- 250 -->
      <g style="fill: #a9a9a9" transform="translate(81.9125 282.881599)scale(0.1 -0.1)">
       <use xlink:href="#DejaVuSans-32"/>
       <use xlink:href="#DejaVuSans-35" x="63.623047"/>
       <use xlink:href="#DejaVuSans-30" x="127.246094"/>
      </g>
     </g>
    </g>
    <g id="ytick_3">
     <g id="line2d_17">
      <path d="M 108 250.249428 
L 777.6 250.249428 
" clip-path="url(#p79912c19bb)" style="fill: none; stroke-dasharray: 5.12,1.28,0.8,1.28; stroke-dashoffset: 0; stroke: #b0b0b0; stroke-width: 0.8"/>
     </g>
     <g id="line2d_18">
      <g>
       <use xlink:href="#m2a7f5cb935" x="108" y="250.249428" style="fill: #a9a9a9; stroke: #a9a9a9; stroke-width: 0.8"/>
      </g>
     </g>
     <g id="text_9">
      <!-- 500 -->
      <g style="fill: #a9a9a9" transform="translate(81.9125 254.048647)scale(0.1 -0.1)">
       <use xlink:href="#DejaVuSans-35"/>
       <use xlink:href="#DejaVuSans-30" x="63.623047"/>
       <use xlink:href="#DejaVuSans-30" x="127.246094"/>
      </g>
     </g>
    </g>
    <g id="ytick_4">
     <g id="line2d_19">
      <path d="M 108 221.416476 
L 777.6 221.416476 
" clip-path="url(#p79912c19bb)" style="fill: none; stroke-dasharray: 5.12,1.28,0.8,1.28; stroke-dashoffset: 0; stroke: #b0b0b0; stroke-width: 0.8"/>
     </g>
     <g id="line2d_20">
      <g>
       <use xlink:href="#m2a7f5cb935" x="108" y="221.416476" style="fill: #a9a9a9; stroke: #a9a9a9; stroke-width: 0.8"/>
      </g>
     </g>
     <g id="text_10">
      <!-- 750 -->
      <g style="fill: #a9a9a9" transform="translate(81.9125 225.215695)scale(0.1 -0.1)">
       <use xlink:href="#DejaVuSans-37"/>
       <use xlink:href="#DejaVuSans-35" x="63.623047"/>
       <use xlink:href="#DejaVuSans-30" x="127.246094"/>
      </g>
     </g>
    </g>
    <g id="ytick_5">
     <g id="line2d_21">
      <path d="M 108 192.583524 
L 777.6 192.583524 
" clip-path="url(#p79912c19bb)" style="fill: none; stroke-dasharray: 5.12,1.28,0.8,1.28; stroke-dashoffset: 0; stroke: #b0b0b0; stroke-width: 0.8"/>
     </g>
     <g id="line2d_22">
      <g>
       <use xlink:href="#m2a7f5cb935" x="108" y="192.583524" style="fill: #a9a9a9; stroke: #a9a9a9; stroke-width: 0.8"/>
      </g>
     </g>
     <g id="text_11">
      <!-- 1000 -->
      <g style="fill: #a9a9a9" transform="translate(75.55 196.382743)scale(0.1 -0.1)">
       <use xlink:href="#DejaVuSans-31"/>
       <use xlink:href="#DejaVuSans-30" x="63.623047"/>
       <use xlink:href="#DejaVuSans-30" x="127.246094"/>
       <use xlink:href="#DejaVuSans-30" x="190.869141"/>
      </g>
     </g>
    </g>
    <g id="ytick_6">
     <g id="line2d_23">
      <path d="M 108 163.750572 
L 777.6 163.750572 
" clip-path="url(#p79912c19bb)" style="fill: none; stroke-dasharray: 5.12,1.28,0.8,1.28; stroke-dashoffset: 0; stroke: #b0b0b0; stroke-width: 0.8"/>
     </g>
     <g id="line2d_24">
      <g>
       <use xlink:href="#m2a7f5cb935" x="108" y="163.750572" style="fill: #a9a9a9; stroke: #a9a9a9; stroke-width: 0.8"/>
      </g>
     </g>
     <g id="text_12">
      <!-- 1250 -->
      <g style="fill: #a9a9a9" transform="translate(75.55 167.549791)scale(0.1 -0.1)">
       <use xlink:href="#DejaVuSans-31"/>
       <use xlink:href="#DejaVuSans-32" x="63.623047"/>
       <use xlink:href="#DejaVuSans-35" x="127.246094"/>
       <use xlink:href="#DejaVuSans-30" x="190.869141"/>
      </g>
     </g>
    </g>
    <g id="ytick_7">
     <g id="line2d_25">
      <path d="M 108 134.91762 
L 777.6 134.91762 
" clip-path="url(#p79912c19bb)" style="fill: none; stroke-dasharray: 5.12,1.28,0.8,1.28; stroke-dashoffset: 0; stroke: #b0b0b0; stroke-width: 0.8"/>
     </g>
     <g id="line2d_26">
      <g>
       <use xlink:href="#m2a7f5cb935" x="108" y="134.91762" style="fill: #a9a9a9; stroke: #a9a9a9; stroke-width: 0.8"/>
      </g>
     </g>
     <g id="text_13">
      <!-- 1500 -->
      <g style="fill: #a9a9a9" transform="translate(75.55 138.716839)scale(0.1 -0.1)">
       <use xlink:href="#DejaVuSans-31"/>
       <use xlink:href="#DejaVuSans-35" x="63.623047"/>
       <use xlink:href="#DejaVuSans-30" x="127.246094"/>
       <use xlink:href="#DejaVuSans-30" x="190.869141"/>
      </g>
     </g>
    </g>
    <g id="ytick_8">
     <g id="line2d_27">
      <path d="M 108 106.084668 
L 777.6 106.084668 
" clip-path="url(#p79912c19bb)" style="fill: none; stroke-dasharray: 5.12,1.28,0.8,1.28; stroke-dashoffset: 0; stroke: #b0b0b0; stroke-width: 0.8"/>
     </g>
     <g id="line2d_28">
      <g>
       <use xlink:href="#m2a7f5cb935" x="108" y="106.084668" style="fill: #a9a9a9; stroke: #a9a9a9; stroke-width: 0.8"/>
      </g>
     </g>
     <g id="text_14">
      <!-- 1750 -->
      <g style="fill: #a9a9a9" transform="translate(75.55 109.883887)scale(0.1 -0.1)">
       <use xlink:href="#DejaVuSans-31"/>
       <use xlink:href="#DejaVuSans-37" x="63.623047"/>
       <use xlink:href="#DejaVuSans-35" x="127.246094"/>
       <use xlink:href="#DejaVuSans-30" x="190.869141"/>
      </g>
     </g>
    </g>
    <g id="ytick_9">
     <g id="line2d_29">
      <path d="M 108 77.251716 
L 777.6 77.251716 
" clip-path="url(#p79912c19bb)" style="fill: none; stroke-dasharray: 5.12,1.28,0.8,1.28; stroke-dashoffset: 0; stroke: #b0b0b0; stroke-width: 0.8"/>
     </g>
     <g id="line2d_30">
      <g>
       <use xlink:href="#m2a7f5cb935" x="108" y="77.251716" style="fill: #a9a9a9; stroke: #a9a9a9; stroke-width: 0.8"/>
      </g>
     </g>
     <g id="text_15">
      <!-- 2000 -->
      <g style="fill: #a9a9a9" transform="translate(75.55 81.050935)scale(0.1 -0.1)">
       <use xlink:href="#DejaVuSans-32"/>
       <use xlink:href="#DejaVuSans-30" x="63.623047"/>
       <use xlink:href="#DejaVuSans-30" x="127.246094"/>
       <use xlink:href="#DejaVuSans-30" x="190.869141"/>
      </g>
     </g>
    </g>
    <g id="ytick_10">
     <g id="line2d_31">
      <path d="M 108 48.418764 
L 777.6 48.418764 
" clip-path="url(#p79912c19bb)" style="fill: none; stroke-dasharray: 5.12,1.28,0.8,1.28; stroke-dashoffset: 0; stroke: #b0b0b0; stroke-width: 0.8"/>
     </g>
     <g id="line2d_32">
      <g>
       <use xlink:href="#m2a7f5cb935" x="108" y="48.418764" style="fill: #a9a9a9; stroke: #a9a9a9; stroke-width: 0.8"/>
      </g>
     </g>
     <g id="text_16">
      <!-- 2250 -->
      <g style="fill: #a9a9a9" transform="translate(75.55 52.217983)scale(0.1 -0.1)">
       <use xlink:href="#DejaVuSans-32"/>
       <use xlink:href="#DejaVuSans-32" x="63.623047"/>
       <use xlink:href="#DejaVuSans-35" x="127.246094"/>
       <use xlink:href="#DejaVuSans-30" x="190.869141"/>
      </g>
     </g>
    </g>
   </g>
   <g id="line2d_33">
    <path d="M 138.436364 307.454005 
L 142.0383 307.223341 
L 147.441205 306.53135 
L 149.242173 306.53135 
L 151.043141 305.839359 
L 154.645078 305.608696 
L 158.247015 304.916705 
L 160.047983 304.686041 
L 161.848951 304.224714 
L 163.649919 303.99405 
L 165.450888 303.532723 
L 167.251856 303.186728 
L 169.052824 303.071396 
L 170.853792 302.840732 
L 172.654761 302.494737 
L 178.057665 302.148741 
L 179.858634 301.226087 
L 181.659602 300.76476 
L 183.46057 298.688787 
L 185.261538 297.535469 
L 187.062507 293.498856 
L 188.863475 293.268192 
L 190.664443 291.884211 
L 192.465412 291.19222 
L 194.26638 290.154233 
L 199.669285 285.886957 
L 201.470253 284.964302 
L 205.072189 283.464989 
L 206.873158 282.196339 
L 208.674126 281.504348 
L 212.276062 279.313043 
L 214.077031 278.621053 
L 215.877999 275.737757 
L 217.678967 274.353776 
L 219.479935 273.315789 
L 221.280904 272.508467 
L 226.683808 271.816476 
L 230.285745 271.124485 
L 232.086713 270.893822 
L 233.887682 270.547826 
L 237.489618 270.317162 
L 239.290586 269.855835 
L 241.091555 268.933181 
L 244.693491 268.702517 
L 246.494459 268.702517 
L 248.295428 268.356522 
L 251.897364 267.895195 
L 253.698332 267.779863 
L 255.499301 267.087872 
L 257.300269 266.741876 
L 259.101237 266.280549 
L 260.902205 265.934554 
L 262.703174 265.70389 
L 264.504142 265.357895 
L 266.30511 265.242563 
L 268.106079 265.011899 
L 269.907047 264.550572 
L 271.708015 264.319908 
L 273.508983 264.204577 
L 275.309952 263.858581 
L 277.11092 262.935927 
L 278.911888 262.705263 
L 282.513825 261.436613 
L 284.314793 261.20595 
L 286.115761 261.090618 
L 287.916729 260.513959 
L 289.717698 260.167963 
L 291.518666 260.052632 
L 293.319634 259.591304 
L 295.120602 259.360641 
L 298.722539 258.207323 
L 300.523507 257.976659 
L 302.324476 257.976659 
L 304.125444 257.745995 
L 305.926412 257.630664 
L 307.72738 257.4 
L 309.528349 256.823341 
L 311.329317 256.708009 
L 314.931253 255.670023 
L 316.732222 255.208696 
L 318.53319 254.978032 
L 322.135126 254.747368 
L 323.936095 254.401373 
L 325.737063 254.170709 
L 327.538031 253.709382 
L 329.338999 253.017391 
L 331.139968 250.710755 
L 332.940936 250.018764 
L 334.741904 249.09611 
L 336.542873 248.865446 
L 338.343841 248.404119 
L 340.144809 248.173455 
L 343.746746 246.674142 
L 345.547714 246.55881 
L 349.14965 245.636156 
L 352.751587 244.598169 
L 354.552555 244.136842 
L 356.353523 244.136842 
L 359.95546 243.675515 
L 361.756428 242.983524 
L 363.557396 242.522197 
L 367.159333 241.368879 
L 368.960301 241.022883 
L 370.761269 240.907551 
L 374.363206 239.408238 
L 376.164174 239.177574 
L 377.965143 238.370252 
L 379.766111 238.139588 
L 383.368047 237.908924 
L 385.169016 237.562929 
L 386.969984 237.101602 
L 388.770952 236.98627 
L 390.57192 236.755606 
L 394.173857 236.063616 
L 395.974825 235.832952 
L 397.775793 235.371625 
L 399.576762 234.794966 
L 401.37773 234.564302 
L 403.178698 233.756979 
L 404.979666 233.18032 
L 406.780635 232.142334 
L 408.581603 231.681007 
L 410.382571 231.450343 
L 413.984508 230.297025 
L 417.586444 228.336384 
L 419.387413 227.067735 
L 421.188381 226.837071 
L 422.989349 226.260412 
L 424.790317 226.029748 
L 426.591286 225.568421 
L 428.392254 225.337757 
L 430.193222 224.530435 
L 433.795159 223.838444 
L 437.397095 222.108467 
L 439.198063 221.64714 
L 440.999032 221.416476 
L 442.8 220.724485 
L 444.600968 220.37849 
L 446.401937 219.917162 
L 448.202905 219.571167 
L 450.003873 219.340503 
L 453.60581 217.725858 
L 455.406778 217.379863 
L 457.207746 216.57254 
L 459.008714 216.341876 
L 460.809683 215.534554 
L 462.610651 215.073227 
L 464.411619 214.842563 
L 466.212587 214.727231 
L 469.814524 213.458581 
L 471.615492 213.227918 
L 473.41646 213.227918 
L 475.217429 212.420595 
L 477.018397 212.0746 
L 478.819365 211.843936 
L 480.620334 211.151945 
L 482.421302 211.151945 
L 484.22227 211.036613 
L 486.023238 210.80595 
L 487.824207 210.690618 
L 489.625175 210.459954 
L 491.426143 210.113959 
L 495.02808 208.383982 
L 498.630016 206.769336 
L 500.430984 206.308009 
L 502.231953 205.154691 
L 504.032921 204.578032 
L 507.634857 202.963387 
L 509.435826 202.617391 
L 511.236794 201.810069 
L 513.037762 201.23341 
L 514.838731 199.96476 
L 516.639699 199.042105 
L 518.440667 197.196796 
L 520.241635 194.198169 
L 522.042604 191.66087 
L 523.843572 191.084211 
L 525.64454 190.968879 
L 529.246477 188.316247 
L 531.047445 187.85492 
L 532.848413 186.816934 
L 534.649381 186.470938 
L 536.45035 184.856293 
L 538.251318 184.394966 
L 543.654223 181.972998 
L 545.455191 179.897025 
L 547.256159 177.01373 
L 549.057127 175.975744 
L 550.858096 173.092449 
L 552.659064 171.362471 
L 554.460032 170.439817 
L 556.261001 169.863158 
L 558.061969 168.594508 
L 561.663905 166.864531 
L 563.464874 165.595881 
L 565.265842 164.096568 
L 567.06681 162.827918 
L 568.867778 161.789931 
L 570.668747 159.1373 
L 572.469715 154.870023 
L 574.270683 152.217391 
L 576.071651 150.718078 
L 577.87262 149.795423 
L 581.474556 146.335469 
L 585.076493 143.452174 
L 588.678429 140.568879 
L 590.479398 138.954233 
L 592.280366 136.416934 
L 594.081334 134.686957 
L 595.882302 133.302975 
L 599.484239 130.881007 
L 604.887144 126.729062 
L 606.688112 126.267735 
L 612.091017 123.384439 
L 615.692953 121.423799 
L 617.493921 120.616476 
L 621.095858 117.502517 
L 622.896826 115.195881 
L 626.498763 112.773913 
L 628.299731 112.312586 
L 630.100699 111.389931 
L 631.901668 110.121281 
L 635.503604 108.275973 
L 637.304572 107.929977 
L 642.707477 104.585355 
L 644.508445 102.855378 
L 646.309414 101.586728 
L 648.110382 101.010069 
L 649.91135 99.741419 
L 651.712318 98.934096 
L 653.513287 97.665446 
L 655.314255 96.858124 
L 657.115223 95.704805 
L 658.916192 94.205492 
L 662.518128 92.936842 
L 664.319096 92.014188 
L 666.120065 91.437529 
L 667.921033 90.284211 
L 669.722001 89.822883 
L 684.129747 84.286957 
L 687.731684 83.594966 
L 689.532652 81.864989 
L 691.33362 80.481007 
L 693.134588 79.789016 
L 700.338462 75.637071 
L 702.13943 74.829748 
L 703.940398 74.253089 
L 705.741366 72.869108 
L 707.542335 72.177117 
L 712.945239 68.832494 
L 714.746208 68.486499 
L 716.547176 68.025172 
L 718.348144 67.679176 
L 721.950081 66.64119 
L 727.352985 63.642563 
L 729.153954 63.411899 
L 730.954922 62.719908 
L 732.75589 62.373913 
L 734.556859 61.56659 
L 736.357827 60.297941 
L 738.158795 58.798627 
L 739.959763 57.645309 
L 741.760732 57.299314 
L 743.5617 56.376659 
L 745.362668 55.915332 
L 747.163636 55.8 
L 747.163636 55.8 
" clip-path="url(#p79912c19bb)" style="fill: none; stroke: #1f77b4; stroke-width: 1.5; stroke-linecap: square"/>
   </g>
   <g id="line2d_34">
    <path d="M 140.237332 307.8 
L 143.839268 307.8 
L 147.441205 307.338673 
L 156.446046 307.338673 
L 160.047983 307.108009 
L 161.848951 307.108009 
L 163.649919 306.992677 
L 167.251856 306.992677 
L 170.853792 306.762014 
L 178.057665 306.762014 
L 179.858634 306.300686 
L 181.659602 306.300686 
L 183.46057 306.070023 
L 185.261538 306.070023 
L 187.062507 305.839359 
L 188.863475 305.724027 
L 194.26638 305.032037 
L 199.669285 304.686041 
L 201.470253 304.686041 
L 205.072189 304.455378 
L 206.873158 304.224714 
L 210.475094 304.224714 
L 212.276062 303.878719 
L 214.077031 303.878719 
L 215.877999 303.763387 
L 217.678967 303.763387 
L 221.280904 303.302059 
L 228.484777 303.302059 
L 230.285745 303.071396 
L 237.489618 303.071396 
L 241.091555 302.840732 
L 242.892523 302.840732 
L 244.693491 302.7254 
L 255.499301 302.7254 
L 257.300269 302.610069 
L 260.902205 302.610069 
L 262.703174 302.494737 
L 268.106079 302.494737 
L 269.907047 302.379405 
L 271.708015 302.379405 
L 273.508983 302.264073 
L 275.309952 302.264073 
L 277.11092 302.148741 
L 284.314793 302.148741 
L 286.115761 301.918078 
L 287.916729 301.918078 
L 289.717698 301.802746 
L 291.518666 301.802746 
L 295.120602 301.572082 
L 296.921571 301.572082 
L 298.722539 301.456751 
L 305.926412 301.456751 
L 307.72738 301.341419 
L 311.329317 301.341419 
L 313.130285 301.226087 
L 318.53319 301.226087 
L 320.334158 301.110755 
L 322.135126 301.110755 
L 323.936095 300.880092 
L 325.737063 300.76476 
L 327.538031 300.418764 
L 329.338999 300.418764 
L 331.139968 300.303432 
L 336.542873 300.303432 
L 338.343841 300.188101 
L 340.144809 299.957437 
L 343.746746 299.957437 
L 345.547714 299.842105 
L 347.348682 299.842105 
L 349.14965 299.726773 
L 354.552555 299.726773 
L 358.154492 299.49611 
L 361.756428 299.49611 
L 363.557396 299.380778 
L 365.358365 299.150114 
L 367.159333 299.034783 
L 368.960301 298.804119 
L 370.761269 298.688787 
L 372.562238 298.688787 
L 374.363206 298.573455 
L 376.164174 298.573455 
L 377.965143 298.458124 
L 379.766111 298.458124 
L 381.567079 298.342792 
L 386.969984 298.342792 
L 388.770952 298.112128 
L 394.173857 298.112128 
L 395.974825 297.881465 
L 397.775793 297.766133 
L 399.576762 297.535469 
L 401.37773 297.535469 
L 403.178698 297.420137 
L 404.979666 297.420137 
L 406.780635 297.304805 
L 412.18354 297.304805 
L 413.984508 297.074142 
L 415.785476 296.728146 
L 421.188381 296.382151 
L 422.989349 296.036156 
L 424.790317 296.036156 
L 426.591286 295.920824 
L 430.193222 295.920824 
L 431.99419 295.805492 
L 433.795159 295.574828 
L 435.596127 295.459497 
L 437.397095 295.228833 
L 442.8 294.882838 
L 444.600968 294.882838 
L 448.202905 294.652174 
L 451.804841 294.652174 
L 457.207746 294.306178 
L 460.809683 294.306178 
L 462.610651 294.075515 
L 466.212587 293.844851 
L 469.814524 293.844851 
L 471.615492 293.614188 
L 473.41646 293.614188 
L 477.018397 293.383524 
L 478.819365 293.15286 
L 482.421302 293.15286 
L 484.22227 293.037529 
L 486.023238 293.037529 
L 491.426143 292.691533 
L 496.829048 292.691533 
L 500.430984 292.46087 
L 507.634857 292.46087 
L 509.435826 292.345538 
L 511.236794 292.345538 
L 513.037762 292.114874 
L 514.838731 291.768879 
L 518.440667 291.538215 
L 520.241635 291.538215 
L 522.042604 291.307551 
L 523.843572 291.19222 
L 525.64454 291.19222 
L 529.246477 290.961556 
L 531.047445 290.961556 
L 532.848413 290.615561 
L 534.649381 290.500229 
L 536.45035 290.269565 
L 538.251318 289.808238 
L 541.853254 289.577574 
L 543.654223 289.116247 
L 545.455191 289.000915 
L 547.256159 288.770252 
L 549.057127 288.65492 
L 550.858096 288.193593 
L 552.659064 287.847597 
L 554.460032 287.732265 
L 556.261001 287.732265 
L 558.061969 287.616934 
L 559.862937 287.616934 
L 561.663905 287.38627 
L 563.464874 287.38627 
L 565.265842 287.155606 
L 568.867778 286.463616 
L 570.668747 286.002288 
L 574.270683 285.540961 
L 576.071651 285.540961 
L 579.673588 285.079634 
L 581.474556 285.079634 
L 586.877461 284.733638 
L 590.479398 284.272311 
L 594.081334 284.041648 
L 595.882302 284.041648 
L 597.683271 283.926316 
L 599.484239 283.695652 
L 601.285207 283.58032 
L 604.887144 283.58032 
L 606.688112 283.349657 
L 608.48908 283.003661 
L 610.290048 282.88833 
L 612.091017 282.657666 
L 613.891985 282.657666 
L 615.692953 282.31167 
L 617.493921 282.081007 
L 619.29489 281.735011 
L 622.896826 281.504348 
L 628.299731 281.504348 
L 630.100699 281.043021 
L 631.901668 280.812357 
L 633.702636 280.812357 
L 637.304572 280.581693 
L 639.105541 280.581693 
L 640.906509 280.235698 
L 642.707477 280.120366 
L 644.508445 280.120366 
L 648.110382 279.659039 
L 649.91135 279.313043 
L 651.712318 278.851716 
L 653.513287 278.621053 
L 655.314255 278.621053 
L 658.916192 278.390389 
L 660.71716 278.159725 
L 662.518128 278.159725 
L 666.120065 277.929062 
L 669.722001 277.929062 
L 673.323938 277.698398 
L 675.124906 277.698398 
L 678.726842 277.237071 
L 680.527811 277.121739 
L 682.328779 277.121739 
L 685.930715 276.891076 
L 687.731684 276.660412 
L 693.134588 276.314416 
L 698.537493 276.314416 
L 700.338462 276.083753 
L 702.13943 275.968421 
L 705.741366 275.968421 
L 707.542335 275.622426 
L 709.343303 275.507094 
L 711.144271 275.27643 
L 712.945239 275.161098 
L 714.746208 275.161098 
L 716.547176 274.930435 
L 720.149112 274.930435 
L 721.950081 274.815103 
L 723.751049 274.469108 
L 727.352985 274.469108 
L 729.153954 274.238444 
L 730.954922 274.238444 
L 734.556859 274.00778 
L 736.357827 274.00778 
L 738.158795 273.661785 
L 741.760732 273.661785 
L 743.5617 273.546453 
L 747.163636 273.546453 
L 747.163636 273.546453 
" clip-path="url(#p79912c19bb)" style="fill: none; stroke: #ff7f0e; stroke-width: 1.5; stroke-linecap: square"/>
   </g>
   <g id="patch_3">
    <path d="M 108 320.4 
L 108 43.2 
" style="fill: none; stroke: #a9a9a9; stroke-width: 0.8; stroke-linejoin: miter; stroke-linecap: square"/>
   </g>
   <g id="patch_4">
    <path d="M 777.6 320.4 
L 777.6 43.2 
" style="fill: none"/>
   </g>
   <g id="patch_5">
    <path d="M 108 320.4 
L 777.6 320.4 
" style="fill: none; stroke: #a9a9a9; stroke-width: 0.8; stroke-linejoin: miter; stroke-linecap: square"/>
   </g>
   <g id="patch_6">
    <path d="M 108 43.2 
L 777.6 43.2 
" style="fill: none"/>
   </g>
   <g id="text_17">
    <!-- get_subscribe history -->
    <g style="fill: #a9a9a9" transform="translate(378.6075 37.2)scale(0.12 -0.12)">
     <defs>
      <path id="DejaVuSans-67" d="M 2906 1791 
Q 2906 2416 2648 2759 
Q 2391 3103 1925 3103 
Q 1463 3103 1205 2759 
Q 947 2416 947 1791 
Q 947 1169 1205 825 
Q 1463 481 1925 481 
Q 2391 481 2648 825 
Q 2906 1169 2906 1791 
z
M 3481 434 
Q 3481 -459 3084 -895 
Q 2688 -1331 1869 -1331 
Q 1566 -1331 1297 -1286 
Q 1028 -1241 775 -1147 
L 775 -588 
Q 1028 -725 1275 -790 
Q 1522 -856 1778 -856 
Q 2344 -856 2625 -561 
Q 2906 -266 2906 331 
L 2906 616 
Q 2728 306 2450 153 
Q 2172 0 1784 0 
Q 1141 0 747 490 
Q 353 981 353 1791 
Q 353 2603 747 3093 
Q 1141 3584 1784 3584 
Q 2172 3584 2450 3431 
Q 2728 3278 2906 2969 
L 2906 3500 
L 3481 3500 
L 3481 434 
z
" transform="scale(0.015625)"/>
      <path id="DejaVuSans-65" d="M 3597 1894 
L 3597 1613 
L 953 1613 
Q 991 1019 1311 708 
Q 1631 397 2203 397 
Q 2534 397 2845 478 
Q 3156 559 3463 722 
L 3463 178 
Q 3153 47 2828 -22 
Q 2503 -91 2169 -91 
Q 1331 -91 842 396 
Q 353 884 353 1716 
Q 353 2575 817 3079 
Q 1281 3584 2069 3584 
Q 2775 3584 3186 3129 
Q 3597 2675 3597 1894 
z
M 3022 2063 
Q 3016 2534 2758 2815 
Q 2500 3097 2075 3097 
Q 1594 3097 1305 2825 
Q 1016 2553 972 2059 
L 3022 2063 
z
" transform="scale(0.015625)"/>
      <path id="DejaVuSans-74" d="M 1172 4494 
L 1172 3500 
L 2356 3500 
L 2356 3053 
L 1172 3053 
L 1172 1153 
Q 1172 725 1289 603 
Q 1406 481 1766 481 
L 2356 481 
L 2356 0 
L 1766 0 
Q 1100 0 847 248 
Q 594 497 594 1153 
L 594 3053 
L 172 3053 
L 172 3500 
L 594 3500 
L 594 4494 
L 1172 4494 
z
" transform="scale(0.015625)"/>
      <path id="DejaVuSans-5f" d="M 3263 -1063 
L 3263 -1509 
L -63 -1509 
L -63 -1063 
L 3263 -1063 
z
" transform="scale(0.015625)"/>
      <path id="DejaVuSans-73" d="M 2834 3397 
L 2834 2853 
Q 2591 2978 2328 3040 
Q 2066 3103 1784 3103 
Q 1356 3103 1142 2972 
Q 928 2841 928 2578 
Q 928 2378 1081 2264 
Q 1234 2150 1697 2047 
L 1894 2003 
Q 2506 1872 2764 1633 
Q 3022 1394 3022 966 
Q 3022 478 2636 193 
Q 2250 -91 1575 -91 
Q 1294 -91 989 -36 
Q 684 19 347 128 
L 347 722 
Q 666 556 975 473 
Q 1284 391 1588 391 
Q 1994 391 2212 530 
Q 2431 669 2431 922 
Q 2431 1156 2273 1281 
Q 2116 1406 1581 1522 
L 1381 1569 
Q 847 1681 609 1914 
Q 372 2147 372 2553 
Q 372 3047 722 3315 
Q 1072 3584 1716 3584 
Q 2034 3584 2315 3537 
Q 2597 3491 2834 3397 
z
" transform="scale(0.015625)"/>
      <path id="DejaVuSans-75" d="M 544 1381 
L 544 3500 
L 1119 3500 
L 1119 1403 
Q 1119 906 1312 657 
Q 1506 409 1894 409 
Q 2359 409 2629 706 
Q 2900 1003 2900 1516 
L 2900 3500 
L 3475 3500 
L 3475 0 
L 2900 0 
L 2900 538 
Q 2691 219 2414 64 
Q 2138 -91 1772 -91 
Q 1169 -91 856 284 
Q 544 659 544 1381 
z
M 1991 3584 
L 1991 3584 
z
" transform="scale(0.015625)"/>
      <path id="DejaVuSans-62" d="M 3116 1747 
Q 3116 2381 2855 2742 
Q 2594 3103 2138 3103 
Q 1681 3103 1420 2742 
Q 1159 2381 1159 1747 
Q 1159 1113 1420 752 
Q 1681 391 2138 391 
Q 2594 391 2855 752 
Q 3116 1113 3116 1747 
z
M 1159 2969 
Q 1341 3281 1617 3432 
Q 1894 3584 2278 3584 
Q 2916 3584 3314 3078 
Q 3713 2572 3713 1747 
Q 3713 922 3314 415 
Q 2916 -91 2278 -91 
Q 1894 -91 1617 61 
Q 1341 213 1159 525 
L 1159 0 
L 581 0 
L 581 4863 
L 1159 4863 
L 1159 2969 
z
" transform="scale(0.015625)"/>
      <path id="DejaVuSans-63" d="M 3122 3366 
L 3122 2828 
Q 2878 2963 2633 3030 
Q 2388 3097 2138 3097 
Q 1578 3097 1268 2742 
Q 959 2388 959 1747 
Q 959 1106 1268 751 
Q 1578 397 2138 397 
Q 2388 397 2633 464 
Q 2878 531 3122 666 
L 3122 134 
Q 2881 22 2623 -34 
Q 2366 -91 2075 -91 
Q 1284 -91 818 406 
Q 353 903 353 1747 
Q 353 2603 823 3093 
Q 1294 3584 2113 3584 
Q 2378 3584 2631 3529 
Q 2884 3475 3122 3366 
z
" transform="scale(0.015625)"/>
      <path id="DejaVuSans-72" d="M 2631 2963 
Q 2534 3019 2420 3045 
Q 2306 3072 2169 3072 
Q 1681 3072 1420 2755 
Q 1159 2438 1159 1844 
L 1159 0 
L 581 0 
L 581 3500 
L 1159 3500 
L 1159 2956 
Q 1341 3275 1631 3429 
Q 1922 3584 2338 3584 
Q 2397 3584 2469 3576 
Q 2541 3569 2628 3553 
L 2631 2963 
z
" transform="scale(0.015625)"/>
      <path id="DejaVuSans-69" d="M 603 3500 
L 1178 3500 
L 1178 0 
L 603 0 
L 603 3500 
z
M 603 4863 
L 1178 4863 
L 1178 4134 
L 603 4134 
L 603 4863 
z
" transform="scale(0.015625)"/>
      <path id="DejaVuSans-20" transform="scale(0.015625)"/>
      <path id="DejaVuSans-68" d="M 3513 2113 
L 3513 0 
L 2938 0 
L 2938 2094 
Q 2938 2591 2744 2837 
Q 2550 3084 2163 3084 
Q 1697 3084 1428 2787 
Q 1159 2491 1159 1978 
L 1159 0 
L 581 0 
L 581 4863 
L 1159 4863 
L 1159 2956 
Q 1366 3272 1645 3428 
Q 1925 3584 2291 3584 
Q 2894 3584 3203 3211 
Q 3513 2838 3513 2113 
z
" transform="scale(0.015625)"/>
      <path id="DejaVuSans-6f" d="M 1959 3097 
Q 1497 3097 1228 2736 
Q 959 2375 959 1747 
Q 959 1119 1226 758 
Q 1494 397 1959 397 
Q 2419 397 2687 759 
Q 2956 1122 2956 1747 
Q 2956 2369 2687 2733 
Q 2419 3097 1959 3097 
z
M 1959 3584 
Q 2709 3584 3137 3096 
Q 3566 2609 3566 1747 
Q 3566 888 3137 398 
Q 2709 -91 1959 -91 
Q 1206 -91 779 398 
Q 353 888 353 1747 
Q 353 2609 779 3096 
Q 1206 3584 1959 3584 
z
" transform="scale(0.015625)"/>
      <path id="DejaVuSans-79" d="M 2059 -325 
Q 1816 -950 1584 -1140 
Q 1353 -1331 966 -1331 
L 506 -1331 
L 506 -850 
L 844 -850 
Q 1081 -850 1212 -737 
Q 1344 -625 1503 -206 
L 1606 56 
L 191 3500 
L 800 3500 
L 1894 763 
L 2988 3500 
L 3597 3500 
L 2059 -325 
z
" transform="scale(0.015625)"/>
     </defs>
     <use xlink:href="#DejaVuSans-67"/>
     <use xlink:href="#DejaVuSans-65" x="63.476562"/>
     <use xlink:href="#DejaVuSans-74" x="125"/>
     <use xlink:href="#DejaVuSans-5f" x="164.208984"/>
     <use xlink:href="#DejaVuSans-73" x="214.208984"/>
     <use xlink:href="#DejaVuSans-75" x="266.308594"/>
     <use xlink:href="#DejaVuSans-62" x="329.6875"/>
     <use xlink:href="#DejaVuSans-73" x="393.164062"/>
     <use xlink:href="#DejaVuSans-63" x="445.263672"/>
     <use xlink:href="#DejaVuSans-72" x="500.244141"/>
     <use xlink:href="#DejaVuSans-69" x="541.357422"/>
     <use xlink:href="#DejaVuSans-62" x="569.140625"/>
     <use xlink:href="#DejaVuSans-65" x="632.617188"/>
     <use xlink:href="#DejaVuSans-20" x="694.140625"/>
     <use xlink:href="#DejaVuSans-68" x="725.927734"/>
     <use xlink:href="#DejaVuSans-69" x="789.306641"/>
     <use xlink:href="#DejaVuSans-73" x="817.089844"/>
     <use xlink:href="#DejaVuSans-74" x="869.189453"/>
     <use xlink:href="#DejaVuSans-6f" x="908.398438"/>
     <use xlink:href="#DejaVuSans-72" x="969.580078"/>
     <use xlink:href="#DejaVuSans-79" x="1010.693359"/>
    </g>
   </g>
   <g id="legend_1">
    <g id="line2d_35">
     <path d="M 815.08 328.498438 
L 825.08 328.498438 
L 835.08 328.498438 
" style="fill: none; stroke: #1f77b4; stroke-width: 1.5; stroke-linecap: square"/>
    </g>
    <g id="text_18">
     <!-- star -->
     <g style="fill: #a9a9a9" transform="translate(843.08 331.998438)scale(0.1 -0.1)">
      <defs>
       <path id="DejaVuSans-61" d="M 2194 1759 
Q 1497 1759 1228 1600 
Q 959 1441 959 1056 
Q 959 750 1161 570 
Q 1363 391 1709 391 
Q 2188 391 2477 730 
Q 2766 1069 2766 1631 
L 2766 1759 
L 2194 1759 
z
M 3341 1997 
L 3341 0 
L 2766 0 
L 2766 531 
Q 2569 213 2275 61 
Q 1981 -91 1556 -91 
Q 1019 -91 701 211 
Q 384 513 384 1019 
Q 384 1609 779 1909 
Q 1175 2209 1959 2209 
L 2766 2209 
L 2766 2266 
Q 2766 2663 2505 2880 
Q 2244 3097 1772 3097 
Q 1472 3097 1187 3025 
Q 903 2953 641 2809 
L 641 3341 
Q 956 3463 1253 3523 
Q 1550 3584 1831 3584 
Q 2591 3584 2966 3190 
Q 3341 2797 3341 1997 
z
" transform="scale(0.015625)"/>
      </defs>
      <use xlink:href="#DejaVuSans-73"/>
      <use xlink:href="#DejaVuSans-74" x="52.099609"/>
      <use xlink:href="#DejaVuSans-61" x="91.308594"/>
      <use xlink:href="#DejaVuSans-72" x="152.587891"/>
     </g>
    </g>
    <g id="line2d_36">
     <path d="M 815.08 343.176562 
L 825.08 343.176562 
L 835.08 343.176562 
" style="fill: none; stroke: #ff7f0e; stroke-width: 1.5; stroke-linecap: square"/>
    </g>
    <g id="text_19">
     <!-- fork -->
     <g style="fill: #a9a9a9" transform="translate(843.08 346.676562)scale(0.1 -0.1)">
      <defs>
       <path id="DejaVuSans-66" d="M 2375 4863 
L 2375 4384 
L 1825 4384 
Q 1516 4384 1395 4259 
Q 1275 4134 1275 3809 
L 1275 3500 
L 2222 3500 
L 2222 3053 
L 1275 3053 
L 1275 0 
L 697 0 
L 697 3053 
L 147 3053 
L 147 3500 
L 697 3500 
L 697 3744 
Q 697 4328 969 4595 
Q 1241 4863 1831 4863 
L 2375 4863 
z
" transform="scale(0.015625)"/>
       <path id="DejaVuSans-6b" d="M 581 4863 
L 1159 4863 
L 1159 1991 
L 2875 3500 
L 3609 3500 
L 1753 1863 
L 3688 0 
L 2938 0 
L 1159 1709 
L 1159 0 
L 581 0 
L 581 4863 
z
" transform="scale(0.015625)"/>
      </defs>
      <use xlink:href="#DejaVuSans-66"/>
      <use xlink:href="#DejaVuSans-6f" x="35.205078"/>
      <use xlink:href="#DejaVuSans-72" x="96.386719"/>
      <use xlink:href="#DejaVuSans-6b" x="137.5"/>
     </g>
    </g>
   </g>
  </g>
 </g>
 <defs>
  <clipPath id="p79912c19bb">
   <rect x="108" y="43.2" width="669.6" height="277.2"/>
  </clipPath>
 </defs>
</svg>
