<?xml version="1.0" encoding="utf-8" standalone="no"?>
<!DOCTYPE svg PUBLIC "-//W3C//DTD SVG 1.1//EN"
  "http://www.w3.org/Graphics/SVG/1.1/DTD/svg11.dtd">
<svg xmlns:xlink="http://www.w3.org/1999/xlink" width="864pt" height="360pt" viewBox="0 0 864 360" xmlns="http://www.w3.org/2000/svg" version="1.1">
 <metadata>
  <rdf:RDF xmlns:dc="http://purl.org/dc/elements/1.1/" xmlns:cc="http://creativecommons.org/ns#" xmlns:rdf="http://www.w3.org/1999/02/22-rdf-syntax-ns#">
   <cc:Work>
    <dc:type rdf:resource="http://purl.org/dc/dcmitype/StillImage"/>
    <dc:date>2022-06-30T09:03:27.574102</dc:date>
    <dc:format>image/svg+xml</dc:format>
    <dc:creator>
     <cc:Agent>
      <dc:title>Matplotlib v3.5.2, https://matplotlib.org/</dc:title>
     </cc:Agent>
    </dc:creator>
   </cc:Work>
  </rdf:RDF>
 </metadata>
 <defs>
  <style type="text/css">*{stroke-linejoin: round; stroke-linecap: butt}</style>
 </defs>
 <g id="figure_1">
  <g id="patch_1">
   <path d="M 0 360 
L 864 360 
L 864 0 
L 0 0 
L 0 360 
z
" style="fill: none; opacity: 0"/>
  </g>
  <g id="axes_1">
   <g id="patch_2">
    <path d="M 108 320.4 
L 777.6 320.4 
L 777.6 43.2 
L 108 43.2 
L 108 320.4 
z
" style="fill: none; opacity: 0"/>
   </g>
   <g id="matplotlib.axis_1">
    <g id="xtick_1">
     <g id="line2d_1">
      <path d="M 208.056198 320.4 
L 208.056198 43.2 
" clip-path="url(#p914d8f9fff)" style="fill: none; stroke-dasharray: 5.12,1.28,0.8,1.28; stroke-dashoffset: 0; stroke: #b0b0b0; stroke-width: 0.8"/>
     </g>
     <g id="line2d_2">
      <defs>
       <path id="ma7c48ccc70" d="M 0 0 
L 0 3.5 
" style="stroke: #a9a9a9; stroke-width: 0.8"/>
      </defs>
      <g>
       <use xlink:href="#ma7c48ccc70" x="208.056198" y="320.4" style="fill: #a9a9a9; stroke: #a9a9a9; stroke-width: 0.8"/>
      </g>
     </g>
     <g id="text_1">
      <!-- 2021-09 -->
      <g style="fill: #a9a9a9" transform="translate(187.164792 334.998438)scale(0.1 -0.1)">
       <defs>
        <path id="DejaVuSans-32" d="M 1228 531 
L 3431 531 
L 3431 0 
L 469 0 
L 469 531 
Q 828 903 1448 1529 
Q 2069 2156 2228 2338 
Q 2531 2678 2651 2914 
Q 2772 3150 2772 3378 
Q 2772 3750 2511 3984 
Q 2250 4219 1831 4219 
Q 1534 4219 1204 4116 
Q 875 4013 500 3803 
L 500 4441 
Q 881 4594 1212 4672 
Q 1544 4750 1819 4750 
Q 2544 4750 2975 4387 
Q 3406 4025 3406 3419 
Q 3406 3131 3298 2873 
Q 3191 2616 2906 2266 
Q 2828 2175 2409 1742 
Q 1991 1309 1228 531 
z
" transform="scale(0.015625)"/>
        <path id="DejaVuSans-30" d="M 2034 4250 
Q 1547 4250 1301 3770 
Q 1056 3291 1056 2328 
Q 1056 1369 1301 889 
Q 1547 409 2034 409 
Q 2525 409 2770 889 
Q 3016 1369 3016 2328 
Q 3016 3291 2770 3770 
Q 2525 4250 2034 4250 
z
M 2034 4750 
Q 2819 4750 3233 4129 
Q 3647 3509 3647 2328 
Q 3647 1150 3233 529 
Q 2819 -91 2034 -91 
Q 1250 -91 836 529 
Q 422 1150 422 2328 
Q 422 3509 836 4129 
Q 1250 4750 2034 4750 
z
" transform="scale(0.015625)"/>
        <path id="DejaVuSans-31" d="M 794 531 
L 1825 531 
L 1825 4091 
L 703 3866 
L 703 4441 
L 1819 4666 
L 2450 4666 
L 2450 531 
L 3481 531 
L 3481 0 
L 794 0 
L 794 531 
z
" transform="scale(0.015625)"/>
        <path id="DejaVuSans-2d" d="M 313 2009 
L 1997 2009 
L 1997 1497 
L 313 1497 
L 313 2009 
z
" transform="scale(0.015625)"/>
        <path id="DejaVuSans-39" d="M 703 97 
L 703 672 
Q 941 559 1184 500 
Q 1428 441 1663 441 
Q 2288 441 2617 861 
Q 2947 1281 2994 2138 
Q 2813 1869 2534 1725 
Q 2256 1581 1919 1581 
Q 1219 1581 811 2004 
Q 403 2428 403 3163 
Q 403 3881 828 4315 
Q 1253 4750 1959 4750 
Q 2769 4750 3195 4129 
Q 3622 3509 3622 2328 
Q 3622 1225 3098 567 
Q 2575 -91 1691 -91 
Q 1453 -91 1209 -44 
Q 966 3 703 97 
z
M 1959 2075 
Q 2384 2075 2632 2365 
Q 2881 2656 2881 3163 
Q 2881 3666 2632 3958 
Q 2384 4250 1959 4250 
Q 1534 4250 1286 3958 
Q 1038 3666 1038 3163 
Q 1038 2656 1286 2365 
Q 1534 2075 1959 2075 
z
" transform="scale(0.015625)"/>
       </defs>
       <use xlink:href="#DejaVuSans-32"/>
       <use xlink:href="#DejaVuSans-30" x="63.623047"/>
       <use xlink:href="#DejaVuSans-32" x="127.246094"/>
       <use xlink:href="#DejaVuSans-31" x="190.869141"/>
       <use xlink:href="#DejaVuSans-2d" x="254.492188"/>
       <use xlink:href="#DejaVuSans-30" x="290.576172"/>
       <use xlink:href="#DejaVuSans-39" x="354.199219"/>
      </g>
     </g>
    </g>
    <g id="xtick_2">
     <g id="line2d_3">
      <path d="M 316.94876 320.4 
L 316.94876 43.2 
" clip-path="url(#p914d8f9fff)" style="fill: none; stroke-dasharray: 5.12,1.28,0.8,1.28; stroke-dashoffset: 0; stroke: #b0b0b0; stroke-width: 0.8"/>
     </g>
     <g id="line2d_4">
      <g>
       <use xlink:href="#ma7c48ccc70" x="316.94876" y="320.4" style="fill: #a9a9a9; stroke: #a9a9a9; stroke-width: 0.8"/>
      </g>
     </g>
     <g id="text_2">
      <!-- 2021-11 -->
      <g style="fill: #a9a9a9" transform="translate(296.057354 334.998438)scale(0.1 -0.1)">
       <use xlink:href="#DejaVuSans-32"/>
       <use xlink:href="#DejaVuSans-30" x="63.623047"/>
       <use xlink:href="#DejaVuSans-32" x="127.246094"/>
       <use xlink:href="#DejaVuSans-31" x="190.869141"/>
       <use xlink:href="#DejaVuSans-2d" x="254.492188"/>
       <use xlink:href="#DejaVuSans-31" x="290.576172"/>
       <use xlink:href="#DejaVuSans-31" x="354.199219"/>
      </g>
     </g>
    </g>
    <g id="xtick_3">
     <g id="line2d_5">
      <path d="M 425.841322 320.4 
L 425.841322 43.2 
" clip-path="url(#p914d8f9fff)" style="fill: none; stroke-dasharray: 5.12,1.28,0.8,1.28; stroke-dashoffset: 0; stroke: #b0b0b0; stroke-width: 0.8"/>
     </g>
     <g id="line2d_6">
      <g>
       <use xlink:href="#ma7c48ccc70" x="425.841322" y="320.4" style="fill: #a9a9a9; stroke: #a9a9a9; stroke-width: 0.8"/>
      </g>
     </g>
     <g id="text_3">
      <!-- 2022-01 -->
      <g style="fill: #a9a9a9" transform="translate(404.949916 334.998438)scale(0.1 -0.1)">
       <use xlink:href="#DejaVuSans-32"/>
       <use xlink:href="#DejaVuSans-30" x="63.623047"/>
       <use xlink:href="#DejaVuSans-32" x="127.246094"/>
       <use xlink:href="#DejaVuSans-32" x="190.869141"/>
       <use xlink:href="#DejaVuSans-2d" x="254.492188"/>
       <use xlink:href="#DejaVuSans-30" x="290.576172"/>
       <use xlink:href="#DejaVuSans-31" x="354.199219"/>
      </g>
     </g>
    </g>
    <g id="xtick_4">
     <g id="line2d_7">
      <path d="M 531.163636 320.4 
L 531.163636 43.2 
" clip-path="url(#p914d8f9fff)" style="fill: none; stroke-dasharray: 5.12,1.28,0.8,1.28; stroke-dashoffset: 0; stroke: #b0b0b0; stroke-width: 0.8"/>
     </g>
     <g id="line2d_8">
      <g>
       <use xlink:href="#ma7c48ccc70" x="531.163636" y="320.4" style="fill: #a9a9a9; stroke: #a9a9a9; stroke-width: 0.8"/>
      </g>
     </g>
     <g id="text_4">
      <!-- 2022-03 -->
      <g style="fill: #a9a9a9" transform="translate(510.27223 334.998438)scale(0.1 -0.1)">
       <defs>
        <path id="DejaVuSans-33" d="M 2597 2516 
Q 3050 2419 3304 2112 
Q 3559 1806 3559 1356 
Q 3559 666 3084 287 
Q 2609 -91 1734 -91 
Q 1441 -91 1130 -33 
Q 819 25 488 141 
L 488 750 
Q 750 597 1062 519 
Q 1375 441 1716 441 
Q 2309 441 2620 675 
Q 2931 909 2931 1356 
Q 2931 1769 2642 2001 
Q 2353 2234 1838 2234 
L 1294 2234 
L 1294 2753 
L 1863 2753 
Q 2328 2753 2575 2939 
Q 2822 3125 2822 3475 
Q 2822 3834 2567 4026 
Q 2313 4219 1838 4219 
Q 1578 4219 1281 4162 
Q 984 4106 628 3988 
L 628 4550 
Q 988 4650 1302 4700 
Q 1616 4750 1894 4750 
Q 2613 4750 3031 4423 
Q 3450 4097 3450 3541 
Q 3450 3153 3228 2886 
Q 3006 2619 2597 2516 
z
" transform="scale(0.015625)"/>
       </defs>
       <use xlink:href="#DejaVuSans-32"/>
       <use xlink:href="#DejaVuSans-30" x="63.623047"/>
       <use xlink:href="#DejaVuSans-32" x="127.246094"/>
       <use xlink:href="#DejaVuSans-32" x="190.869141"/>
       <use xlink:href="#DejaVuSans-2d" x="254.492188"/>
       <use xlink:href="#DejaVuSans-30" x="290.576172"/>
       <use xlink:href="#DejaVuSans-33" x="354.199219"/>
      </g>
     </g>
    </g>
    <g id="xtick_5">
     <g id="line2d_9">
      <path d="M 640.056198 320.4 
L 640.056198 43.2 
" clip-path="url(#p914d8f9fff)" style="fill: none; stroke-dasharray: 5.12,1.28,0.8,1.28; stroke-dashoffset: 0; stroke: #b0b0b0; stroke-width: 0.8"/>
     </g>
     <g id="line2d_10">
      <g>
       <use xlink:href="#ma7c48ccc70" x="640.056198" y="320.4" style="fill: #a9a9a9; stroke: #a9a9a9; stroke-width: 0.8"/>
      </g>
     </g>
     <g id="text_5">
      <!-- 2022-05 -->
      <g style="fill: #a9a9a9" transform="translate(619.164792 334.998438)scale(0.1 -0.1)">
       <defs>
        <path id="DejaVuSans-35" d="M 691 4666 
L 3169 4666 
L 3169 4134 
L 1269 4134 
L 1269 2991 
Q 1406 3038 1543 3061 
Q 1681 3084 1819 3084 
Q 2600 3084 3056 2656 
Q 3513 2228 3513 1497 
Q 3513 744 3044 326 
Q 2575 -91 1722 -91 
Q 1428 -91 1123 -41 
Q 819 9 494 109 
L 494 744 
Q 775 591 1075 516 
Q 1375 441 1709 441 
Q 2250 441 2565 725 
Q 2881 1009 2881 1497 
Q 2881 1984 2565 2268 
Q 2250 2553 1709 2553 
Q 1456 2553 1204 2497 
Q 953 2441 691 2322 
L 691 4666 
z
" transform="scale(0.015625)"/>
       </defs>
       <use xlink:href="#DejaVuSans-32"/>
       <use xlink:href="#DejaVuSans-30" x="63.623047"/>
       <use xlink:href="#DejaVuSans-32" x="127.246094"/>
       <use xlink:href="#DejaVuSans-32" x="190.869141"/>
       <use xlink:href="#DejaVuSans-2d" x="254.492188"/>
       <use xlink:href="#DejaVuSans-30" x="290.576172"/>
       <use xlink:href="#DejaVuSans-35" x="354.199219"/>
      </g>
     </g>
    </g>
    <g id="xtick_6">
     <g id="line2d_11">
      <path d="M 748.94876 320.4 
L 748.94876 43.2 
" clip-path="url(#p914d8f9fff)" style="fill: none; stroke-dasharray: 5.12,1.28,0.8,1.28; stroke-dashoffset: 0; stroke: #b0b0b0; stroke-width: 0.8"/>
     </g>
     <g id="line2d_12">
      <g>
       <use xlink:href="#ma7c48ccc70" x="748.94876" y="320.4" style="fill: #a9a9a9; stroke: #a9a9a9; stroke-width: 0.8"/>
      </g>
     </g>
     <g id="text_6">
      <!-- 2022-07 -->
      <g style="fill: #a9a9a9" transform="translate(728.057354 334.998438)scale(0.1 -0.1)">
       <defs>
        <path id="DejaVuSans-37" d="M 525 4666 
L 3525 4666 
L 3525 4397 
L 1831 0 
L 1172 0 
L 2766 4134 
L 525 4134 
L 525 4666 
z
" transform="scale(0.015625)"/>
       </defs>
       <use xlink:href="#DejaVuSans-32"/>
       <use xlink:href="#DejaVuSans-30" x="63.623047"/>
       <use xlink:href="#DejaVuSans-32" x="127.246094"/>
       <use xlink:href="#DejaVuSans-32" x="190.869141"/>
       <use xlink:href="#DejaVuSans-2d" x="254.492188"/>
       <use xlink:href="#DejaVuSans-30" x="290.576172"/>
       <use xlink:href="#DejaVuSans-37" x="354.199219"/>
      </g>
     </g>
    </g>
   </g>
   <g id="matplotlib.axis_2">
    <g id="ytick_1">
     <g id="line2d_13">
      <path d="M 108 307.914234 
L 777.6 307.914234 
" clip-path="url(#p914d8f9fff)" style="fill: none; stroke-dasharray: 5.12,1.28,0.8,1.28; stroke-dashoffset: 0; stroke: #b0b0b0; stroke-width: 0.8"/>
     </g>
     <g id="line2d_14">
      <defs>
       <path id="madab3977ad" d="M 0 0 
L -3.5 0 
" style="stroke: #a9a9a9; stroke-width: 0.8"/>
      </defs>
      <g>
       <use xlink:href="#madab3977ad" x="108" y="307.914234" style="fill: #a9a9a9; stroke: #a9a9a9; stroke-width: 0.8"/>
      </g>
     </g>
     <g id="text_7">
      <!-- 0 -->
      <g style="fill: #a9a9a9" transform="translate(94.6375 311.713453)scale(0.1 -0.1)">
       <use xlink:href="#DejaVuSans-30"/>
      </g>
     </g>
    </g>
    <g id="ytick_2">
     <g id="line2d_15">
      <path d="M 108 279.355757 
L 777.6 279.355757 
" clip-path="url(#p914d8f9fff)" style="fill: none; stroke-dasharray: 5.12,1.28,0.8,1.28; stroke-dashoffset: 0; stroke: #b0b0b0; stroke-width: 0.8"/>
     </g>
     <g id="line2d_16">
      <g>
       <use xlink:href="#madab3977ad" x="108" y="279.355757" style="fill: #a9a9a9; stroke: #a9a9a9; stroke-width: 0.8"/>
      </g>
     </g>
     <g id="text_8">
      <!-- 250 -->
      <g style="fill: #a9a9a9" transform="translate(81.9125 283.154976)scale(0.1 -0.1)">
       <use xlink:href="#DejaVuSans-32"/>
       <use xlink:href="#DejaVuSans-35" x="63.623047"/>
       <use xlink:href="#DejaVuSans-30" x="127.246094"/>
      </g>
     </g>
    </g>
    <g id="ytick_3">
     <g id="line2d_17">
      <path d="M 108 250.79728 
L 777.6 250.79728 
" clip-path="url(#p914d8f9fff)" style="fill: none; stroke-dasharray: 5.12,1.28,0.8,1.28; stroke-dashoffset: 0; stroke: #b0b0b0; stroke-width: 0.8"/>
     </g>
     <g id="line2d_18">
      <g>
       <use xlink:href="#madab3977ad" x="108" y="250.79728" style="fill: #a9a9a9; stroke: #a9a9a9; stroke-width: 0.8"/>
      </g>
     </g>
     <g id="text_9">
      <!-- 500 -->
      <g style="fill: #a9a9a9" transform="translate(81.9125 254.596499)scale(0.1 -0.1)">
       <use xlink:href="#DejaVuSans-35"/>
       <use xlink:href="#DejaVuSans-30" x="63.623047"/>
       <use xlink:href="#DejaVuSans-30" x="127.246094"/>
      </g>
     </g>
    </g>
    <g id="ytick_4">
     <g id="line2d_19">
      <path d="M 108 222.238803 
L 777.6 222.238803 
" clip-path="url(#p914d8f9fff)" style="fill: none; stroke-dasharray: 5.12,1.28,0.8,1.28; stroke-dashoffset: 0; stroke: #b0b0b0; stroke-width: 0.8"/>
     </g>
     <g id="line2d_20">
      <g>
       <use xlink:href="#madab3977ad" x="108" y="222.238803" style="fill: #a9a9a9; stroke: #a9a9a9; stroke-width: 0.8"/>
      </g>
     </g>
     <g id="text_10">
      <!-- 750 -->
      <g style="fill: #a9a9a9" transform="translate(81.9125 226.038022)scale(0.1 -0.1)">
       <use xlink:href="#DejaVuSans-37"/>
       <use xlink:href="#DejaVuSans-35" x="63.623047"/>
       <use xlink:href="#DejaVuSans-30" x="127.246094"/>
      </g>
     </g>
    </g>
    <g id="ytick_5">
     <g id="line2d_21">
      <path d="M 108 193.680326 
L 777.6 193.680326 
" clip-path="url(#p914d8f9fff)" style="fill: none; stroke-dasharray: 5.12,1.28,0.8,1.28; stroke-dashoffset: 0; stroke: #b0b0b0; stroke-width: 0.8"/>
     </g>
     <g id="line2d_22">
      <g>
       <use xlink:href="#madab3977ad" x="108" y="193.680326" style="fill: #a9a9a9; stroke: #a9a9a9; stroke-width: 0.8"/>
      </g>
     </g>
     <g id="text_11">
      <!-- 1000 -->
      <g style="fill: #a9a9a9" transform="translate(75.55 197.479545)scale(0.1 -0.1)">
       <use xlink:href="#DejaVuSans-31"/>
       <use xlink:href="#DejaVuSans-30" x="63.623047"/>
       <use xlink:href="#DejaVuSans-30" x="127.246094"/>
       <use xlink:href="#DejaVuSans-30" x="190.869141"/>
      </g>
     </g>
    </g>
    <g id="ytick_6">
     <g id="line2d_23">
      <path d="M 108 165.12185 
L 777.6 165.12185 
" clip-path="url(#p914d8f9fff)" style="fill: none; stroke-dasharray: 5.12,1.28,0.8,1.28; stroke-dashoffset: 0; stroke: #b0b0b0; stroke-width: 0.8"/>
     </g>
     <g id="line2d_24">
      <g>
       <use xlink:href="#madab3977ad" x="108" y="165.12185" style="fill: #a9a9a9; stroke: #a9a9a9; stroke-width: 0.8"/>
      </g>
     </g>
     <g id="text_12">
      <!-- 1250 -->
      <g style="fill: #a9a9a9" transform="translate(75.55 168.921068)scale(0.1 -0.1)">
       <use xlink:href="#DejaVuSans-31"/>
       <use xlink:href="#DejaVuSans-32" x="63.623047"/>
       <use xlink:href="#DejaVuSans-35" x="127.246094"/>
       <use xlink:href="#DejaVuSans-30" x="190.869141"/>
      </g>
     </g>
    </g>
    <g id="ytick_7">
     <g id="line2d_25">
      <path d="M 108 136.563373 
L 777.6 136.563373 
" clip-path="url(#p914d8f9fff)" style="fill: none; stroke-dasharray: 5.12,1.28,0.8,1.28; stroke-dashoffset: 0; stroke: #b0b0b0; stroke-width: 0.8"/>
     </g>
     <g id="line2d_26">
      <g>
       <use xlink:href="#madab3977ad" x="108" y="136.563373" style="fill: #a9a9a9; stroke: #a9a9a9; stroke-width: 0.8"/>
      </g>
     </g>
     <g id="text_13">
      <!-- 1500 -->
      <g style="fill: #a9a9a9" transform="translate(75.55 140.362591)scale(0.1 -0.1)">
       <use xlink:href="#DejaVuSans-31"/>
       <use xlink:href="#DejaVuSans-35" x="63.623047"/>
       <use xlink:href="#DejaVuSans-30" x="127.246094"/>
       <use xlink:href="#DejaVuSans-30" x="190.869141"/>
      </g>
     </g>
    </g>
    <g id="ytick_8">
     <g id="line2d_27">
      <path d="M 108 108.004896 
L 777.6 108.004896 
" clip-path="url(#p914d8f9fff)" style="fill: none; stroke-dasharray: 5.12,1.28,0.8,1.28; stroke-dashoffset: 0; stroke: #b0b0b0; stroke-width: 0.8"/>
     </g>
     <g id="line2d_28">
      <g>
       <use xlink:href="#madab3977ad" x="108" y="108.004896" style="fill: #a9a9a9; stroke: #a9a9a9; stroke-width: 0.8"/>
      </g>
     </g>
     <g id="text_14">
      <!-- 1750 -->
      <g style="fill: #a9a9a9" transform="translate(75.55 111.804114)scale(0.1 -0.1)">
       <use xlink:href="#DejaVuSans-31"/>
       <use xlink:href="#DejaVuSans-37" x="63.623047"/>
       <use xlink:href="#DejaVuSans-35" x="127.246094"/>
       <use xlink:href="#DejaVuSans-30" x="190.869141"/>
      </g>
     </g>
    </g>
    <g id="ytick_9">
     <g id="line2d_29">
      <path d="M 108 79.446419 
L 777.6 79.446419 
" clip-path="url(#p914d8f9fff)" style="fill: none; stroke-dasharray: 5.12,1.28,0.8,1.28; stroke-dashoffset: 0; stroke: #b0b0b0; stroke-width: 0.8"/>
     </g>
     <g id="line2d_30">
      <g>
       <use xlink:href="#madab3977ad" x="108" y="79.446419" style="fill: #a9a9a9; stroke: #a9a9a9; stroke-width: 0.8"/>
      </g>
     </g>
     <g id="text_15">
      <!-- 2000 -->
      <g style="fill: #a9a9a9" transform="translate(75.55 83.245638)scale(0.1 -0.1)">
       <use xlink:href="#DejaVuSans-32"/>
       <use xlink:href="#DejaVuSans-30" x="63.623047"/>
       <use xlink:href="#DejaVuSans-30" x="127.246094"/>
       <use xlink:href="#DejaVuSans-30" x="190.869141"/>
      </g>
     </g>
    </g>
    <g id="ytick_10">
     <g id="line2d_31">
      <path d="M 108 50.887942 
L 777.6 50.887942 
" clip-path="url(#p914d8f9fff)" style="fill: none; stroke-dasharray: 5.12,1.28,0.8,1.28; stroke-dashoffset: 0; stroke: #b0b0b0; stroke-width: 0.8"/>
     </g>
     <g id="line2d_32">
      <g>
       <use xlink:href="#madab3977ad" x="108" y="50.887942" style="fill: #a9a9a9; stroke: #a9a9a9; stroke-width: 0.8"/>
      </g>
     </g>
     <g id="text_16">
      <!-- 2250 -->
      <g style="fill: #a9a9a9" transform="translate(75.55 54.687161)scale(0.1 -0.1)">
       <use xlink:href="#DejaVuSans-32"/>
       <use xlink:href="#DejaVuSans-32" x="63.623047"/>
       <use xlink:href="#DejaVuSans-35" x="127.246094"/>
       <use xlink:href="#DejaVuSans-30" x="190.869141"/>
      </g>
     </g>
    </g>
   </g>
   <g id="line2d_33">
    <path d="M 138.436364 307.457298 
L 142.006612 307.22883 
L 147.361983 306.543427 
L 149.147107 306.543427 
L 150.932231 305.858024 
L 154.502479 305.629556 
L 158.072727 304.944152 
L 159.857851 304.715684 
L 161.642975 304.258749 
L 163.428099 304.030281 
L 166.998347 303.230644 
L 168.783471 303.11641 
L 170.568595 302.887942 
L 172.353719 302.54524 
L 177.709091 302.202539 
L 179.494215 301.288667 
L 181.279339 300.831732 
L 183.064463 298.775521 
L 184.849587 297.633182 
L 186.634711 293.634995 
L 188.419835 293.406528 
L 190.204959 292.035721 
L 191.990083 291.350317 
L 193.775207 290.322212 
L 199.130579 286.095558 
L 200.915702 285.181686 
L 204.48595 283.696646 
L 206.271074 282.440073 
L 208.056198 281.754669 
L 211.626446 279.584225 
L 213.41157 278.898821 
L 215.196694 276.042974 
L 216.981818 274.672167 
L 218.766942 273.644062 
L 220.552066 272.844424 
L 225.907438 272.159021 
L 229.477686 271.473617 
L 231.26281 271.24515 
L 233.047934 270.902448 
L 236.618182 270.67398 
L 238.403306 270.217044 
L 240.18843 269.303173 
L 243.758678 269.074705 
L 245.543802 269.074705 
L 247.328926 268.732004 
L 250.899174 268.275068 
L 252.684298 268.160834 
L 254.469421 267.475431 
L 256.254545 267.132729 
L 259.824793 266.333092 
L 261.609917 266.104624 
L 263.395041 265.761922 
L 265.180165 265.647688 
L 266.965289 265.41922 
L 268.750413 264.962285 
L 270.535537 264.733817 
L 272.320661 264.619583 
L 274.105785 264.276881 
L 275.890909 263.36301 
L 277.676033 263.134542 
L 281.246281 261.877969 
L 283.031405 261.649501 
L 284.816529 261.535267 
L 286.601653 260.964098 
L 288.386777 260.621396 
L 290.171901 260.507162 
L 291.957025 260.050227 
L 293.742149 259.821759 
L 297.312397 258.67942 
L 299.097521 258.450952 
L 300.882645 258.450952 
L 302.667769 258.222484 
L 304.452893 258.10825 
L 306.238017 257.879782 
L 308.02314 257.308613 
L 309.808264 257.194379 
L 313.378512 256.166274 
L 315.163636 255.709338 
L 316.94876 255.48087 
L 320.519008 255.252403 
L 322.304132 254.909701 
L 324.089256 254.681233 
L 325.87438 254.224297 
L 327.659504 253.538894 
L 329.444628 251.254216 
L 331.229752 250.568812 
L 333.014876 249.654941 
L 334.8 249.426473 
L 336.585124 248.969538 
L 338.370248 248.74107 
L 341.940496 247.256029 
L 343.72562 247.141795 
L 352.65124 244.742883 
L 354.436364 244.742883 
L 358.006612 244.285947 
L 359.791736 243.600544 
L 363.361983 242.572439 
L 365.147107 242.001269 
L 366.932231 241.658568 
L 368.717355 241.544334 
L 372.287603 240.059293 
L 374.072727 239.830825 
L 375.857851 239.031188 
L 377.642975 238.80272 
L 381.213223 238.574252 
L 382.998347 238.23155 
L 384.783471 237.774615 
L 386.568595 237.660381 
L 388.353719 237.431913 
L 391.923967 236.74651 
L 393.709091 236.518042 
L 399.064463 235.261469 
L 400.849587 234.461831 
L 402.634711 233.890662 
L 404.419835 232.862557 
L 406.204959 232.405621 
L 407.990083 232.177153 
L 411.560331 231.034814 
L 415.130579 229.092838 
L 416.915702 227.836265 
L 418.700826 227.607797 
L 420.48595 227.036627 
L 422.271074 226.80816 
L 424.056198 226.351224 
L 425.841322 226.122756 
L 427.626446 225.323119 
L 431.196694 224.637715 
L 434.766942 222.924207 
L 436.552066 222.467271 
L 438.33719 222.238803 
L 440.122314 221.5534 
L 441.907438 221.210698 
L 445.477686 220.411061 
L 447.26281 220.182593 
L 450.833058 218.583318 
L 452.618182 218.240617 
L 454.403306 217.440979 
L 456.18843 217.212511 
L 457.973554 216.412874 
L 459.758678 215.955938 
L 461.543802 215.727471 
L 463.328926 215.613237 
L 466.899174 214.356664 
L 468.684298 214.128196 
L 470.469421 214.128196 
L 472.254545 213.328558 
L 474.039669 212.985857 
L 475.824793 212.757389 
L 477.609917 212.071985 
L 479.395041 212.071985 
L 481.180165 211.957752 
L 482.965289 211.729284 
L 484.750413 211.61505 
L 486.535537 211.386582 
L 488.320661 211.04388 
L 491.890909 209.330372 
L 495.461157 207.731097 
L 497.246281 207.274161 
L 499.031405 206.131822 
L 500.816529 205.560653 
L 504.386777 203.961378 
L 506.171901 203.618676 
L 507.957025 202.819039 
L 509.742149 202.247869 
L 511.527273 200.991296 
L 513.312397 200.077425 
L 515.097521 198.249683 
L 516.882645 195.279601 
L 518.667769 192.766455 
L 520.452893 192.195286 
L 522.238017 192.081052 
L 525.808264 189.453672 
L 527.593388 188.996736 
L 529.378512 187.968631 
L 531.163636 187.625929 
L 532.94876 186.026655 
L 534.733884 185.569719 
L 540.089256 183.170807 
L 541.87438 181.114597 
L 543.659504 178.258749 
L 545.444628 177.230644 
L 547.229752 174.374796 
L 549.014876 172.661287 
L 550.8 171.747416 
L 552.585124 171.176247 
L 554.370248 169.919674 
L 557.940496 168.206165 
L 559.72562 166.949592 
L 561.510744 165.464551 
L 563.295868 164.207978 
L 565.080992 163.179873 
L 566.866116 160.552493 
L 568.65124 156.325839 
L 570.436364 153.698459 
L 572.221488 152.213418 
L 574.006612 151.299547 
L 577.57686 147.872529 
L 581.147107 145.016682 
L 584.717355 142.160834 
L 586.502479 140.561559 
L 588.287603 138.048413 
L 590.072727 136.334905 
L 591.857851 134.964098 
L 595.428099 132.565186 
L 600.783471 128.452765 
L 602.568595 127.99583 
L 607.923967 125.139982 
L 611.494215 123.198005 
L 613.279339 122.398368 
L 616.849587 119.314053 
L 618.634711 117.029374 
L 622.204959 114.630462 
L 623.990083 114.173527 
L 625.775207 113.259655 
L 627.560331 112.003083 
L 631.130579 110.17534 
L 632.915702 109.832638 
L 638.271074 106.519855 
L 640.056198 104.806346 
L 641.841322 103.549773 
L 643.626446 102.978604 
L 645.41157 101.722031 
L 647.196694 100.922393 
L 648.981818 99.66582 
L 650.766942 98.866183 
L 652.552066 97.723844 
L 654.33719 96.238803 
L 657.907438 94.98223 
L 659.692562 94.068359 
L 661.477686 93.611423 
L 663.26281 92.469084 
L 665.047934 92.012149 
L 679.328926 86.528921 
L 682.899174 85.843518 
L 684.684298 84.130009 
L 686.469421 82.759202 
L 688.254545 82.073799 
L 695.395041 77.961378 
L 697.180165 77.161741 
L 698.965289 76.590571 
L 700.750413 75.219764 
L 702.535537 74.534361 
L 707.890909 71.221578 
L 709.676033 70.878876 
L 716.816529 69.051133 
L 722.171901 66.081052 
L 723.957025 65.852584 
L 725.742149 65.16718 
L 727.527273 64.824479 
L 729.312397 64.024841 
L 731.097521 62.768268 
L 732.882645 61.283228 
L 734.667769 60.140888 
L 736.452893 59.798187 
L 738.238017 58.884316 
L 740.02314 58.42738 
L 741.808264 57.741976 
L 743.593388 56.485403 
L 745.378512 55.914234 
L 747.163636 55.8 
L 747.163636 55.8 
" clip-path="url(#p914d8f9fff)" style="fill: none; stroke: #1f77b4; stroke-width: 1.5; stroke-linecap: square"/>
   </g>
   <g id="line2d_34">
    <path d="M 140.221488 307.8 
L 143.791736 307.8 
L 147.361983 307.343064 
L 156.287603 307.343064 
L 159.857851 307.114597 
L 161.642975 307.114597 
L 163.428099 307.000363 
L 166.998347 307.000363 
L 170.568595 306.771895 
L 177.709091 306.771895 
L 179.494215 306.314959 
L 181.279339 306.314959 
L 183.064463 306.086491 
L 184.849587 306.086491 
L 186.634711 305.858024 
L 188.419835 305.74379 
L 193.775207 305.058386 
L 199.130579 304.715684 
L 200.915702 304.715684 
L 204.48595 304.487217 
L 206.271074 304.258749 
L 209.841322 304.258749 
L 211.626446 303.916047 
L 213.41157 303.916047 
L 215.196694 303.801813 
L 216.981818 303.801813 
L 220.552066 303.344878 
L 227.692562 303.344878 
L 229.477686 303.11641 
L 236.618182 303.11641 
L 240.18843 302.887942 
L 241.973554 302.887942 
L 243.758678 302.773708 
L 254.469421 302.773708 
L 256.254545 302.659474 
L 259.824793 302.659474 
L 261.609917 302.54524 
L 266.965289 302.54524 
L 268.750413 302.431006 
L 270.535537 302.431006 
L 272.320661 302.316772 
L 274.105785 302.316772 
L 275.890909 302.202539 
L 283.031405 302.202539 
L 284.816529 301.974071 
L 286.601653 301.974071 
L 288.386777 301.859837 
L 290.171901 301.859837 
L 293.742149 301.631369 
L 295.527273 301.631369 
L 297.312397 301.517135 
L 304.452893 301.517135 
L 306.238017 301.402901 
L 309.808264 301.402901 
L 311.593388 301.288667 
L 316.94876 301.288667 
L 318.733884 301.174433 
L 320.519008 301.174433 
L 322.304132 300.945966 
L 324.089256 300.831732 
L 325.87438 300.48903 
L 327.659504 300.48903 
L 329.444628 300.374796 
L 334.8 300.374796 
L 336.585124 300.260562 
L 338.370248 300.032094 
L 341.940496 300.032094 
L 343.72562 299.91786 
L 345.510744 299.91786 
L 347.295868 299.803626 
L 352.65124 299.803626 
L 356.221488 299.575159 
L 359.791736 299.575159 
L 361.57686 299.460925 
L 363.361983 299.232457 
L 365.147107 299.118223 
L 366.932231 298.889755 
L 368.717355 298.775521 
L 370.502479 298.775521 
L 372.287603 298.661287 
L 374.072727 298.661287 
L 375.857851 298.547053 
L 377.642975 298.547053 
L 379.428099 298.43282 
L 384.783471 298.43282 
L 386.568595 298.204352 
L 391.923967 298.204352 
L 393.709091 297.975884 
L 395.494215 297.86165 
L 397.279339 297.633182 
L 399.064463 297.633182 
L 400.849587 297.518948 
L 402.634711 297.518948 
L 404.419835 297.404714 
L 409.775207 297.404714 
L 411.560331 297.176247 
L 413.345455 296.833545 
L 418.700826 296.490843 
L 420.48595 296.148141 
L 422.271074 296.148141 
L 424.056198 296.033908 
L 427.626446 296.033908 
L 429.41157 295.919674 
L 431.196694 295.691206 
L 432.981818 295.576972 
L 434.766942 295.348504 
L 440.122314 295.005802 
L 441.907438 295.005802 
L 445.477686 294.777335 
L 449.047934 294.777335 
L 454.403306 294.434633 
L 457.973554 294.434633 
L 459.758678 294.206165 
L 463.328926 293.977697 
L 466.899174 293.977697 
L 468.684298 293.749229 
L 470.469421 293.749229 
L 474.039669 293.520762 
L 475.824793 293.292294 
L 479.395041 293.292294 
L 481.180165 293.17806 
L 482.965289 293.17806 
L 488.320661 292.835358 
L 493.676033 292.835358 
L 497.246281 292.60689 
L 504.386777 292.60689 
L 506.171901 292.492656 
L 507.957025 292.492656 
L 509.742149 292.264189 
L 511.527273 291.921487 
L 515.097521 291.693019 
L 516.882645 291.693019 
L 518.667769 291.464551 
L 520.452893 291.350317 
L 522.238017 291.350317 
L 525.808264 291.12185 
L 527.593388 291.12185 
L 529.378512 290.779148 
L 531.163636 290.664914 
L 532.94876 290.436446 
L 534.733884 289.97951 
L 538.304132 289.751043 
L 540.089256 289.294107 
L 541.87438 289.179873 
L 543.659504 288.951405 
L 545.444628 288.837171 
L 549.014876 288.037534 
L 550.8 287.9233 
L 552.585124 287.9233 
L 554.370248 287.809066 
L 556.155372 287.809066 
L 557.940496 287.580598 
L 559.72562 287.580598 
L 561.510744 287.352131 
L 565.080992 286.666727 
L 566.866116 286.209791 
L 570.436364 285.752856 
L 572.221488 285.752856 
L 575.791736 285.29592 
L 577.57686 285.29592 
L 582.932231 284.953218 
L 586.502479 284.496283 
L 590.072727 284.267815 
L 591.857851 284.267815 
L 593.642975 284.153581 
L 595.428099 283.925113 
L 597.213223 283.810879 
L 600.783471 283.810879 
L 602.568595 283.582412 
L 604.353719 283.23971 
L 606.138843 283.125476 
L 607.923967 282.897008 
L 609.709091 282.897008 
L 611.494215 282.554306 
L 613.279339 282.325839 
L 615.064463 281.983137 
L 618.634711 281.754669 
L 623.990083 281.754669 
L 625.775207 281.297733 
L 627.560331 281.069266 
L 629.345455 281.069266 
L 632.915702 280.840798 
L 634.700826 280.840798 
L 636.48595 280.498096 
L 638.271074 280.383862 
L 640.056198 280.383862 
L 643.626446 279.926927 
L 645.41157 279.584225 
L 647.196694 279.127289 
L 648.981818 278.898821 
L 650.766942 278.898821 
L 654.33719 278.670354 
L 656.122314 278.441886 
L 657.907438 278.441886 
L 661.477686 278.213418 
L 665.047934 278.213418 
L 668.618182 277.98495 
L 670.403306 277.98495 
L 673.973554 277.528015 
L 675.758678 277.413781 
L 677.543802 277.413781 
L 681.11405 277.185313 
L 682.899174 276.956845 
L 688.254545 276.614143 
L 693.609917 276.614143 
L 695.395041 276.385675 
L 697.180165 276.271442 
L 700.750413 276.271442 
L 702.535537 275.92874 
L 704.320661 275.814506 
L 706.105785 275.586038 
L 707.890909 275.471804 
L 709.676033 275.471804 
L 711.461157 275.243336 
L 715.031405 275.243336 
L 716.816529 275.129102 
L 718.601653 274.786401 
L 722.171901 274.786401 
L 723.957025 274.557933 
L 725.742149 274.557933 
L 729.312397 274.329465 
L 731.097521 274.329465 
L 732.882645 273.986763 
L 736.452893 273.986763 
L 738.238017 273.872529 
L 743.593388 273.872529 
L 745.378512 273.644062 
L 747.163636 273.529828 
L 747.163636 273.529828 
" clip-path="url(#p914d8f9fff)" style="fill: none; stroke: #ff7f0e; stroke-width: 1.5; stroke-linecap: square"/>
   </g>
   <g id="patch_3">
    <path d="M 108 320.4 
L 108 43.2 
" style="fill: none; stroke: #a9a9a9; stroke-width: 0.8; stroke-linejoin: miter; stroke-linecap: square"/>
   </g>
   <g id="patch_4">
    <path d="M 777.6 320.4 
L 777.6 43.2 
" style="fill: none"/>
   </g>
   <g id="patch_5">
    <path d="M 108 320.4 
L 777.6 320.4 
" style="fill: none; stroke: #a9a9a9; stroke-width: 0.8; stroke-linejoin: miter; stroke-linecap: square"/>
   </g>
   <g id="patch_6">
    <path d="M 108 43.2 
L 777.6 43.2 
" style="fill: none"/>
   </g>
   <g id="text_17">
    <!-- get_subscribe history -->
    <g style="fill: #a9a9a9" transform="translate(378.6075 37.2)scale(0.12 -0.12)">
     <defs>
      <path id="DejaVuSans-67" d="M 2906 1791 
Q 2906 2416 2648 2759 
Q 2391 3103 1925 3103 
Q 1463 3103 1205 2759 
Q 947 2416 947 1791 
Q 947 1169 1205 825 
Q 1463 481 1925 481 
Q 2391 481 2648 825 
Q 2906 1169 2906 1791 
z
M 3481 434 
Q 3481 -459 3084 -895 
Q 2688 -1331 1869 -1331 
Q 1566 -1331 1297 -1286 
Q 1028 -1241 775 -1147 
L 775 -588 
Q 1028 -725 1275 -790 
Q 1522 -856 1778 -856 
Q 2344 -856 2625 -561 
Q 2906 -266 2906 331 
L 2906 616 
Q 2728 306 2450 153 
Q 2172 0 1784 0 
Q 1141 0 747 490 
Q 353 981 353 1791 
Q 353 2603 747 3093 
Q 1141 3584 1784 3584 
Q 2172 3584 2450 3431 
Q 2728 3278 2906 2969 
L 2906 3500 
L 3481 3500 
L 3481 434 
z
" transform="scale(0.015625)"/>
      <path id="DejaVuSans-65" d="M 3597 1894 
L 3597 1613 
L 953 1613 
Q 991 1019 1311 708 
Q 1631 397 2203 397 
Q 2534 397 2845 478 
Q 3156 559 3463 722 
L 3463 178 
Q 3153 47 2828 -22 
Q 2503 -91 2169 -91 
Q 1331 -91 842 396 
Q 353 884 353 1716 
Q 353 2575 817 3079 
Q 1281 3584 2069 3584 
Q 2775 3584 3186 3129 
Q 3597 2675 3597 1894 
z
M 3022 2063 
Q 3016 2534 2758 2815 
Q 2500 3097 2075 3097 
Q 1594 3097 1305 2825 
Q 1016 2553 972 2059 
L 3022 2063 
z
" transform="scale(0.015625)"/>
      <path id="DejaVuSans-74" d="M 1172 4494 
L 1172 3500 
L 2356 3500 
L 2356 3053 
L 1172 3053 
L 1172 1153 
Q 1172 725 1289 603 
Q 1406 481 1766 481 
L 2356 481 
L 2356 0 
L 1766 0 
Q 1100 0 847 248 
Q 594 497 594 1153 
L 594 3053 
L 172 3053 
L 172 3500 
L 594 3500 
L 594 4494 
L 1172 4494 
z
" transform="scale(0.015625)"/>
      <path id="DejaVuSans-5f" d="M 3263 -1063 
L 3263 -1509 
L -63 -1509 
L -63 -1063 
L 3263 -1063 
z
" transform="scale(0.015625)"/>
      <path id="DejaVuSans-73" d="M 2834 3397 
L 2834 2853 
Q 2591 2978 2328 3040 
Q 2066 3103 1784 3103 
Q 1356 3103 1142 2972 
Q 928 2841 928 2578 
Q 928 2378 1081 2264 
Q 1234 2150 1697 2047 
L 1894 2003 
Q 2506 1872 2764 1633 
Q 3022 1394 3022 966 
Q 3022 478 2636 193 
Q 2250 -91 1575 -91 
Q 1294 -91 989 -36 
Q 684 19 347 128 
L 347 722 
Q 666 556 975 473 
Q 1284 391 1588 391 
Q 1994 391 2212 530 
Q 2431 669 2431 922 
Q 2431 1156 2273 1281 
Q 2116 1406 1581 1522 
L 1381 1569 
Q 847 1681 609 1914 
Q 372 2147 372 2553 
Q 372 3047 722 3315 
Q 1072 3584 1716 3584 
Q 2034 3584 2315 3537 
Q 2597 3491 2834 3397 
z
" transform="scale(0.015625)"/>
      <path id="DejaVuSans-75" d="M 544 1381 
L 544 3500 
L 1119 3500 
L 1119 1403 
Q 1119 906 1312 657 
Q 1506 409 1894 409 
Q 2359 409 2629 706 
Q 2900 1003 2900 1516 
L 2900 3500 
L 3475 3500 
L 3475 0 
L 2900 0 
L 2900 538 
Q 2691 219 2414 64 
Q 2138 -91 1772 -91 
Q 1169 -91 856 284 
Q 544 659 544 1381 
z
M 1991 3584 
L 1991 3584 
z
" transform="scale(0.015625)"/>
      <path id="DejaVuSans-62" d="M 3116 1747 
Q 3116 2381 2855 2742 
Q 2594 3103 2138 3103 
Q 1681 3103 1420 2742 
Q 1159 2381 1159 1747 
Q 1159 1113 1420 752 
Q 1681 391 2138 391 
Q 2594 391 2855 752 
Q 3116 1113 3116 1747 
z
M 1159 2969 
Q 1341 3281 1617 3432 
Q 1894 3584 2278 3584 
Q 2916 3584 3314 3078 
Q 3713 2572 3713 1747 
Q 3713 922 3314 415 
Q 2916 -91 2278 -91 
Q 1894 -91 1617 61 
Q 1341 213 1159 525 
L 1159 0 
L 581 0 
L 581 4863 
L 1159 4863 
L 1159 2969 
z
" transform="scale(0.015625)"/>
      <path id="DejaVuSans-63" d="M 3122 3366 
L 3122 2828 
Q 2878 2963 2633 3030 
Q 2388 3097 2138 3097 
Q 1578 3097 1268 2742 
Q 959 2388 959 1747 
Q 959 1106 1268 751 
Q 1578 397 2138 397 
Q 2388 397 2633 464 
Q 2878 531 3122 666 
L 3122 134 
Q 2881 22 2623 -34 
Q 2366 -91 2075 -91 
Q 1284 -91 818 406 
Q 353 903 353 1747 
Q 353 2603 823 3093 
Q 1294 3584 2113 3584 
Q 2378 3584 2631 3529 
Q 2884 3475 3122 3366 
z
" transform="scale(0.015625)"/>
      <path id="DejaVuSans-72" d="M 2631 2963 
Q 2534 3019 2420 3045 
Q 2306 3072 2169 3072 
Q 1681 3072 1420 2755 
Q 1159 2438 1159 1844 
L 1159 0 
L 581 0 
L 581 3500 
L 1159 3500 
L 1159 2956 
Q 1341 3275 1631 3429 
Q 1922 3584 2338 3584 
Q 2397 3584 2469 3576 
Q 2541 3569 2628 3553 
L 2631 2963 
z
" transform="scale(0.015625)"/>
      <path id="DejaVuSans-69" d="M 603 3500 
L 1178 3500 
L 1178 0 
L 603 0 
L 603 3500 
z
M 603 4863 
L 1178 4863 
L 1178 4134 
L 603 4134 
L 603 4863 
z
" transform="scale(0.015625)"/>
      <path id="DejaVuSans-20" transform="scale(0.015625)"/>
      <path id="DejaVuSans-68" d="M 3513 2113 
L 3513 0 
L 2938 0 
L 2938 2094 
Q 2938 2591 2744 2837 
Q 2550 3084 2163 3084 
Q 1697 3084 1428 2787 
Q 1159 2491 1159 1978 
L 1159 0 
L 581 0 
L 581 4863 
L 1159 4863 
L 1159 2956 
Q 1366 3272 1645 3428 
Q 1925 3584 2291 3584 
Q 2894 3584 3203 3211 
Q 3513 2838 3513 2113 
z
" transform="scale(0.015625)"/>
      <path id="DejaVuSans-6f" d="M 1959 3097 
Q 1497 3097 1228 2736 
Q 959 2375 959 1747 
Q 959 1119 1226 758 
Q 1494 397 1959 397 
Q 2419 397 2687 759 
Q 2956 1122 2956 1747 
Q 2956 2369 2687 2733 
Q 2419 3097 1959 3097 
z
M 1959 3584 
Q 2709 3584 3137 3096 
Q 3566 2609 3566 1747 
Q 3566 888 3137 398 
Q 2709 -91 1959 -91 
Q 1206 -91 779 398 
Q 353 888 353 1747 
Q 353 2609 779 3096 
Q 1206 3584 1959 3584 
z
" transform="scale(0.015625)"/>
      <path id="DejaVuSans-79" d="M 2059 -325 
Q 1816 -950 1584 -1140 
Q 1353 -1331 966 -1331 
L 506 -1331 
L 506 -850 
L 844 -850 
Q 1081 -850 1212 -737 
Q 1344 -625 1503 -206 
L 1606 56 
L 191 3500 
L 800 3500 
L 1894 763 
L 2988 3500 
L 3597 3500 
L 2059 -325 
z
" transform="scale(0.015625)"/>
     </defs>
     <use xlink:href="#DejaVuSans-67"/>
     <use xlink:href="#DejaVuSans-65" x="63.476562"/>
     <use xlink:href="#DejaVuSans-74" x="125"/>
     <use xlink:href="#DejaVuSans-5f" x="164.208984"/>
     <use xlink:href="#DejaVuSans-73" x="214.208984"/>
     <use xlink:href="#DejaVuSans-75" x="266.308594"/>
     <use xlink:href="#DejaVuSans-62" x="329.6875"/>
     <use xlink:href="#DejaVuSans-73" x="393.164062"/>
     <use xlink:href="#DejaVuSans-63" x="445.263672"/>
     <use xlink:href="#DejaVuSans-72" x="500.244141"/>
     <use xlink:href="#DejaVuSans-69" x="541.357422"/>
     <use xlink:href="#DejaVuSans-62" x="569.140625"/>
     <use xlink:href="#DejaVuSans-65" x="632.617188"/>
     <use xlink:href="#DejaVuSans-20" x="694.140625"/>
     <use xlink:href="#DejaVuSans-68" x="725.927734"/>
     <use xlink:href="#DejaVuSans-69" x="789.306641"/>
     <use xlink:href="#DejaVuSans-73" x="817.089844"/>
     <use xlink:href="#DejaVuSans-74" x="869.189453"/>
     <use xlink:href="#DejaVuSans-6f" x="908.398438"/>
     <use xlink:href="#DejaVuSans-72" x="969.580078"/>
     <use xlink:href="#DejaVuSans-79" x="1010.693359"/>
    </g>
   </g>
   <g id="legend_1">
    <g id="line2d_35">
     <path d="M 815.08 328.498438 
L 825.08 328.498438 
L 835.08 328.498438 
" style="fill: none; stroke: #1f77b4; stroke-width: 1.5; stroke-linecap: square"/>
    </g>
    <g id="text_18">
     <!-- star -->
     <g style="fill: #a9a9a9" transform="translate(843.08 331.998438)scale(0.1 -0.1)">
      <defs>
       <path id="DejaVuSans-61" d="M 2194 1759 
Q 1497 1759 1228 1600 
Q 959 1441 959 1056 
Q 959 750 1161 570 
Q 1363 391 1709 391 
Q 2188 391 2477 730 
Q 2766 1069 2766 1631 
L 2766 1759 
L 2194 1759 
z
M 3341 1997 
L 3341 0 
L 2766 0 
L 2766 531 
Q 2569 213 2275 61 
Q 1981 -91 1556 -91 
Q 1019 -91 701 211 
Q 384 513 384 1019 
Q 384 1609 779 1909 
Q 1175 2209 1959 2209 
L 2766 2209 
L 2766 2266 
Q 2766 2663 2505 2880 
Q 2244 3097 1772 3097 
Q 1472 3097 1187 3025 
Q 903 2953 641 2809 
L 641 3341 
Q 956 3463 1253 3523 
Q 1550 3584 1831 3584 
Q 2591 3584 2966 3190 
Q 3341 2797 3341 1997 
z
" transform="scale(0.015625)"/>
      </defs>
      <use xlink:href="#DejaVuSans-73"/>
      <use xlink:href="#DejaVuSans-74" x="52.099609"/>
      <use xlink:href="#DejaVuSans-61" x="91.308594"/>
      <use xlink:href="#DejaVuSans-72" x="152.587891"/>
     </g>
    </g>
    <g id="line2d_36">
     <path d="M 815.08 343.176562 
L 825.08 343.176562 
L 835.08 343.176562 
" style="fill: none; stroke: #ff7f0e; stroke-width: 1.5; stroke-linecap: square"/>
    </g>
    <g id="text_19">
     <!-- fork -->
     <g style="fill: #a9a9a9" transform="translate(843.08 346.676562)scale(0.1 -0.1)">
      <defs>
       <path id="DejaVuSans-66" d="M 2375 4863 
L 2375 4384 
L 1825 4384 
Q 1516 4384 1395 4259 
Q 1275 4134 1275 3809 
L 1275 3500 
L 2222 3500 
L 2222 3053 
L 1275 3053 
L 1275 0 
L 697 0 
L 697 3053 
L 147 3053 
L 147 3500 
L 697 3500 
L 697 3744 
Q 697 4328 969 4595 
Q 1241 4863 1831 4863 
L 2375 4863 
z
" transform="scale(0.015625)"/>
       <path id="DejaVuSans-6b" d="M 581 4863 
L 1159 4863 
L 1159 1991 
L 2875 3500 
L 3609 3500 
L 1753 1863 
L 3688 0 
L 2938 0 
L 1159 1709 
L 1159 0 
L 581 0 
L 581 4863 
z
" transform="scale(0.015625)"/>
      </defs>
      <use xlink:href="#DejaVuSans-66"/>
      <use xlink:href="#DejaVuSans-6f" x="35.205078"/>
      <use xlink:href="#DejaVuSans-72" x="96.386719"/>
      <use xlink:href="#DejaVuSans-6b" x="137.5"/>
     </g>
    </g>
   </g>
  </g>
 </g>
 <defs>
  <clipPath id="p914d8f9fff">
   <rect x="108" y="43.2" width="669.6" height="277.2"/>
  </clipPath>
 </defs>
</svg>
