<?xml version="1.0" encoding="utf-8" standalone="no"?>
<!DOCTYPE svg PUBLIC "-//W3C//DTD SVG 1.1//EN"
  "http://www.w3.org/Graphics/SVG/1.1/DTD/svg11.dtd">
<svg xmlns:xlink="http://www.w3.org/1999/xlink" width="864pt" height="360pt" viewBox="0 0 864 360" xmlns="http://www.w3.org/2000/svg" version="1.1">
 <metadata>
  <rdf:RDF xmlns:dc="http://purl.org/dc/elements/1.1/" xmlns:cc="http://creativecommons.org/ns#" xmlns:rdf="http://www.w3.org/1999/02/22-rdf-syntax-ns#">
   <cc:Work>
    <dc:type rdf:resource="http://purl.org/dc/dcmitype/StillImage"/>
    <dc:date>2022-06-28T20:26:13.935330</dc:date>
    <dc:format>image/svg+xml</dc:format>
    <dc:creator>
     <cc:Agent>
      <dc:title>Matplotlib v3.5.2, https://matplotlib.org/</dc:title>
     </cc:Agent>
    </dc:creator>
   </cc:Work>
  </rdf:RDF>
 </metadata>
 <defs>
  <style type="text/css">*{stroke-linejoin: round; stroke-linecap: butt}</style>
 </defs>
 <g id="figure_1">
  <g id="patch_1">
   <path d="M 0 360 
L 864 360 
L 864 0 
L 0 0 
L 0 360 
z
" style="fill: none; opacity: 0"/>
  </g>
  <g id="axes_1">
   <g id="patch_2">
    <path d="M 108 320.4 
L 777.6 320.4 
L 777.6 43.2 
L 108 43.2 
L 108 320.4 
z
" style="fill: none; opacity: 0"/>
   </g>
   <g id="matplotlib.axis_1">
    <g id="xtick_1">
     <g id="line2d_1">
      <path d="M 208.466935 320.4 
L 208.466935 43.2 
" clip-path="url(#pfc38da9c14)" style="fill: none; stroke-dasharray: 5.12,1.28,0.8,1.28; stroke-dashoffset: 0; stroke: #b0b0b0; stroke-width: 0.8"/>
     </g>
     <g id="line2d_2">
      <defs>
       <path id="m475f719c0d" d="M 0 0 
L 0 3.5 
" style="stroke: #a9a9a9; stroke-width: 0.8"/>
      </defs>
      <g>
       <use xlink:href="#m475f719c0d" x="208.466935" y="320.4" style="fill: #a9a9a9; stroke: #a9a9a9; stroke-width: 0.8"/>
      </g>
     </g>
     <g id="text_1">
      <!-- 2021-09 -->
      <g style="fill: #a9a9a9" transform="translate(187.575529 334.998438)scale(0.1 -0.1)">
       <defs>
        <path id="DejaVuSans-32" d="M 1228 531 
L 3431 531 
L 3431 0 
L 469 0 
L 469 531 
Q 828 903 1448 1529 
Q 2069 2156 2228 2338 
Q 2531 2678 2651 2914 
Q 2772 3150 2772 3378 
Q 2772 3750 2511 3984 
Q 2250 4219 1831 4219 
Q 1534 4219 1204 4116 
Q 875 4013 500 3803 
L 500 4441 
Q 881 4594 1212 4672 
Q 1544 4750 1819 4750 
Q 2544 4750 2975 4387 
Q 3406 4025 3406 3419 
Q 3406 3131 3298 2873 
Q 3191 2616 2906 2266 
Q 2828 2175 2409 1742 
Q 1991 1309 1228 531 
z
" transform="scale(0.015625)"/>
        <path id="DejaVuSans-30" d="M 2034 4250 
Q 1547 4250 1301 3770 
Q 1056 3291 1056 2328 
Q 1056 1369 1301 889 
Q 1547 409 2034 409 
Q 2525 409 2770 889 
Q 3016 1369 3016 2328 
Q 3016 3291 2770 3770 
Q 2525 4250 2034 4250 
z
M 2034 4750 
Q 2819 4750 3233 4129 
Q 3647 3509 3647 2328 
Q 3647 1150 3233 529 
Q 2819 -91 2034 -91 
Q 1250 -91 836 529 
Q 422 1150 422 2328 
Q 422 3509 836 4129 
Q 1250 4750 2034 4750 
z
" transform="scale(0.015625)"/>
        <path id="DejaVuSans-31" d="M 794 531 
L 1825 531 
L 1825 4091 
L 703 3866 
L 703 4441 
L 1819 4666 
L 2450 4666 
L 2450 531 
L 3481 531 
L 3481 0 
L 794 0 
L 794 531 
z
" transform="scale(0.015625)"/>
        <path id="DejaVuSans-2d" d="M 313 2009 
L 1997 2009 
L 1997 1497 
L 313 1497 
L 313 2009 
z
" transform="scale(0.015625)"/>
        <path id="DejaVuSans-39" d="M 703 97 
L 703 672 
Q 941 559 1184 500 
Q 1428 441 1663 441 
Q 2288 441 2617 861 
Q 2947 1281 2994 2138 
Q 2813 1869 2534 1725 
Q 2256 1581 1919 1581 
Q 1219 1581 811 2004 
Q 403 2428 403 3163 
Q 403 3881 828 4315 
Q 1253 4750 1959 4750 
Q 2769 4750 3195 4129 
Q 3622 3509 3622 2328 
Q 3622 1225 3098 567 
Q 2575 -91 1691 -91 
Q 1453 -91 1209 -44 
Q 966 3 703 97 
z
M 1959 2075 
Q 2384 2075 2632 2365 
Q 2881 2656 2881 3163 
Q 2881 3666 2632 3958 
Q 2384 4250 1959 4250 
Q 1534 4250 1286 3958 
Q 1038 3666 1038 3163 
Q 1038 2656 1286 2365 
Q 1534 2075 1959 2075 
z
" transform="scale(0.015625)"/>
       </defs>
       <use xlink:href="#DejaVuSans-32"/>
       <use xlink:href="#DejaVuSans-30" x="63.623047"/>
       <use xlink:href="#DejaVuSans-32" x="127.246094"/>
       <use xlink:href="#DejaVuSans-31" x="190.869141"/>
       <use xlink:href="#DejaVuSans-2d" x="254.492188"/>
       <use xlink:href="#DejaVuSans-30" x="290.576172"/>
       <use xlink:href="#DejaVuSans-39" x="354.199219"/>
      </g>
     </g>
    </g>
    <g id="xtick_2">
     <g id="line2d_3">
      <path d="M 318.001931 320.4 
L 318.001931 43.2 
" clip-path="url(#pfc38da9c14)" style="fill: none; stroke-dasharray: 5.12,1.28,0.8,1.28; stroke-dashoffset: 0; stroke: #b0b0b0; stroke-width: 0.8"/>
     </g>
     <g id="line2d_4">
      <g>
       <use xlink:href="#m475f719c0d" x="318.001931" y="320.4" style="fill: #a9a9a9; stroke: #a9a9a9; stroke-width: 0.8"/>
      </g>
     </g>
     <g id="text_2">
      <!-- 2021-11 -->
      <g style="fill: #a9a9a9" transform="translate(297.110525 334.998438)scale(0.1 -0.1)">
       <use xlink:href="#DejaVuSans-32"/>
       <use xlink:href="#DejaVuSans-30" x="63.623047"/>
       <use xlink:href="#DejaVuSans-32" x="127.246094"/>
       <use xlink:href="#DejaVuSans-31" x="190.869141"/>
       <use xlink:href="#DejaVuSans-2d" x="254.492188"/>
       <use xlink:href="#DejaVuSans-31" x="290.576172"/>
       <use xlink:href="#DejaVuSans-31" x="354.199219"/>
      </g>
     </g>
    </g>
    <g id="xtick_3">
     <g id="line2d_5">
      <path d="M 427.536927 320.4 
L 427.536927 43.2 
" clip-path="url(#pfc38da9c14)" style="fill: none; stroke-dasharray: 5.12,1.28,0.8,1.28; stroke-dashoffset: 0; stroke: #b0b0b0; stroke-width: 0.8"/>
     </g>
     <g id="line2d_6">
      <g>
       <use xlink:href="#m475f719c0d" x="427.536927" y="320.4" style="fill: #a9a9a9; stroke: #a9a9a9; stroke-width: 0.8"/>
      </g>
     </g>
     <g id="text_3">
      <!-- 2022-01 -->
      <g style="fill: #a9a9a9" transform="translate(406.645521 334.998438)scale(0.1 -0.1)">
       <use xlink:href="#DejaVuSans-32"/>
       <use xlink:href="#DejaVuSans-30" x="63.623047"/>
       <use xlink:href="#DejaVuSans-32" x="127.246094"/>
       <use xlink:href="#DejaVuSans-32" x="190.869141"/>
       <use xlink:href="#DejaVuSans-2d" x="254.492188"/>
       <use xlink:href="#DejaVuSans-30" x="290.576172"/>
       <use xlink:href="#DejaVuSans-31" x="354.199219"/>
      </g>
     </g>
    </g>
    <g id="xtick_4">
     <g id="line2d_7">
      <path d="M 533.480611 320.4 
L 533.480611 43.2 
" clip-path="url(#pfc38da9c14)" style="fill: none; stroke-dasharray: 5.12,1.28,0.8,1.28; stroke-dashoffset: 0; stroke: #b0b0b0; stroke-width: 0.8"/>
     </g>
     <g id="line2d_8">
      <g>
       <use xlink:href="#m475f719c0d" x="533.480611" y="320.4" style="fill: #a9a9a9; stroke: #a9a9a9; stroke-width: 0.8"/>
      </g>
     </g>
     <g id="text_4">
      <!-- 2022-03 -->
      <g style="fill: #a9a9a9" transform="translate(512.589205 334.998438)scale(0.1 -0.1)">
       <defs>
        <path id="DejaVuSans-33" d="M 2597 2516 
Q 3050 2419 3304 2112 
Q 3559 1806 3559 1356 
Q 3559 666 3084 287 
Q 2609 -91 1734 -91 
Q 1441 -91 1130 -33 
Q 819 25 488 141 
L 488 750 
Q 750 597 1062 519 
Q 1375 441 1716 441 
Q 2309 441 2620 675 
Q 2931 909 2931 1356 
Q 2931 1769 2642 2001 
Q 2353 2234 1838 2234 
L 1294 2234 
L 1294 2753 
L 1863 2753 
Q 2328 2753 2575 2939 
Q 2822 3125 2822 3475 
Q 2822 3834 2567 4026 
Q 2313 4219 1838 4219 
Q 1578 4219 1281 4162 
Q 984 4106 628 3988 
L 628 4550 
Q 988 4650 1302 4700 
Q 1616 4750 1894 4750 
Q 2613 4750 3031 4423 
Q 3450 4097 3450 3541 
Q 3450 3153 3228 2886 
Q 3006 2619 2597 2516 
z
" transform="scale(0.015625)"/>
       </defs>
       <use xlink:href="#DejaVuSans-32"/>
       <use xlink:href="#DejaVuSans-30" x="63.623047"/>
       <use xlink:href="#DejaVuSans-32" x="127.246094"/>
       <use xlink:href="#DejaVuSans-32" x="190.869141"/>
       <use xlink:href="#DejaVuSans-2d" x="254.492188"/>
       <use xlink:href="#DejaVuSans-30" x="290.576172"/>
       <use xlink:href="#DejaVuSans-33" x="354.199219"/>
      </g>
     </g>
    </g>
    <g id="xtick_5">
     <g id="line2d_9">
      <path d="M 643.015607 320.4 
L 643.015607 43.2 
" clip-path="url(#pfc38da9c14)" style="fill: none; stroke-dasharray: 5.12,1.28,0.8,1.28; stroke-dashoffset: 0; stroke: #b0b0b0; stroke-width: 0.8"/>
     </g>
     <g id="line2d_10">
      <g>
       <use xlink:href="#m475f719c0d" x="643.015607" y="320.4" style="fill: #a9a9a9; stroke: #a9a9a9; stroke-width: 0.8"/>
      </g>
     </g>
     <g id="text_5">
      <!-- 2022-05 -->
      <g style="fill: #a9a9a9" transform="translate(622.124201 334.998438)scale(0.1 -0.1)">
       <defs>
        <path id="DejaVuSans-35" d="M 691 4666 
L 3169 4666 
L 3169 4134 
L 1269 4134 
L 1269 2991 
Q 1406 3038 1543 3061 
Q 1681 3084 1819 3084 
Q 2600 3084 3056 2656 
Q 3513 2228 3513 1497 
Q 3513 744 3044 326 
Q 2575 -91 1722 -91 
Q 1428 -91 1123 -41 
Q 819 9 494 109 
L 494 744 
Q 775 591 1075 516 
Q 1375 441 1709 441 
Q 2250 441 2565 725 
Q 2881 1009 2881 1497 
Q 2881 1984 2565 2268 
Q 2250 2553 1709 2553 
Q 1456 2553 1204 2497 
Q 953 2441 691 2322 
L 691 4666 
z
" transform="scale(0.015625)"/>
       </defs>
       <use xlink:href="#DejaVuSans-32"/>
       <use xlink:href="#DejaVuSans-30" x="63.623047"/>
       <use xlink:href="#DejaVuSans-32" x="127.246094"/>
       <use xlink:href="#DejaVuSans-32" x="190.869141"/>
       <use xlink:href="#DejaVuSans-2d" x="254.492188"/>
       <use xlink:href="#DejaVuSans-30" x="290.576172"/>
       <use xlink:href="#DejaVuSans-35" x="354.199219"/>
      </g>
     </g>
    </g>
    <g id="xtick_6">
     <g id="line2d_11">
      <path d="M 752.550603 320.4 
L 752.550603 43.2 
" clip-path="url(#pfc38da9c14)" style="fill: none; stroke-dasharray: 5.12,1.28,0.8,1.28; stroke-dashoffset: 0; stroke: #b0b0b0; stroke-width: 0.8"/>
     </g>
     <g id="line2d_12">
      <g>
       <use xlink:href="#m475f719c0d" x="752.550603" y="320.4" style="fill: #a9a9a9; stroke: #a9a9a9; stroke-width: 0.8"/>
      </g>
     </g>
     <g id="text_6">
      <!-- 2022-07 -->
      <g style="fill: #a9a9a9" transform="translate(731.659197 334.998438)scale(0.1 -0.1)">
       <defs>
        <path id="DejaVuSans-37" d="M 525 4666 
L 3525 4666 
L 3525 4397 
L 1831 0 
L 1172 0 
L 2766 4134 
L 525 4134 
L 525 4666 
z
" transform="scale(0.015625)"/>
       </defs>
       <use xlink:href="#DejaVuSans-32"/>
       <use xlink:href="#DejaVuSans-30" x="63.623047"/>
       <use xlink:href="#DejaVuSans-32" x="127.246094"/>
       <use xlink:href="#DejaVuSans-32" x="190.869141"/>
       <use xlink:href="#DejaVuSans-2d" x="254.492188"/>
       <use xlink:href="#DejaVuSans-30" x="290.576172"/>
       <use xlink:href="#DejaVuSans-37" x="354.199219"/>
      </g>
     </g>
    </g>
   </g>
   <g id="matplotlib.axis_2">
    <g id="ytick_1">
     <g id="line2d_13">
      <path d="M 108 307.91465 
L 777.6 307.91465 
" clip-path="url(#pfc38da9c14)" style="fill: none; stroke-dasharray: 5.12,1.28,0.8,1.28; stroke-dashoffset: 0; stroke: #b0b0b0; stroke-width: 0.8"/>
     </g>
     <g id="line2d_14">
      <defs>
       <path id="m27ecb68eeb" d="M 0 0 
L -3.5 0 
" style="stroke: #a9a9a9; stroke-width: 0.8"/>
      </defs>
      <g>
       <use xlink:href="#m27ecb68eeb" x="108" y="307.91465" style="fill: #a9a9a9; stroke: #a9a9a9; stroke-width: 0.8"/>
      </g>
     </g>
     <g id="text_7">
      <!-- 0 -->
      <g style="fill: #a9a9a9" transform="translate(94.6375 311.713868)scale(0.1 -0.1)">
       <use xlink:href="#DejaVuSans-30"/>
      </g>
     </g>
    </g>
    <g id="ytick_2">
     <g id="line2d_15">
      <path d="M 108 279.252229 
L 777.6 279.252229 
" clip-path="url(#pfc38da9c14)" style="fill: none; stroke-dasharray: 5.12,1.28,0.8,1.28; stroke-dashoffset: 0; stroke: #b0b0b0; stroke-width: 0.8"/>
     </g>
     <g id="line2d_16">
      <g>
       <use xlink:href="#m27ecb68eeb" x="108" y="279.252229" style="fill: #a9a9a9; stroke: #a9a9a9; stroke-width: 0.8"/>
      </g>
     </g>
     <g id="text_8">
      <!-- 250 -->
      <g style="fill: #a9a9a9" transform="translate(81.9125 283.051448)scale(0.1 -0.1)">
       <use xlink:href="#DejaVuSans-32"/>
       <use xlink:href="#DejaVuSans-35" x="63.623047"/>
       <use xlink:href="#DejaVuSans-30" x="127.246094"/>
      </g>
     </g>
    </g>
    <g id="ytick_3">
     <g id="line2d_17">
      <path d="M 108 250.589809 
L 777.6 250.589809 
" clip-path="url(#pfc38da9c14)" style="fill: none; stroke-dasharray: 5.12,1.28,0.8,1.28; stroke-dashoffset: 0; stroke: #b0b0b0; stroke-width: 0.8"/>
     </g>
     <g id="line2d_18">
      <g>
       <use xlink:href="#m27ecb68eeb" x="108" y="250.589809" style="fill: #a9a9a9; stroke: #a9a9a9; stroke-width: 0.8"/>
      </g>
     </g>
     <g id="text_9">
      <!-- 500 -->
      <g style="fill: #a9a9a9" transform="translate(81.9125 254.389028)scale(0.1 -0.1)">
       <use xlink:href="#DejaVuSans-35"/>
       <use xlink:href="#DejaVuSans-30" x="63.623047"/>
       <use xlink:href="#DejaVuSans-30" x="127.246094"/>
      </g>
     </g>
    </g>
    <g id="ytick_4">
     <g id="line2d_19">
      <path d="M 108 221.927389 
L 777.6 221.927389 
" clip-path="url(#pfc38da9c14)" style="fill: none; stroke-dasharray: 5.12,1.28,0.8,1.28; stroke-dashoffset: 0; stroke: #b0b0b0; stroke-width: 0.8"/>
     </g>
     <g id="line2d_20">
      <g>
       <use xlink:href="#m27ecb68eeb" x="108" y="221.927389" style="fill: #a9a9a9; stroke: #a9a9a9; stroke-width: 0.8"/>
      </g>
     </g>
     <g id="text_10">
      <!-- 750 -->
      <g style="fill: #a9a9a9" transform="translate(81.9125 225.726607)scale(0.1 -0.1)">
       <use xlink:href="#DejaVuSans-37"/>
       <use xlink:href="#DejaVuSans-35" x="63.623047"/>
       <use xlink:href="#DejaVuSans-30" x="127.246094"/>
      </g>
     </g>
    </g>
    <g id="ytick_5">
     <g id="line2d_21">
      <path d="M 108 193.264968 
L 777.6 193.264968 
" clip-path="url(#pfc38da9c14)" style="fill: none; stroke-dasharray: 5.12,1.28,0.8,1.28; stroke-dashoffset: 0; stroke: #b0b0b0; stroke-width: 0.8"/>
     </g>
     <g id="line2d_22">
      <g>
       <use xlink:href="#m27ecb68eeb" x="108" y="193.264968" style="fill: #a9a9a9; stroke: #a9a9a9; stroke-width: 0.8"/>
      </g>
     </g>
     <g id="text_11">
      <!-- 1000 -->
      <g style="fill: #a9a9a9" transform="translate(75.55 197.064187)scale(0.1 -0.1)">
       <use xlink:href="#DejaVuSans-31"/>
       <use xlink:href="#DejaVuSans-30" x="63.623047"/>
       <use xlink:href="#DejaVuSans-30" x="127.246094"/>
       <use xlink:href="#DejaVuSans-30" x="190.869141"/>
      </g>
     </g>
    </g>
    <g id="ytick_6">
     <g id="line2d_23">
      <path d="M 108 164.602548 
L 777.6 164.602548 
" clip-path="url(#pfc38da9c14)" style="fill: none; stroke-dasharray: 5.12,1.28,0.8,1.28; stroke-dashoffset: 0; stroke: #b0b0b0; stroke-width: 0.8"/>
     </g>
     <g id="line2d_24">
      <g>
       <use xlink:href="#m27ecb68eeb" x="108" y="164.602548" style="fill: #a9a9a9; stroke: #a9a9a9; stroke-width: 0.8"/>
      </g>
     </g>
     <g id="text_12">
      <!-- 1250 -->
      <g style="fill: #a9a9a9" transform="translate(75.55 168.401767)scale(0.1 -0.1)">
       <use xlink:href="#DejaVuSans-31"/>
       <use xlink:href="#DejaVuSans-32" x="63.623047"/>
       <use xlink:href="#DejaVuSans-35" x="127.246094"/>
       <use xlink:href="#DejaVuSans-30" x="190.869141"/>
      </g>
     </g>
    </g>
    <g id="ytick_7">
     <g id="line2d_25">
      <path d="M 108 135.940127 
L 777.6 135.940127 
" clip-path="url(#pfc38da9c14)" style="fill: none; stroke-dasharray: 5.12,1.28,0.8,1.28; stroke-dashoffset: 0; stroke: #b0b0b0; stroke-width: 0.8"/>
     </g>
     <g id="line2d_26">
      <g>
       <use xlink:href="#m27ecb68eeb" x="108" y="135.940127" style="fill: #a9a9a9; stroke: #a9a9a9; stroke-width: 0.8"/>
      </g>
     </g>
     <g id="text_13">
      <!-- 1500 -->
      <g style="fill: #a9a9a9" transform="translate(75.55 139.739346)scale(0.1 -0.1)">
       <use xlink:href="#DejaVuSans-31"/>
       <use xlink:href="#DejaVuSans-35" x="63.623047"/>
       <use xlink:href="#DejaVuSans-30" x="127.246094"/>
       <use xlink:href="#DejaVuSans-30" x="190.869141"/>
      </g>
     </g>
    </g>
    <g id="ytick_8">
     <g id="line2d_27">
      <path d="M 108 107.277707 
L 777.6 107.277707 
" clip-path="url(#pfc38da9c14)" style="fill: none; stroke-dasharray: 5.12,1.28,0.8,1.28; stroke-dashoffset: 0; stroke: #b0b0b0; stroke-width: 0.8"/>
     </g>
     <g id="line2d_28">
      <g>
       <use xlink:href="#m27ecb68eeb" x="108" y="107.277707" style="fill: #a9a9a9; stroke: #a9a9a9; stroke-width: 0.8"/>
      </g>
     </g>
     <g id="text_14">
      <!-- 1750 -->
      <g style="fill: #a9a9a9" transform="translate(75.55 111.076926)scale(0.1 -0.1)">
       <use xlink:href="#DejaVuSans-31"/>
       <use xlink:href="#DejaVuSans-37" x="63.623047"/>
       <use xlink:href="#DejaVuSans-35" x="127.246094"/>
       <use xlink:href="#DejaVuSans-30" x="190.869141"/>
      </g>
     </g>
    </g>
    <g id="ytick_9">
     <g id="line2d_29">
      <path d="M 108 78.615287 
L 777.6 78.615287 
" clip-path="url(#pfc38da9c14)" style="fill: none; stroke-dasharray: 5.12,1.28,0.8,1.28; stroke-dashoffset: 0; stroke: #b0b0b0; stroke-width: 0.8"/>
     </g>
     <g id="line2d_30">
      <g>
       <use xlink:href="#m27ecb68eeb" x="108" y="78.615287" style="fill: #a9a9a9; stroke: #a9a9a9; stroke-width: 0.8"/>
      </g>
     </g>
     <g id="text_15">
      <!-- 2000 -->
      <g style="fill: #a9a9a9" transform="translate(75.55 82.414505)scale(0.1 -0.1)">
       <use xlink:href="#DejaVuSans-32"/>
       <use xlink:href="#DejaVuSans-30" x="63.623047"/>
       <use xlink:href="#DejaVuSans-30" x="127.246094"/>
       <use xlink:href="#DejaVuSans-30" x="190.869141"/>
      </g>
     </g>
    </g>
    <g id="ytick_10">
     <g id="line2d_31">
      <path d="M 108 49.952866 
L 777.6 49.952866 
" clip-path="url(#pfc38da9c14)" style="fill: none; stroke-dasharray: 5.12,1.28,0.8,1.28; stroke-dashoffset: 0; stroke: #b0b0b0; stroke-width: 0.8"/>
     </g>
     <g id="line2d_32">
      <g>
       <use xlink:href="#m27ecb68eeb" x="108" y="49.952866" style="fill: #a9a9a9; stroke: #a9a9a9; stroke-width: 0.8"/>
      </g>
     </g>
     <g id="text_16">
      <!-- 2250 -->
      <g style="fill: #a9a9a9" transform="translate(75.55 53.752085)scale(0.1 -0.1)">
       <use xlink:href="#DejaVuSans-32"/>
       <use xlink:href="#DejaVuSans-32" x="63.623047"/>
       <use xlink:href="#DejaVuSans-35" x="127.246094"/>
       <use xlink:href="#DejaVuSans-30" x="190.869141"/>
      </g>
     </g>
    </g>
   </g>
   <g id="line2d_33">
    <path d="M 138.436364 307.456051 
L 142.027675 307.226752 
L 147.414642 306.538854 
L 149.210298 306.538854 
L 151.005953 305.850955 
L 154.597265 305.621656 
L 158.188576 304.933758 
L 159.984232 304.704459 
L 161.779887 304.24586 
L 163.575543 304.016561 
L 167.166854 303.214013 
L 168.96251 303.099363 
L 170.758166 302.870064 
L 172.553821 302.526115 
L 177.940788 302.182166 
L 179.736444 301.264968 
L 181.5321 300.806369 
L 183.327755 298.742675 
L 185.123411 297.596178 
L 186.919067 293.583439 
L 188.714722 293.35414 
L 190.510378 291.978344 
L 192.306034 291.290446 
L 194.101689 290.258599 
L 199.488656 286.016561 
L 201.284312 285.099363 
L 204.875623 283.608917 
L 206.671279 282.347771 
L 208.466935 281.659873 
L 212.058246 279.481529 
L 213.853902 278.793631 
L 215.649558 275.927389 
L 217.445213 274.551592 
L 219.240869 273.519745 
L 221.036525 272.717197 
L 226.423492 272.029299 
L 230.014803 271.341401 
L 231.810459 271.112102 
L 233.606114 270.768153 
L 237.197426 270.538854 
L 238.993081 270.080255 
L 240.788737 269.163057 
L 244.380048 268.933758 
L 246.175704 268.933758 
L 247.97136 268.589809 
L 251.562671 268.13121 
L 253.358327 268.016561 
L 255.153982 267.328662 
L 256.949638 266.984713 
L 260.540949 266.182166 
L 262.336605 265.952866 
L 264.132261 265.608917 
L 265.927916 265.494268 
L 267.723572 265.264968 
L 269.519228 264.806369 
L 271.314883 264.57707 
L 273.110539 264.46242 
L 274.906195 264.118471 
L 276.70185 263.201274 
L 278.497506 262.971975 
L 282.088817 261.710828 
L 283.884473 261.481529 
L 285.680129 261.366879 
L 287.475784 260.793631 
L 289.27144 260.449682 
L 291.067096 260.335032 
L 292.862751 259.876433 
L 294.658407 259.647134 
L 298.249718 258.500637 
L 300.045374 258.271338 
L 301.84103 258.271338 
L 303.636685 258.042038 
L 305.432341 257.927389 
L 307.227997 257.698089 
L 309.023652 257.124841 
L 310.819308 257.010191 
L 314.410619 255.978344 
L 316.206275 255.519745 
L 318.001931 255.290446 
L 321.593242 255.061146 
L 323.388898 254.717197 
L 325.184553 254.487898 
L 326.980209 254.029299 
L 328.775865 253.341401 
L 330.571521 251.048408 
L 332.367176 250.36051 
L 334.162832 249.443312 
L 335.958488 249.214013 
L 337.754143 248.755414 
L 339.549799 248.526115 
L 343.14111 247.035669 
L 344.936766 246.921019 
L 353.915044 244.513376 
L 355.7107 244.513376 
L 359.302011 244.054777 
L 361.097667 243.366879 
L 364.688978 242.335032 
L 366.484634 241.761783 
L 368.28029 241.417834 
L 370.075945 241.303185 
L 373.667257 239.812739 
L 375.462912 239.583439 
L 377.258568 238.780892 
L 379.054224 238.551592 
L 382.645535 238.322293 
L 384.441191 237.978344 
L 386.236846 237.519745 
L 388.032502 237.405096 
L 389.828158 237.175796 
L 393.419469 236.487898 
L 395.215125 236.258599 
L 400.602092 234.997452 
L 402.397747 234.194904 
L 404.193403 233.621656 
L 405.989059 232.589809 
L 407.784714 232.13121 
L 409.58037 231.901911 
L 413.171681 230.755414 
L 416.762993 228.806369 
L 418.558648 227.545223 
L 420.354304 227.315924 
L 422.14996 226.742675 
L 423.945615 226.513376 
L 425.741271 226.054777 
L 427.536927 225.825478 
L 429.332582 225.02293 
L 432.923894 224.335032 
L 436.515205 222.615287 
L 438.310861 222.156688 
L 440.106516 221.927389 
L 441.902172 221.23949 
L 443.697828 220.895541 
L 447.289139 220.092994 
L 449.084795 219.863694 
L 452.676106 218.258599 
L 454.471762 217.91465 
L 456.267418 217.112102 
L 458.063073 216.882803 
L 459.858729 216.080255 
L 461.654385 215.621656 
L 463.45004 215.392357 
L 465.245696 215.277707 
L 468.837007 214.016561 
L 470.632663 213.787261 
L 472.428319 213.787261 
L 474.223974 212.984713 
L 476.01963 212.640764 
L 477.815286 212.411465 
L 479.610941 211.723567 
L 481.406597 211.723567 
L 483.202253 211.608917 
L 484.997908 211.379618 
L 486.793564 211.264968 
L 488.58922 211.035669 
L 490.384875 210.69172 
L 493.976187 208.971975 
L 497.567498 207.366879 
L 499.363154 206.90828 
L 501.158809 205.761783 
L 502.954465 205.188535 
L 506.545776 203.583439 
L 508.341432 203.23949 
L 510.137088 202.436943 
L 511.932743 201.863694 
L 513.728399 200.602548 
L 515.524055 199.68535 
L 517.31971 197.850955 
L 519.115366 194.870064 
L 520.911022 192.347771 
L 522.706677 191.774522 
L 524.502333 191.659873 
L 528.093644 189.02293 
L 529.8893 188.564331 
L 531.684956 187.532484 
L 533.480611 187.188535 
L 535.276267 185.583439 
L 537.071923 185.124841 
L 542.45889 182.717197 
L 544.254545 180.653503 
L 546.050201 177.787261 
L 547.845857 176.755414 
L 549.641512 173.889172 
L 551.437168 172.169427 
L 553.232824 171.252229 
L 555.028479 170.678981 
L 556.824135 169.417834 
L 560.415447 167.698089 
L 562.211102 166.436943 
L 564.006758 164.946497 
L 565.802414 163.68535 
L 567.598069 162.653503 
L 569.393725 160.016561 
L 571.189381 155.774522 
L 572.985036 153.13758 
L 574.780692 151.647134 
L 576.576348 150.729936 
L 580.167659 147.290446 
L 583.75897 144.424204 
L 587.350282 141.557962 
L 589.145937 139.952866 
L 590.941593 137.430573 
L 592.737249 135.710828 
L 594.532904 134.335032 
L 598.124216 131.927389 
L 603.511183 127.8 
L 605.306838 127.341401 
L 610.693805 124.475159 
L 614.285117 122.526115 
L 616.080772 121.723567 
L 619.672084 118.628025 
L 621.467739 116.335032 
L 625.059051 113.927389 
L 626.854706 113.46879 
L 628.650362 112.551592 
L 630.446018 111.290446 
L 634.037329 109.456051 
L 635.832985 109.112102 
L 641.219952 105.787261 
L 643.015607 104.067516 
L 644.811263 102.806369 
L 646.606919 102.233121 
L 648.402574 100.971975 
L 650.19823 100.169427 
L 651.993886 98.90828 
L 653.789541 98.105732 
L 655.585197 96.959236 
L 657.380853 95.46879 
L 660.972164 94.207643 
L 662.76782 93.290446 
L 664.563475 92.831847 
L 666.359131 91.68535 
L 668.154787 91.226752 
L 682.520032 85.723567 
L 686.111344 85.035669 
L 687.906999 83.315924 
L 689.702655 81.940127 
L 691.498311 81.252229 
L 698.680933 77.124841 
L 700.476589 76.322293 
L 702.272245 75.749045 
L 704.0679 74.373248 
L 705.863556 73.68535 
L 711.250523 70.36051 
L 713.046179 70.016561 
L 720.228801 68.182166 
L 725.615768 65.201274 
L 727.411424 64.971975 
L 729.20708 64.284076 
L 731.002735 63.940127 
L 732.798391 63.13758 
L 734.594047 61.876433 
L 736.389702 60.385987 
L 738.185358 59.23949 
L 739.981014 58.895541 
L 741.776669 57.978344 
L 743.572325 57.519745 
L 745.367981 56.831847 
L 747.163636 55.8 
L 747.163636 55.8 
" clip-path="url(#pfc38da9c14)" style="fill: none; stroke: #1f77b4; stroke-width: 1.5; stroke-linecap: square"/>
   </g>
   <g id="line2d_34">
    <path d="M 140.232019 307.8 
L 143.823331 307.8 
L 147.414642 307.341401 
L 156.39292 307.341401 
L 159.984232 307.112102 
L 161.779887 307.112102 
L 163.575543 306.997452 
L 167.166854 306.997452 
L 170.758166 306.768153 
L 177.940788 306.768153 
L 179.736444 306.309554 
L 181.5321 306.309554 
L 183.327755 306.080255 
L 185.123411 306.080255 
L 186.919067 305.850955 
L 188.714722 305.736306 
L 194.101689 305.048408 
L 199.488656 304.704459 
L 201.284312 304.704459 
L 204.875623 304.475159 
L 206.671279 304.24586 
L 210.262591 304.24586 
L 212.058246 303.901911 
L 213.853902 303.901911 
L 215.649558 303.787261 
L 217.445213 303.787261 
L 221.036525 303.328662 
L 228.219147 303.328662 
L 230.014803 303.099363 
L 237.197426 303.099363 
L 240.788737 302.870064 
L 242.584393 302.870064 
L 244.380048 302.755414 
L 255.153982 302.755414 
L 256.949638 302.640764 
L 260.540949 302.640764 
L 262.336605 302.526115 
L 267.723572 302.526115 
L 269.519228 302.411465 
L 271.314883 302.411465 
L 273.110539 302.296815 
L 274.906195 302.296815 
L 276.70185 302.182166 
L 283.884473 302.182166 
L 285.680129 301.952866 
L 287.475784 301.952866 
L 289.27144 301.838217 
L 291.067096 301.838217 
L 294.658407 301.608917 
L 296.454063 301.608917 
L 298.249718 301.494268 
L 305.432341 301.494268 
L 307.227997 301.379618 
L 310.819308 301.379618 
L 312.614964 301.264968 
L 318.001931 301.264968 
L 319.797586 301.150318 
L 321.593242 301.150318 
L 323.388898 300.921019 
L 325.184553 300.806369 
L 326.980209 300.46242 
L 328.775865 300.46242 
L 330.571521 300.347771 
L 335.958488 300.347771 
L 337.754143 300.233121 
L 339.549799 300.003822 
L 343.14111 300.003822 
L 344.936766 299.889172 
L 346.732422 299.889172 
L 348.528077 299.774522 
L 353.915044 299.774522 
L 357.506356 299.545223 
L 361.097667 299.545223 
L 362.893323 299.430573 
L 364.688978 299.201274 
L 366.484634 299.086624 
L 368.28029 298.857325 
L 370.075945 298.742675 
L 371.871601 298.742675 
L 373.667257 298.628025 
L 375.462912 298.628025 
L 377.258568 298.513376 
L 379.054224 298.513376 
L 380.849879 298.398726 
L 386.236846 298.398726 
L 388.032502 298.169427 
L 393.419469 298.169427 
L 395.215125 297.940127 
L 397.01078 297.825478 
L 398.806436 297.596178 
L 400.602092 297.596178 
L 402.397747 297.481529 
L 404.193403 297.481529 
L 405.989059 297.366879 
L 411.376026 297.366879 
L 413.171681 297.13758 
L 414.967337 296.793631 
L 420.354304 296.449682 
L 422.14996 296.105732 
L 423.945615 296.105732 
L 425.741271 295.991083 
L 429.332582 295.991083 
L 431.128238 295.876433 
L 432.923894 295.647134 
L 434.719549 295.532484 
L 436.515205 295.303185 
L 441.902172 294.959236 
L 443.697828 294.959236 
L 447.289139 294.729936 
L 450.880451 294.729936 
L 456.267418 294.385987 
L 459.858729 294.385987 
L 461.654385 294.156688 
L 465.245696 293.927389 
L 468.837007 293.927389 
L 470.632663 293.698089 
L 472.428319 293.698089 
L 476.01963 293.46879 
L 477.815286 293.23949 
L 481.406597 293.23949 
L 483.202253 293.124841 
L 484.997908 293.124841 
L 490.384875 292.780892 
L 495.771842 292.780892 
L 499.363154 292.551592 
L 506.545776 292.551592 
L 508.341432 292.436943 
L 510.137088 292.436943 
L 511.932743 292.207643 
L 513.728399 291.863694 
L 517.31971 291.634395 
L 519.115366 291.634395 
L 520.911022 291.405096 
L 522.706677 291.290446 
L 524.502333 291.290446 
L 528.093644 291.061146 
L 529.8893 291.061146 
L 531.684956 290.717197 
L 533.480611 290.602548 
L 535.276267 290.373248 
L 537.071923 289.91465 
L 540.663234 289.68535 
L 542.45889 289.226752 
L 544.254545 289.112102 
L 546.050201 288.882803 
L 547.845857 288.768153 
L 551.437168 287.965605 
L 553.232824 287.850955 
L 555.028479 287.850955 
L 556.824135 287.736306 
L 558.619791 287.736306 
L 560.415447 287.507006 
L 562.211102 287.507006 
L 564.006758 287.277707 
L 567.598069 286.589809 
L 569.393725 286.13121 
L 572.985036 285.672611 
L 574.780692 285.672611 
L 578.372003 285.214013 
L 580.167659 285.214013 
L 585.554626 284.870064 
L 589.145937 284.411465 
L 592.737249 284.182166 
L 594.532904 284.182166 
L 596.32856 284.067516 
L 598.124216 283.838217 
L 599.919871 283.723567 
L 603.511183 283.723567 
L 605.306838 283.494268 
L 607.102494 283.150318 
L 608.89815 283.035669 
L 610.693805 282.806369 
L 612.489461 282.806369 
L 614.285117 282.46242 
L 616.080772 282.233121 
L 617.876428 281.889172 
L 621.467739 281.659873 
L 626.854706 281.659873 
L 628.650362 281.201274 
L 630.446018 280.971975 
L 632.241673 280.971975 
L 635.832985 280.742675 
L 637.62864 280.742675 
L 639.424296 280.398726 
L 641.219952 280.284076 
L 643.015607 280.284076 
L 646.606919 279.825478 
L 648.402574 279.481529 
L 650.19823 279.02293 
L 651.993886 278.793631 
L 653.789541 278.793631 
L 657.380853 278.564331 
L 659.176508 278.335032 
L 660.972164 278.335032 
L 664.563475 278.105732 
L 668.154787 278.105732 
L 671.746098 277.876433 
L 673.541754 277.876433 
L 677.133065 277.417834 
L 678.928721 277.303185 
L 680.724377 277.303185 
L 684.315688 277.073885 
L 686.111344 276.844586 
L 691.498311 276.500637 
L 696.885278 276.500637 
L 698.680933 276.271338 
L 700.476589 276.156688 
L 704.0679 276.156688 
L 705.863556 275.812739 
L 707.659212 275.698089 
L 709.454867 275.46879 
L 711.250523 275.35414 
L 713.046179 275.35414 
L 714.841834 275.124841 
L 718.433146 275.124841 
L 720.228801 275.010191 
L 722.024457 274.666242 
L 725.615768 274.666242 
L 727.411424 274.436943 
L 729.20708 274.436943 
L 732.798391 274.207643 
L 734.594047 274.207643 
L 736.389702 273.863694 
L 739.981014 273.863694 
L 741.776669 273.749045 
L 747.163636 273.749045 
L 747.163636 273.749045 
" clip-path="url(#pfc38da9c14)" style="fill: none; stroke: #ff7f0e; stroke-width: 1.5; stroke-linecap: square"/>
   </g>
   <g id="patch_3">
    <path d="M 108 320.4 
L 108 43.2 
" style="fill: none; stroke: #a9a9a9; stroke-width: 0.8; stroke-linejoin: miter; stroke-linecap: square"/>
   </g>
   <g id="patch_4">
    <path d="M 777.6 320.4 
L 777.6 43.2 
" style="fill: none"/>
   </g>
   <g id="patch_5">
    <path d="M 108 320.4 
L 777.6 320.4 
" style="fill: none; stroke: #a9a9a9; stroke-width: 0.8; stroke-linejoin: miter; stroke-linecap: square"/>
   </g>
   <g id="patch_6">
    <path d="M 108 43.2 
L 777.6 43.2 
" style="fill: none"/>
   </g>
   <g id="text_17">
    <!-- get_subscribe history -->
    <g style="fill: #a9a9a9" transform="translate(378.6075 37.2)scale(0.12 -0.12)">
     <defs>
      <path id="DejaVuSans-67" d="M 2906 1791 
Q 2906 2416 2648 2759 
Q 2391 3103 1925 3103 
Q 1463 3103 1205 2759 
Q 947 2416 947 1791 
Q 947 1169 1205 825 
Q 1463 481 1925 481 
Q 2391 481 2648 825 
Q 2906 1169 2906 1791 
z
M 3481 434 
Q 3481 -459 3084 -895 
Q 2688 -1331 1869 -1331 
Q 1566 -1331 1297 -1286 
Q 1028 -1241 775 -1147 
L 775 -588 
Q 1028 -725 1275 -790 
Q 1522 -856 1778 -856 
Q 2344 -856 2625 -561 
Q 2906 -266 2906 331 
L 2906 616 
Q 2728 306 2450 153 
Q 2172 0 1784 0 
Q 1141 0 747 490 
Q 353 981 353 1791 
Q 353 2603 747 3093 
Q 1141 3584 1784 3584 
Q 2172 3584 2450 3431 
Q 2728 3278 2906 2969 
L 2906 3500 
L 3481 3500 
L 3481 434 
z
" transform="scale(0.015625)"/>
      <path id="DejaVuSans-65" d="M 3597 1894 
L 3597 1613 
L 953 1613 
Q 991 1019 1311 708 
Q 1631 397 2203 397 
Q 2534 397 2845 478 
Q 3156 559 3463 722 
L 3463 178 
Q 3153 47 2828 -22 
Q 2503 -91 2169 -91 
Q 1331 -91 842 396 
Q 353 884 353 1716 
Q 353 2575 817 3079 
Q 1281 3584 2069 3584 
Q 2775 3584 3186 3129 
Q 3597 2675 3597 1894 
z
M 3022 2063 
Q 3016 2534 2758 2815 
Q 2500 3097 2075 3097 
Q 1594 3097 1305 2825 
Q 1016 2553 972 2059 
L 3022 2063 
z
" transform="scale(0.015625)"/>
      <path id="DejaVuSans-74" d="M 1172 4494 
L 1172 3500 
L 2356 3500 
L 2356 3053 
L 1172 3053 
L 1172 1153 
Q 1172 725 1289 603 
Q 1406 481 1766 481 
L 2356 481 
L 2356 0 
L 1766 0 
Q 1100 0 847 248 
Q 594 497 594 1153 
L 594 3053 
L 172 3053 
L 172 3500 
L 594 3500 
L 594 4494 
L 1172 4494 
z
" transform="scale(0.015625)"/>
      <path id="DejaVuSans-5f" d="M 3263 -1063 
L 3263 -1509 
L -63 -1509 
L -63 -1063 
L 3263 -1063 
z
" transform="scale(0.015625)"/>
      <path id="DejaVuSans-73" d="M 2834 3397 
L 2834 2853 
Q 2591 2978 2328 3040 
Q 2066 3103 1784 3103 
Q 1356 3103 1142 2972 
Q 928 2841 928 2578 
Q 928 2378 1081 2264 
Q 1234 2150 1697 2047 
L 1894 2003 
Q 2506 1872 2764 1633 
Q 3022 1394 3022 966 
Q 3022 478 2636 193 
Q 2250 -91 1575 -91 
Q 1294 -91 989 -36 
Q 684 19 347 128 
L 347 722 
Q 666 556 975 473 
Q 1284 391 1588 391 
Q 1994 391 2212 530 
Q 2431 669 2431 922 
Q 2431 1156 2273 1281 
Q 2116 1406 1581 1522 
L 1381 1569 
Q 847 1681 609 1914 
Q 372 2147 372 2553 
Q 372 3047 722 3315 
Q 1072 3584 1716 3584 
Q 2034 3584 2315 3537 
Q 2597 3491 2834 3397 
z
" transform="scale(0.015625)"/>
      <path id="DejaVuSans-75" d="M 544 1381 
L 544 3500 
L 1119 3500 
L 1119 1403 
Q 1119 906 1312 657 
Q 1506 409 1894 409 
Q 2359 409 2629 706 
Q 2900 1003 2900 1516 
L 2900 3500 
L 3475 3500 
L 3475 0 
L 2900 0 
L 2900 538 
Q 2691 219 2414 64 
Q 2138 -91 1772 -91 
Q 1169 -91 856 284 
Q 544 659 544 1381 
z
M 1991 3584 
L 1991 3584 
z
" transform="scale(0.015625)"/>
      <path id="DejaVuSans-62" d="M 3116 1747 
Q 3116 2381 2855 2742 
Q 2594 3103 2138 3103 
Q 1681 3103 1420 2742 
Q 1159 2381 1159 1747 
Q 1159 1113 1420 752 
Q 1681 391 2138 391 
Q 2594 391 2855 752 
Q 3116 1113 3116 1747 
z
M 1159 2969 
Q 1341 3281 1617 3432 
Q 1894 3584 2278 3584 
Q 2916 3584 3314 3078 
Q 3713 2572 3713 1747 
Q 3713 922 3314 415 
Q 2916 -91 2278 -91 
Q 1894 -91 1617 61 
Q 1341 213 1159 525 
L 1159 0 
L 581 0 
L 581 4863 
L 1159 4863 
L 1159 2969 
z
" transform="scale(0.015625)"/>
      <path id="DejaVuSans-63" d="M 3122 3366 
L 3122 2828 
Q 2878 2963 2633 3030 
Q 2388 3097 2138 3097 
Q 1578 3097 1268 2742 
Q 959 2388 959 1747 
Q 959 1106 1268 751 
Q 1578 397 2138 397 
Q 2388 397 2633 464 
Q 2878 531 3122 666 
L 3122 134 
Q 2881 22 2623 -34 
Q 2366 -91 2075 -91 
Q 1284 -91 818 406 
Q 353 903 353 1747 
Q 353 2603 823 3093 
Q 1294 3584 2113 3584 
Q 2378 3584 2631 3529 
Q 2884 3475 3122 3366 
z
" transform="scale(0.015625)"/>
      <path id="DejaVuSans-72" d="M 2631 2963 
Q 2534 3019 2420 3045 
Q 2306 3072 2169 3072 
Q 1681 3072 1420 2755 
Q 1159 2438 1159 1844 
L 1159 0 
L 581 0 
L 581 3500 
L 1159 3500 
L 1159 2956 
Q 1341 3275 1631 3429 
Q 1922 3584 2338 3584 
Q 2397 3584 2469 3576 
Q 2541 3569 2628 3553 
L 2631 2963 
z
" transform="scale(0.015625)"/>
      <path id="DejaVuSans-69" d="M 603 3500 
L 1178 3500 
L 1178 0 
L 603 0 
L 603 3500 
z
M 603 4863 
L 1178 4863 
L 1178 4134 
L 603 4134 
L 603 4863 
z
" transform="scale(0.015625)"/>
      <path id="DejaVuSans-20" transform="scale(0.015625)"/>
      <path id="DejaVuSans-68" d="M 3513 2113 
L 3513 0 
L 2938 0 
L 2938 2094 
Q 2938 2591 2744 2837 
Q 2550 3084 2163 3084 
Q 1697 3084 1428 2787 
Q 1159 2491 1159 1978 
L 1159 0 
L 581 0 
L 581 4863 
L 1159 4863 
L 1159 2956 
Q 1366 3272 1645 3428 
Q 1925 3584 2291 3584 
Q 2894 3584 3203 3211 
Q 3513 2838 3513 2113 
z
" transform="scale(0.015625)"/>
      <path id="DejaVuSans-6f" d="M 1959 3097 
Q 1497 3097 1228 2736 
Q 959 2375 959 1747 
Q 959 1119 1226 758 
Q 1494 397 1959 397 
Q 2419 397 2687 759 
Q 2956 1122 2956 1747 
Q 2956 2369 2687 2733 
Q 2419 3097 1959 3097 
z
M 1959 3584 
Q 2709 3584 3137 3096 
Q 3566 2609 3566 1747 
Q 3566 888 3137 398 
Q 2709 -91 1959 -91 
Q 1206 -91 779 398 
Q 353 888 353 1747 
Q 353 2609 779 3096 
Q 1206 3584 1959 3584 
z
" transform="scale(0.015625)"/>
      <path id="DejaVuSans-79" d="M 2059 -325 
Q 1816 -950 1584 -1140 
Q 1353 -1331 966 -1331 
L 506 -1331 
L 506 -850 
L 844 -850 
Q 1081 -850 1212 -737 
Q 1344 -625 1503 -206 
L 1606 56 
L 191 3500 
L 800 3500 
L 1894 763 
L 2988 3500 
L 3597 3500 
L 2059 -325 
z
" transform="scale(0.015625)"/>
     </defs>
     <use xlink:href="#DejaVuSans-67"/>
     <use xlink:href="#DejaVuSans-65" x="63.476562"/>
     <use xlink:href="#DejaVuSans-74" x="125"/>
     <use xlink:href="#DejaVuSans-5f" x="164.208984"/>
     <use xlink:href="#DejaVuSans-73" x="214.208984"/>
     <use xlink:href="#DejaVuSans-75" x="266.308594"/>
     <use xlink:href="#DejaVuSans-62" x="329.6875"/>
     <use xlink:href="#DejaVuSans-73" x="393.164062"/>
     <use xlink:href="#DejaVuSans-63" x="445.263672"/>
     <use xlink:href="#DejaVuSans-72" x="500.244141"/>
     <use xlink:href="#DejaVuSans-69" x="541.357422"/>
     <use xlink:href="#DejaVuSans-62" x="569.140625"/>
     <use xlink:href="#DejaVuSans-65" x="632.617188"/>
     <use xlink:href="#DejaVuSans-20" x="694.140625"/>
     <use xlink:href="#DejaVuSans-68" x="725.927734"/>
     <use xlink:href="#DejaVuSans-69" x="789.306641"/>
     <use xlink:href="#DejaVuSans-73" x="817.089844"/>
     <use xlink:href="#DejaVuSans-74" x="869.189453"/>
     <use xlink:href="#DejaVuSans-6f" x="908.398438"/>
     <use xlink:href="#DejaVuSans-72" x="969.580078"/>
     <use xlink:href="#DejaVuSans-79" x="1010.693359"/>
    </g>
   </g>
   <g id="legend_1">
    <g id="line2d_35">
     <path d="M 815.08 328.498438 
L 825.08 328.498438 
L 835.08 328.498438 
" style="fill: none; stroke: #1f77b4; stroke-width: 1.5; stroke-linecap: square"/>
    </g>
    <g id="text_18">
     <!-- star -->
     <g style="fill: #a9a9a9" transform="translate(843.08 331.998438)scale(0.1 -0.1)">
      <defs>
       <path id="DejaVuSans-61" d="M 2194 1759 
Q 1497 1759 1228 1600 
Q 959 1441 959 1056 
Q 959 750 1161 570 
Q 1363 391 1709 391 
Q 2188 391 2477 730 
Q 2766 1069 2766 1631 
L 2766 1759 
L 2194 1759 
z
M 3341 1997 
L 3341 0 
L 2766 0 
L 2766 531 
Q 2569 213 2275 61 
Q 1981 -91 1556 -91 
Q 1019 -91 701 211 
Q 384 513 384 1019 
Q 384 1609 779 1909 
Q 1175 2209 1959 2209 
L 2766 2209 
L 2766 2266 
Q 2766 2663 2505 2880 
Q 2244 3097 1772 3097 
Q 1472 3097 1187 3025 
Q 903 2953 641 2809 
L 641 3341 
Q 956 3463 1253 3523 
Q 1550 3584 1831 3584 
Q 2591 3584 2966 3190 
Q 3341 2797 3341 1997 
z
" transform="scale(0.015625)"/>
      </defs>
      <use xlink:href="#DejaVuSans-73"/>
      <use xlink:href="#DejaVuSans-74" x="52.099609"/>
      <use xlink:href="#DejaVuSans-61" x="91.308594"/>
      <use xlink:href="#DejaVuSans-72" x="152.587891"/>
     </g>
    </g>
    <g id="line2d_36">
     <path d="M 815.08 343.176562 
L 825.08 343.176562 
L 835.08 343.176562 
" style="fill: none; stroke: #ff7f0e; stroke-width: 1.5; stroke-linecap: square"/>
    </g>
    <g id="text_19">
     <!-- fork -->
     <g style="fill: #a9a9a9" transform="translate(843.08 346.676562)scale(0.1 -0.1)">
      <defs>
       <path id="DejaVuSans-66" d="M 2375 4863 
L 2375 4384 
L 1825 4384 
Q 1516 4384 1395 4259 
Q 1275 4134 1275 3809 
L 1275 3500 
L 2222 3500 
L 2222 3053 
L 1275 3053 
L 1275 0 
L 697 0 
L 697 3053 
L 147 3053 
L 147 3500 
L 697 3500 
L 697 3744 
Q 697 4328 969 4595 
Q 1241 4863 1831 4863 
L 2375 4863 
z
" transform="scale(0.015625)"/>
       <path id="DejaVuSans-6b" d="M 581 4863 
L 1159 4863 
L 1159 1991 
L 2875 3500 
L 3609 3500 
L 1753 1863 
L 3688 0 
L 2938 0 
L 1159 1709 
L 1159 0 
L 581 0 
L 581 4863 
z
" transform="scale(0.015625)"/>
      </defs>
      <use xlink:href="#DejaVuSans-66"/>
      <use xlink:href="#DejaVuSans-6f" x="35.205078"/>
      <use xlink:href="#DejaVuSans-72" x="96.386719"/>
      <use xlink:href="#DejaVuSans-6b" x="137.5"/>
     </g>
    </g>
   </g>
  </g>
 </g>
 <defs>
  <clipPath id="pfc38da9c14">
   <rect x="108" y="43.2" width="669.6" height="277.2"/>
  </clipPath>
 </defs>
</svg>
